<svg width="1440" height="1024" viewBox="0 0 1440 1024" fill="none" xmlns="http://www.w3.org/2000/svg">
<path d="M571.106 559.358H182.184V648.688H571.106V559.358Z" fill="#46455B"/>
<path d="M184.764 466.804L148 494.538L176.379 520.337L192.504 494.538L214.433 466.804H184.764Z" fill="#46455B"/>
<path d="M564.656 500.342L559.496 494.538L526.603 475.833L556.917 475.188L604 494.538L584.651 506.792L564.656 500.342Z" fill="#46455B"/>
<path d="M182.184 501.632L214.433 466.804V546.781L192.504 564.84L178.959 546.136L182.184 501.632Z" fill="#46455B"/>
<path d="M565.301 515.822L559.496 494.538L548.532 480.348L526.603 475.833V564.84H571.106L565.301 515.822Z" fill="#46455B"/>
<path d="M221.56 442.939H522.7C525.36 442.939 527.911 443.996 529.792 445.877C531.673 447.758 532.73 450.309 532.73 452.969V544.846H211.53V452.969C211.53 450.309 212.587 447.758 214.468 445.877C216.349 443.996 218.9 442.939 221.56 442.939Z" fill="#46455B"/>
<path d="M192.504 564.84L214.433 537.751H526.603L559.496 564.84H192.504Z" fill="#46455B"/>
<path opacity="0.05" d="M192.504 564.84L214.433 537.751H526.603L559.496 564.84H192.504Z" fill="black"/>
<path d="M192.504 494.538H148V648.688H192.504V494.538Z" fill="#46455B"/>
<path opacity="0.05" d="M192.504 494.538H148V648.688H192.504V494.538Z" fill="white"/>
<path d="M604 494.538H559.496V648.688H604V494.538Z" fill="#46455B"/>
<path opacity="0.05" d="M604 494.538H559.496V648.688H604V494.538Z" fill="white"/>
<path d="M332.786 465.836C361.283 465.836 384.385 435.371 384.385 397.791C384.385 360.21 361.283 329.746 332.786 329.746C304.289 329.746 281.188 360.21 281.188 397.791C281.188 435.371 304.289 465.836 332.786 465.836Z" fill="#2F2E41"/>
<path d="M355.361 368.444H297.958V448.422H355.361V368.444Z" fill="#2F2E41"/>
<path opacity="0.1" d="M355.361 368.444H297.958V448.422H355.361V368.444Z" fill="black"/>
<path d="M302.124 415.347C300.328 417.534 298.009 419.233 295.383 420.286C292.756 421.339 289.906 421.712 287.096 421.371C286.838 425.383 289.56 428.905 292.133 431.994L312.276 456.161C312.355 456.353 312.486 456.519 312.653 456.641C312.82 456.763 313.018 456.837 313.225 456.855C313.431 456.872 313.639 456.832 313.824 456.739C314.009 456.647 314.165 456.505 314.276 456.329L345.041 427.144C341.971 428.434 338.34 426.389 336.656 423.513C334.973 420.636 334.805 417.179 334.65 413.838C334.427 408.85 334.212 403.867 334.005 398.887C333.954 397.778 333.844 396.552 333.025 395.804C332.388 395.325 331.627 395.036 330.832 394.972C325.975 394.14 310.838 389.812 308.032 394.921C306.742 397.249 307.323 401.79 306.742 404.421C305.871 408.323 304.64 412.213 302.124 415.347Z" fill="#FBBEBE"/>
<path opacity="0.1" d="M302.124 415.347C300.328 417.534 298.009 419.233 295.383 420.286C292.756 421.339 289.906 421.712 287.096 421.371C286.838 425.383 289.56 428.905 292.133 431.994L312.276 456.161C312.355 456.353 312.486 456.519 312.653 456.641C312.82 456.763 313.018 456.837 313.225 456.855C313.431 456.872 313.639 456.832 313.824 456.739C314.009 456.647 314.165 456.505 314.276 456.329L345.041 427.144C341.971 428.434 338.34 426.389 336.656 423.513C334.973 420.636 334.805 417.179 334.65 413.838C334.427 408.85 334.212 403.867 334.005 398.887C333.954 397.778 333.844 396.552 333.025 395.804C332.388 395.325 331.627 395.036 330.832 394.972C325.975 394.14 310.838 389.812 308.032 394.921C306.742 397.249 307.323 401.79 306.742 404.421C305.871 408.323 304.64 412.213 302.124 415.347Z" fill="black"/>
<path d="M324.402 410.368C341.144 410.368 354.716 396.796 354.716 380.054C354.716 363.312 341.144 349.74 324.402 349.74C307.66 349.74 294.088 363.312 294.088 380.054C294.088 396.796 307.66 410.368 324.402 410.368Z" fill="#FBBEBE"/>
<path d="M313.437 441.095L308.574 425.764C306.639 419.623 303.891 412.664 297.764 410.684C293.894 409.446 289.721 410.581 285.69 410.239C277.847 409.562 270.211 403.325 262.877 406.182C253.847 409.691 253.925 423.558 245.908 429.001C245.908 441.959 250.094 453.994 252.358 466.745C254.621 479.497 255.273 493.261 249.365 504.799C246.862 509.688 243.283 513.945 240.612 518.744C236.235 526.657 234.444 535.741 235.491 544.723C269.727 545.153 303.967 545.257 338.211 545.033C337.895 540.596 335.915 536.223 335.592 531.785C335.399 530.446 335.504 529.08 335.902 527.786C336.656 525.851 338.578 524.697 340.223 523.439C342.427 521.741 344.293 519.645 345.725 517.26C348.008 513.461 349.091 509.082 350.149 504.773L362.971 452.53C364.5 446.306 365.983 439.514 363.326 433.684C360.411 427.279 353.419 423.951 346.963 421.145C343.093 419.449 338.643 417.734 334.708 419.294C331.484 420.584 329.458 423.674 327.42 426.473C323.477 431.986 318.769 436.91 313.437 441.095Z" fill="#FFF281"/>
<path opacity="0.1" d="M245.566 433.6C244.56 437.367 245.121 441.391 244.379 445.21C243.134 451.601 238.471 456.684 235.349 462.385C230.512 471.239 229.287 481.621 231.931 491.358C232.718 494.202 234.118 497.247 236.878 498.291C238.852 499.046 241.058 498.575 243.167 498.762C245.953 499.007 248.849 500.388 251.422 499.291C254.602 497.937 255.234 493.802 255.582 490.365C256.385 482.392 258.101 474.539 260.697 466.958C263.277 459.373 266.818 451.846 266.766 443.829C266.728 438.179 259.491 443.378 254.77 440.03C249.442 436.277 247.314 427.092 245.566 433.6Z" fill="black"/>
<path d="M244.276 432.955C243.27 436.722 243.831 440.746 243.089 444.565C241.844 450.956 237.181 456.039 234.06 461.74C229.222 470.594 227.997 480.976 230.641 490.713C231.428 493.557 232.828 496.602 235.588 497.646C237.562 498.401 239.768 497.93 241.877 498.117C244.663 498.362 247.559 499.743 250.132 498.646C253.312 497.292 253.944 493.157 254.292 489.72C255.095 481.747 256.811 473.894 259.407 466.313C261.987 458.728 265.528 451.202 265.476 443.184C265.438 437.534 262.955 431.291 258.233 427.944C252.906 424.19 246.024 426.447 244.276 432.955Z" fill="#FFF281"/>
<path d="M288.412 397.488C292.282 395.321 296.094 392.973 300.08 390.96C306.31 387.845 313.315 385.414 318.216 380.641C318.469 380.4 318.779 380.228 319.117 380.141C319.454 380.054 319.809 380.054 320.146 380.143C320.484 380.231 320.793 380.405 321.045 380.647C321.296 380.889 321.481 381.191 321.583 381.524C323.692 388.394 326.188 395.138 329.058 401.725C331.535 407.401 334.296 412.974 336.153 418.882C337.443 422.99 338.249 427.266 339.855 431.22C341.952 436.38 345.299 440.972 348.621 445.474C349.84 447.138 351.097 448.828 352.807 449.989C355.206 451.621 358.786 452.666 359.037 455.555C355.922 457.806 351.684 457.064 347.847 457.032C344.009 457 340.107 457.793 336.314 458.728C331.884 459.739 327.563 461.182 323.415 463.037C319.377 464.94 315.675 467.442 311.934 469.932L277.641 492.938C275.119 490.055 275.216 485.843 274.674 482.025C274.212 479.277 273.548 476.568 272.687 473.918L269.269 462.405C267.644 456.935 266.044 451.472 264.212 446.061C262.703 441.546 261.026 436.986 258.072 433.258C254.512 428.743 249.391 425.815 244.947 422.184C243.373 420.894 241.819 419.423 241.232 417.476C241.037 416.84 240.982 416.169 241.071 415.51C241.16 414.851 241.391 414.219 241.748 413.657C242.689 412.296 244.037 412.496 245.534 412.258C249.184 411.677 252.805 410.944 256.395 410.058C263.518 408.291 270.48 405.931 277.209 403.002C281.031 401.351 284.766 399.513 288.412 397.488Z" fill="#BBBDC8"/>
<path opacity="0.1" d="M289.818 402.261C293.217 400.377 296.519 398.313 299.996 396.572C305.439 393.85 311.541 391.734 315.817 387.587C316.037 387.375 316.307 387.223 316.602 387.146C316.897 387.068 317.208 387.068 317.503 387.145C317.798 387.222 318.069 387.374 318.289 387.586C318.509 387.798 318.67 388.062 318.758 388.355C320.597 394.347 322.774 400.23 325.279 405.976C327.44 410.929 329.845 415.792 331.451 420.946C332.561 424.525 333.277 428.234 334.676 431.71C336.501 436.225 339.43 440.218 342.319 444.145C343.305 445.653 344.54 446.984 345.97 448.08C348.072 449.505 351.194 450.415 351.407 452.943C348.692 454.878 344.996 454.233 341.648 454.233C338.248 454.301 334.869 454.8 331.593 455.716C327.731 456.596 323.965 457.856 320.351 459.477C316.864 461.232 313.516 463.25 310.335 465.514L280.414 485.553C278.215 483.038 278.305 479.342 277.834 476.027C277.433 473.623 276.856 471.251 276.106 468.932L273.119 458.89C271.7 454.117 270.282 449.35 268.708 444.629C267.418 440.688 265.934 436.715 263.354 433.458C260.246 429.53 255.782 426.97 251.9 423.783C250.532 422.668 249.171 421.378 248.675 419.681C248.505 419.127 248.457 418.542 248.535 417.968C248.613 417.393 248.815 416.842 249.126 416.353C249.945 415.16 251.126 415.334 252.428 415.128C255.615 414.625 258.773 413.98 261.903 413.193C268.117 411.655 274.191 409.597 280.059 407.04C283.392 405.604 286.645 404.011 289.818 402.261Z" fill="black"/>
<path d="M277.299 428.518C278.724 428.518 279.879 427.363 279.879 425.938C279.879 424.513 278.724 423.358 277.299 423.358C275.874 423.358 274.719 424.513 274.719 425.938C274.719 427.363 275.874 428.518 277.299 428.518Z" fill="#BBBDC8"/>
<path d="M304.807 415.779C306.232 415.779 307.387 414.624 307.387 413.199C307.387 411.775 306.232 410.619 304.807 410.619C303.382 410.619 302.227 411.775 302.227 413.199C302.227 414.624 303.382 415.779 304.807 415.779Z" fill="#BBBDC8"/>
<path d="M290.308 456.613C291.733 456.613 292.888 455.458 292.888 454.033C292.888 452.608 291.733 451.453 290.308 451.453C288.883 451.453 287.728 452.608 287.728 454.033C287.728 455.458 288.883 456.613 290.308 456.613Z" fill="#BBBDC8"/>
<path d="M317.816 443.875C319.241 443.875 320.396 442.719 320.396 441.295C320.396 439.87 319.241 438.715 317.816 438.715C316.392 438.715 315.237 439.87 315.237 441.295C315.237 442.719 316.392 443.875 317.816 443.875Z" fill="#BBBDC8"/>
<path d="M250.416 470.248C252.996 469.506 255.711 468.693 257.608 466.791C259.078 465.307 259.897 463.314 260.929 461.495C262.987 457.864 266.244 454.646 270.34 453.846C274.435 453.046 279.247 455.413 280.124 459.496C280.691 462.153 279.582 464.856 278.479 467.345C276.828 471.073 274.964 474.982 271.559 477.233C268.579 479.2 264.78 479.632 261.852 481.677C259.272 483.483 257.646 486.34 255.402 488.565C252.468 491.455 248.586 493.185 244.476 493.435C243.852 493.509 243.219 493.422 242.638 493.183C242.068 492.846 241.59 492.374 241.245 491.809C239.348 489.229 237.426 486.572 236.42 483.521C232.918 472.886 242.831 472.421 250.416 470.248Z" fill="#FBBEBE"/>
<path d="M319.132 471.667C318.262 466.468 318.145 460.799 314.933 456.619C312.244 453.13 307.774 451.363 303.375 451.066C302.085 450.976 300.57 451.105 299.822 452.163C299.396 452.909 299.226 453.774 299.338 454.626C299.61 461.232 302.074 467.559 306.342 472.608C307.948 474.492 309.812 476.207 310.935 478.413C311.915 480.316 312.276 482.489 313.186 484.424C314.372 486.946 316.41 488.939 317.971 491.261C320.184 494.587 321.332 498.509 321.261 502.503C322.963 499.723 322.757 496.247 322.918 492.99C323.131 488.404 326.343 485.895 324.26 482.154C322.177 478.413 319.887 476.214 319.132 471.667Z" fill="#FBBEBE"/>
<path opacity="0.1" d="M342.938 466.488C341.307 470.744 340.468 475.298 338.546 479.432C338.039 480.725 337.17 481.845 336.044 482.657C333.98 483.947 331.251 483.147 329.2 481.864C327.149 480.58 325.33 478.813 323.092 477.962C322.086 487.759 313.947 496.382 304.22 497.956C310.025 503.29 316.14 509.217 317.449 516.983C317.694 518.408 317.778 519.924 318.539 521.156C319.764 523.123 322.351 523.768 324.673 523.736C330.574 523.691 335.986 520.575 340.913 517.286C342.577 516.19 344.261 515.016 345.37 513.365C346.479 511.713 346.957 509.617 347.376 507.618C350.227 494.069 353.075 480.514 355.922 466.952C356.696 463.269 356.567 456.032 350.852 456.761C346.976 457.329 344.138 463.372 342.938 466.488Z" fill="black"/>
<path d="M344.228 466.488C342.597 470.744 341.758 475.298 339.836 479.432C339.329 480.725 338.46 481.845 337.334 482.657C335.27 483.947 332.541 483.147 330.49 481.864C328.439 480.58 326.62 478.813 324.382 477.962C323.376 487.759 315.237 496.382 305.51 497.956C311.315 503.29 317.429 509.217 318.739 516.983C318.984 518.408 319.068 519.924 319.829 521.156C321.054 523.123 323.641 523.768 325.963 523.736C331.864 523.691 337.275 520.575 342.203 517.286C343.867 516.19 345.551 515.016 346.66 513.365C347.769 511.713 348.247 509.617 348.666 507.618C351.517 494.069 354.365 480.514 357.212 466.952C357.986 463.269 357.857 456.032 352.142 456.761C348.266 457.329 345.428 463.372 344.228 466.488Z" fill="#FFF281"/>
<path d="M250.139 491.642C249.907 492.822 248.739 493.538 247.681 494.105C245.637 495.208 243.412 496.35 241.109 496.04C238.807 495.731 236.878 494.028 235.369 492.222C234.617 491.363 233.968 490.419 233.434 489.41C231.106 484.811 230.854 465.243 240.477 471.628C244.45 474.272 242.212 478.787 242.709 482.676C242.926 484.983 243.847 487.167 245.347 488.933C245.637 489.268 249.99 492.403 250.139 491.642Z" fill="#E3D770"/>
<path d="M332.464 372.959C348.315 372.959 361.165 366.895 361.165 359.415C361.165 351.934 348.315 345.87 332.464 345.87C316.612 345.87 303.762 351.934 303.762 359.415C303.762 366.895 316.612 372.959 332.464 372.959Z" fill="#2F2E41"/>
<path opacity="0.1" d="M333.754 368.444C318.223 368.444 305.588 362.639 305.078 355.351C304.254 356.548 303.805 357.962 303.788 359.415C303.788 366.896 316.636 372.959 332.49 372.959C348.343 372.959 361.191 366.896 361.191 359.415C361.191 359.26 361.191 359.111 361.191 358.963C357.483 364.458 346.608 368.444 333.754 368.444Z" fill="black"/>
<path d="M458.557 464.546C497.741 464.546 529.505 435.669 529.505 400.048C529.505 364.427 497.741 335.55 458.557 335.55C419.374 335.55 387.61 364.427 387.61 400.048C387.61 435.669 419.374 464.546 458.557 464.546Z" fill="#2F2E41"/>
<path opacity="0.1" d="M458.557 447.777C422.626 447.777 392.931 423.487 388.255 391.986C387.828 394.869 387.612 397.779 387.61 400.693C387.61 436.315 419.375 465.191 458.557 465.191C497.74 465.191 529.505 436.315 529.505 400.693C529.503 397.779 529.287 394.869 528.86 391.986C524.184 423.487 494.489 447.777 458.557 447.777Z" fill="black"/>
<path d="M457.267 448.422C476.147 448.422 491.451 427.775 491.451 402.306C491.451 376.837 476.147 356.19 457.267 356.19C438.388 356.19 423.083 376.837 423.083 402.306C423.083 427.775 438.388 448.422 457.267 448.422Z" fill="#2F2E41"/>
<path opacity="0.1" d="M457.267 448.422C476.147 448.422 491.451 427.775 491.451 402.306C491.451 376.837 476.147 356.19 457.267 356.19C438.388 356.19 423.083 376.837 423.083 402.306C423.083 427.775 438.388 448.422 457.267 448.422Z" fill="black"/>
<path d="M441.549 425.68C440.259 428.866 437.679 432.252 433.809 432.497C438.969 436.735 444.194 441.017 450.36 444.107C456.526 447.196 463.827 449.009 470.844 447.899C475.798 447.119 480.3 444.945 484.505 442.565C491.664 438.515 498.694 433.194 500.507 425.983C495.131 426.253 489.744 426.152 484.382 425.68C481.602 425.441 478.758 425.073 476.346 423.861C474.865 423.079 473.556 422.009 472.496 420.713C471.436 419.416 470.646 417.921 470.173 416.315C469.212 413.27 469.232 410.065 469.406 406.911C469.503 405.073 469.574 403.041 468.161 401.635C466.749 400.229 464.414 400.042 462.292 399.997C458.024 399.91 453.756 400.162 449.528 400.751C447.31 400.981 445.113 401.38 442.955 401.944C440.156 402.796 440.42 402.467 441.098 404.808C443.2 411.98 444.484 418.43 441.549 425.68Z" fill="#A0616A"/>
<path opacity="0.1" d="M441.549 425.68C440.259 428.866 437.679 432.252 433.809 432.497C438.969 436.735 444.194 441.017 450.36 444.107C456.526 447.196 463.827 449.009 470.844 447.899C475.798 447.119 480.3 444.945 484.505 442.565C491.664 438.515 498.694 433.194 500.507 425.983C495.131 426.253 489.744 426.152 484.382 425.68C481.602 425.441 478.758 425.073 476.346 423.861C474.865 423.079 473.556 422.009 472.496 420.713C471.436 419.416 470.646 417.921 470.173 416.315C469.212 413.27 469.232 410.065 469.406 406.911C469.503 405.073 469.574 403.041 468.161 401.635C466.749 400.229 464.414 400.042 462.292 399.997C458.024 399.91 453.756 400.162 449.528 400.751C447.31 400.981 445.113 401.38 442.955 401.944C440.156 402.796 440.42 402.467 441.098 404.808C443.2 411.98 444.484 418.43 441.549 425.68Z" fill="black"/>
<path d="M456.3 419.075C473.042 419.075 486.614 405.503 486.614 388.761C486.614 372.019 473.042 358.447 456.3 358.447C439.558 358.447 425.986 372.019 425.986 388.761C425.986 405.503 439.558 419.075 456.3 419.075Z" fill="#A0616A"/>
<path d="M445.851 428.35C443.871 425.976 441.833 423.551 439.195 421.939C434.874 419.288 429.52 419.12 424.457 419.036C418.968 418.94 413.002 418.991 408.662 422.352C406.727 423.867 405.243 425.944 403.831 427.982L385.442 454.426C384.727 455.458 383.972 456.626 384.152 457.871C384.358 458.766 384.804 459.589 385.442 460.251L405.669 485.508C406.823 486.946 408.017 488.462 408.404 490.268C408.791 492.074 408.313 493.97 407.694 495.724C405.25 502.684 400.599 509.269 401.025 516.602C401.328 521.388 403.831 525.787 406.894 529.502C413.925 537.971 424.044 543.479 434.629 546.484C445.213 549.49 456.326 550.148 467.335 550.219C488.091 550.354 509.904 548.09 527.048 536.384L513.574 523.691C510.91 521.175 508.117 518.466 507.195 514.919C506.55 512.533 506.86 510.017 507.15 507.573C507.692 503.103 508.233 498.601 509.678 494.344C513.696 482.483 524.023 474.04 530.911 463.585C531.775 462.295 532.614 460.812 532.517 459.244C532.44 457.922 531.704 456.742 530.988 455.632C527.841 450.75 524.577 445.893 522.294 440.553C520.591 436.58 519.437 432.355 517.328 428.582C515.219 424.809 511.871 421.416 507.653 420.623C502.222 419.604 496.927 423.003 491.412 423.235C487.375 423.409 483.163 421.894 479.39 423.332C474.914 425.041 472.94 430.085 470.431 434.181C468.58 437.231 463.059 445.577 458.731 443.526C456.377 442.404 454.217 438.366 452.527 436.386L445.851 428.35Z" fill="#7EB2FF"/>
<path d="M469.999 448.854C468.977 448.278 467.791 448.064 466.632 448.248C466.06 448.357 465.54 448.654 465.154 449.09C464.768 449.526 464.537 450.078 464.498 450.66L462.634 450.55C462.418 450.527 462.201 450.538 461.989 450.582C461.719 450.64 461.484 450.803 461.335 451.035C461.185 451.267 461.134 451.548 461.192 451.817C461.25 452.087 461.413 452.322 461.645 452.472C461.876 452.621 462.158 452.672 462.427 452.614C461.512 452.977 460.697 453.552 460.047 454.291C459.561 455.023 459.382 455.917 459.551 456.779C459.721 457.642 460.223 458.402 460.95 458.896C461.713 459.335 462.61 459.48 463.472 459.304C464.334 459.128 465.102 458.644 465.633 457.942C465.524 458.327 465.555 458.738 465.72 459.103C465.885 459.468 466.174 459.762 466.536 459.935C470.031 461.824 471.812 459.257 472.289 456.284C472.831 453.02 473.527 450.595 469.999 448.854Z" fill="#FFE9B3"/>
<path opacity="0.15" d="M469.999 448.854C468.977 448.278 467.791 448.064 466.632 448.248C466.06 448.357 465.54 448.654 465.154 449.09C464.768 449.526 464.537 450.078 464.498 450.66L462.634 450.55C462.418 450.527 462.201 450.538 461.989 450.582C461.719 450.64 461.484 450.803 461.335 451.035C461.185 451.267 461.134 451.548 461.192 451.817C461.25 452.087 461.413 452.322 461.645 452.472C461.876 452.621 462.158 452.672 462.427 452.614C461.512 452.977 460.697 453.552 460.047 454.291C459.561 455.023 459.382 455.917 459.551 456.779C459.721 457.642 460.223 458.402 460.95 458.896C461.713 459.335 462.61 459.48 463.472 459.304C464.334 459.128 465.102 458.644 465.633 457.942C465.524 458.327 465.555 458.738 465.72 459.103C465.885 459.468 466.174 459.762 466.536 459.935C470.031 461.824 471.812 459.257 472.289 456.284C472.831 453.02 473.527 450.595 469.999 448.854Z" fill="black"/>
<path d="M479.519 446.661C478.498 446.084 477.31 445.872 476.152 446.061C475.581 446.169 475.061 446.464 474.676 446.899C474.291 447.335 474.061 447.886 474.024 448.467L472.16 448.357C471.945 448.335 471.727 448.346 471.515 448.389C471.263 448.469 471.049 448.638 470.914 448.866C470.78 449.093 470.734 449.362 470.786 449.621C470.855 449.877 471.017 450.098 471.24 450.24C471.463 450.382 471.732 450.435 471.992 450.389C471.078 450.753 470.263 451.328 469.612 452.066C469.127 452.798 468.95 453.692 469.119 454.554C469.288 455.415 469.79 456.176 470.515 456.671C471.278 457.111 472.176 457.257 473.039 457.082C473.902 456.908 474.672 456.424 475.204 455.723C475.095 456.106 475.125 456.516 475.289 456.88C475.454 457.243 475.741 457.537 476.101 457.709C479.603 459.606 481.377 457.064 481.86 454.065C482.357 450.827 483.067 448.402 479.519 446.661Z" fill="#FFE9B3"/>
<path d="M487.285 447.77C486.265 447.195 485.08 446.983 483.924 447.17C483.352 447.277 482.831 447.571 482.444 448.007C482.057 448.443 481.827 448.995 481.789 449.576L479.925 449.467C479.71 449.444 479.492 449.454 479.28 449.499C479.028 449.578 478.814 449.748 478.68 449.975C478.545 450.202 478.5 450.472 478.552 450.731C478.62 450.986 478.782 451.207 479.005 451.349C479.229 451.491 479.497 451.544 479.758 451.498C478.842 451.859 478.026 452.434 477.378 453.175C476.891 453.907 476.713 454.801 476.882 455.663C477.051 456.526 477.554 457.287 478.281 457.78C479.042 458.221 479.939 458.368 480.802 458.193C481.664 458.018 482.433 457.534 482.963 456.832C482.855 457.217 482.886 457.627 483.051 457.991C483.216 458.354 483.505 458.648 483.866 458.819C487.362 460.715 489.136 458.141 489.619 455.175C490.123 451.969 490.806 449.512 487.285 447.77Z" fill="#FFE9B3"/>
<path opacity="0.15" d="M487.285 447.77C486.265 447.195 485.08 446.983 483.924 447.17C483.352 447.277 482.831 447.571 482.444 448.007C482.057 448.443 481.827 448.995 481.789 449.576L479.925 449.467C479.71 449.444 479.492 449.454 479.28 449.499C479.028 449.578 478.814 449.748 478.68 449.975C478.545 450.202 478.5 450.472 478.552 450.731C478.62 450.986 478.782 451.207 479.005 451.349C479.229 451.491 479.497 451.544 479.758 451.498C478.842 451.859 478.026 452.434 477.378 453.175C476.891 453.907 476.713 454.801 476.882 455.663C477.051 456.526 477.554 457.287 478.281 457.78C479.042 458.221 479.939 458.368 480.802 458.193C481.664 458.018 482.433 457.534 482.963 456.832C482.855 457.217 482.886 457.627 483.051 457.991C483.216 458.354 483.505 458.648 483.866 458.819C487.362 460.715 489.136 458.141 489.619 455.175C490.123 451.969 490.806 449.512 487.285 447.77Z" fill="black"/>
<path d="M506.286 452.292V521.575C506.284 522.016 506.108 522.438 505.796 522.75C505.485 523.062 505.062 523.237 504.622 523.239H450.547C450.106 523.237 449.684 523.062 449.372 522.75C449.06 522.438 448.884 522.016 448.883 521.575V452.292C448.882 452.015 448.95 451.743 449.082 451.5C449.213 451.256 449.402 451.049 449.633 450.898C449.864 450.746 450.13 450.654 450.405 450.631C450.681 450.607 450.957 450.653 451.211 450.763C452.587 451.356 453.961 451.905 455.332 452.408C457.267 453.117 459.202 453.734 461.137 454.259C463.072 454.781 465.007 455.213 466.942 455.549C468.877 455.884 470.812 456.142 472.747 456.297C474.682 456.452 476.617 456.516 478.552 456.477C480.487 456.439 482.421 456.329 484.356 456.116C486.291 455.903 488.226 455.587 490.161 455.181C492.096 454.775 494.031 454.297 495.966 453.71C497.469 453.253 498.978 452.743 500.481 452.175C501.642 451.743 502.796 451.272 503.957 450.769C504.21 450.659 504.487 450.614 504.762 450.637C505.036 450.66 505.301 450.751 505.532 450.902C505.763 451.053 505.953 451.259 506.084 451.502C506.216 451.744 506.285 452.016 506.286 452.292Z" fill="#BBBDC8"/>
<path d="M461.137 454.259V523.271H455.332V452.408C457.267 453.117 459.202 453.734 461.137 454.259Z" fill="white"/>
<path d="M472.747 456.29V523.239H466.942V455.516C468.877 455.89 470.812 456.136 472.747 456.29Z" fill="white"/>
<path d="M484.356 456.11V523.239H478.552V456.484C480.487 456.449 482.422 456.325 484.356 456.11Z" fill="white"/>
<path d="M495.966 453.704V523.239H490.161V455.194C492.096 454.79 494.031 454.293 495.966 453.704Z" fill="white"/>
<path opacity="0.1" d="M506.286 452.292V521.575C506.284 522.016 506.108 522.438 505.797 522.75C505.485 523.062 505.063 523.237 504.622 523.239H500.481V452.169C501.642 451.737 502.796 451.266 503.957 450.763C504.211 450.653 504.488 450.607 504.763 450.631C505.039 450.654 505.304 450.746 505.535 450.898C505.766 451.049 505.956 451.256 506.087 451.5C506.218 451.743 506.286 452.015 506.286 452.292Z" fill="black"/>
<path d="M463.982 445.551C462.962 444.976 461.777 444.765 460.621 444.952C460.048 445.058 459.528 445.352 459.141 445.788C458.754 446.224 458.524 446.776 458.486 447.357L456.622 447.248C456.407 447.225 456.189 447.236 455.977 447.28C455.725 447.359 455.511 447.529 455.377 447.756C455.242 447.984 455.197 448.253 455.249 448.512C455.317 448.768 455.479 448.988 455.702 449.13C455.926 449.272 456.194 449.326 456.455 449.279C455.539 449.64 454.723 450.215 454.075 450.956C453.588 451.688 453.41 452.582 453.579 453.445C453.748 454.307 454.251 455.068 454.978 455.562C455.74 456.001 456.636 456.147 457.498 455.972C458.36 455.798 459.129 455.315 459.66 454.613C459.552 454.998 459.583 455.408 459.748 455.772C459.913 456.136 460.202 456.429 460.563 456.6C464.059 458.49 465.833 455.923 466.316 452.956C466.819 449.718 467.516 447.293 463.982 445.551Z" fill="#FFE9B3"/>
<path d="M473.656 434.587C472.637 434.011 471.452 433.8 470.296 433.987C469.723 434.093 469.202 434.388 468.816 434.823C468.429 435.259 468.199 435.811 468.161 436.393L466.297 436.283C466.082 436.26 465.864 436.271 465.652 436.315C465.4 436.395 465.186 436.564 465.052 436.792C464.917 437.019 464.871 437.288 464.923 437.547C464.992 437.803 465.154 438.024 465.377 438.166C465.6 438.308 465.869 438.361 466.129 438.315C465.214 438.676 464.398 439.251 463.749 439.992C463.263 440.723 463.085 441.618 463.254 442.48C463.423 443.342 463.925 444.103 464.652 444.597C465.415 445.036 466.311 445.182 467.173 445.008C468.035 444.833 468.804 444.35 469.335 443.649C469.226 444.033 469.258 444.444 469.423 444.807C469.588 445.171 469.877 445.464 470.238 445.635C473.734 447.525 475.507 444.958 475.991 441.991C476.494 438.753 477.191 436.328 473.656 434.587Z" fill="#FFE9B3"/>
<path d="M480.229 449.479C480.994 448.59 481.433 447.466 481.473 446.293C481.485 445.709 481.301 445.138 480.95 444.67C480.6 444.203 480.103 443.866 479.538 443.713L480.009 441.907C480.078 441.699 480.11 441.481 480.106 441.262C480.096 440.99 479.978 440.734 479.778 440.549C479.579 440.364 479.314 440.265 479.042 440.276C478.77 440.286 478.513 440.404 478.328 440.603C478.143 440.803 478.045 441.068 478.055 441.34C477.879 440.373 477.474 439.462 476.875 438.682C476.249 438.065 475.406 437.719 474.527 437.719C473.648 437.719 472.805 438.065 472.179 438.682C471.597 439.342 471.276 440.192 471.276 441.072C471.276 441.952 471.597 442.802 472.179 443.462C471.822 443.281 471.413 443.232 471.023 443.324C470.634 443.417 470.289 443.643 470.051 443.965C467.516 447.022 469.69 449.267 472.508 450.318C475.591 451.453 477.836 452.614 480.229 449.479Z" fill="#FFE9B3"/>
<path d="M488.613 449.479C489.378 448.59 489.818 447.466 489.858 446.293C489.87 445.709 489.686 445.138 489.335 444.67C488.984 444.203 488.487 443.866 487.923 443.713L488.394 441.907C488.463 441.699 488.495 441.481 488.491 441.262C488.48 440.99 488.363 440.734 488.163 440.549C487.963 440.364 487.699 440.265 487.427 440.276C487.155 440.286 486.898 440.404 486.713 440.603C486.528 440.803 486.429 441.068 486.44 441.34C486.264 440.373 485.859 439.462 485.259 438.682C484.634 438.065 483.791 437.719 482.912 437.719C482.033 437.719 481.189 438.065 480.564 438.682C479.982 439.342 479.66 440.192 479.66 441.072C479.66 441.952 479.982 442.802 480.564 443.462C480.207 443.281 479.797 443.232 479.408 443.324C479.018 443.417 478.674 443.643 478.436 443.965C475.901 447.022 478.074 449.267 480.893 450.318C483.976 451.453 486.22 452.614 488.613 449.479Z" fill="#FFE9B3"/>
<path d="M493.863 454.994C494.454 453.98 494.682 452.795 494.508 451.634C494.407 451.06 494.117 450.536 493.685 450.145C493.253 449.753 492.703 449.517 492.122 449.473L492.257 447.615C492.29 447.402 492.29 447.184 492.257 446.97C492.197 446.705 492.033 446.475 491.803 446.331C491.572 446.186 491.294 446.139 491.029 446.2C490.764 446.26 490.533 446.424 490.389 446.654C490.244 446.885 490.197 447.163 490.258 447.428C489.903 446.51 489.338 445.688 488.607 445.029C487.88 444.535 486.987 444.347 486.123 444.507C485.259 444.666 484.492 445.16 483.989 445.88C483.541 446.639 483.386 447.534 483.552 448.399C483.718 449.264 484.195 450.038 484.892 450.576C484.508 450.464 484.097 450.491 483.731 450.653C483.365 450.814 483.068 451.1 482.892 451.459C480.957 454.936 483.537 456.742 486.478 457.264C489.671 457.774 492.096 458.503 493.863 454.994Z" fill="#FFE9B3"/>
<path d="M468.064 444.674C468.655 443.66 468.883 442.475 468.709 441.314C468.608 440.74 468.318 440.216 467.886 439.825C467.454 439.434 466.904 439.197 466.323 439.153L466.458 437.296C466.491 437.082 466.491 436.865 466.458 436.651C466.398 436.386 466.234 436.155 466.004 436.011C465.773 435.866 465.495 435.819 465.23 435.88C464.964 435.941 464.734 436.104 464.59 436.335C464.445 436.565 464.398 436.844 464.459 437.109C464.104 436.191 463.539 435.369 462.808 434.709C462.081 434.215 461.188 434.028 460.324 434.187C459.459 434.346 458.693 434.84 458.19 435.561C457.742 436.319 457.587 437.215 457.753 438.079C457.919 438.944 458.396 439.718 459.093 440.256C458.709 440.144 458.297 440.171 457.932 440.333C457.566 440.495 457.269 440.78 457.093 441.14C455.158 444.616 457.738 446.422 460.679 446.945C463.872 447.454 466.297 448.183 468.064 444.674Z" fill="#FFE9B3"/>
<path d="M470.644 441.114C469.623 440.538 468.436 440.324 467.277 440.508C466.705 440.618 466.185 440.914 465.799 441.35C465.413 441.787 465.182 442.339 465.143 442.92L463.279 442.81C463.063 442.787 462.846 442.798 462.634 442.843C462.364 442.901 462.129 443.064 461.98 443.295C461.83 443.527 461.779 443.808 461.837 444.078C461.895 444.347 462.058 444.582 462.29 444.732C462.521 444.881 462.803 444.932 463.072 444.874C462.157 445.237 461.342 445.812 460.692 446.551C460.206 447.283 460.027 448.177 460.196 449.04C460.366 449.902 460.868 450.663 461.595 451.156C462.358 451.595 463.255 451.74 464.117 451.564C464.979 451.388 465.747 450.904 466.278 450.202C466.169 450.587 466.2 450.999 466.365 451.363C466.53 451.728 466.819 452.023 467.181 452.195C470.676 454.085 472.457 451.518 472.934 448.544C473.476 445.281 474.172 442.855 470.644 441.114Z" fill="#FFE9B3"/>
<path opacity="0.15" d="M470.644 441.114C469.623 440.538 468.436 440.324 467.277 440.508C466.705 440.618 466.185 440.914 465.799 441.35C465.413 441.787 465.182 442.339 465.143 442.92L463.279 442.81C463.063 442.787 462.846 442.798 462.634 442.843C462.364 442.901 462.129 443.064 461.98 443.295C461.83 443.527 461.779 443.808 461.837 444.078C461.895 444.347 462.058 444.582 462.29 444.732C462.521 444.881 462.803 444.932 463.072 444.874C462.157 445.237 461.342 445.812 460.692 446.551C460.206 447.283 460.027 448.177 460.196 449.04C460.366 449.902 460.868 450.663 461.595 451.156C462.358 451.595 463.255 451.74 464.117 451.564C464.979 451.388 465.747 450.904 466.278 450.202C466.169 450.587 466.2 450.999 466.365 451.363C466.53 451.728 466.819 452.023 467.181 452.195C470.676 454.085 472.457 451.518 472.934 448.544C473.476 445.281 474.172 442.855 470.644 441.114Z" fill="black"/>
<path d="M498.385 443.333C497.363 442.756 496.176 442.544 495.018 442.733C494.446 442.84 493.925 443.135 493.539 443.571C493.152 444.006 492.922 444.558 492.883 445.139L491.026 445.029C490.81 445.007 490.593 445.018 490.381 445.061C490.128 445.141 489.915 445.31 489.78 445.538C489.645 445.765 489.6 446.034 489.652 446.293C489.72 446.549 489.882 446.769 490.105 446.912C490.329 447.054 490.597 447.107 490.858 447.061C489.944 447.425 489.128 448 488.478 448.738C487.993 449.47 487.816 450.364 487.985 451.225C488.154 452.087 488.655 452.848 489.381 453.343C490.143 453.782 491.039 453.928 491.901 453.754C492.763 453.579 493.532 453.096 494.063 452.395C493.955 452.779 493.986 453.19 494.151 453.553C494.317 453.917 494.605 454.21 494.966 454.381C498.462 456.271 500.242 453.704 500.72 450.731C501.216 447.499 501.913 445.074 498.385 443.333Z" fill="#FFE9B3"/>
<path opacity="0.15" d="M498.385 443.333C497.363 442.756 496.176 442.544 495.018 442.733C494.446 442.84 493.925 443.135 493.539 443.571C493.152 444.006 492.922 444.558 492.883 445.139L491.026 445.029C490.81 445.007 490.593 445.018 490.381 445.061C490.128 445.141 489.915 445.31 489.78 445.538C489.645 445.765 489.6 446.034 489.652 446.293C489.72 446.549 489.882 446.769 490.105 446.912C490.329 447.054 490.597 447.107 490.858 447.061C489.944 447.425 489.128 448 488.478 448.738C487.993 449.47 487.816 450.364 487.985 451.225C488.154 452.087 488.655 452.848 489.381 453.343C490.143 453.782 491.039 453.928 491.901 453.754C492.763 453.579 493.532 453.096 494.063 452.395C493.955 452.779 493.986 453.19 494.151 453.553C494.317 453.917 494.605 454.21 494.966 454.381C498.462 456.271 500.242 453.704 500.72 450.731C501.216 447.499 501.913 445.074 498.385 443.333Z" fill="black"/>
<path d="M481.615 432.368C480.594 431.791 479.406 431.58 478.249 431.768C477.676 431.876 477.156 432.17 476.769 432.606C476.383 433.041 476.152 433.593 476.114 434.174L474.256 434.064C474.041 434.042 473.823 434.053 473.611 434.097C473.359 434.176 473.145 434.346 473.011 434.573C472.876 434.8 472.83 435.07 472.882 435.329C472.951 435.584 473.113 435.805 473.336 435.947C473.559 436.089 473.828 436.142 474.088 436.096C473.174 436.46 472.359 437.035 471.708 437.773C471.223 438.505 471.046 439.399 471.215 440.261C471.384 441.123 471.886 441.883 472.611 442.378C473.374 442.817 474.27 442.963 475.132 442.789C475.994 442.614 476.763 442.131 477.294 441.43C477.185 441.815 477.217 442.225 477.382 442.589C477.547 442.952 477.836 443.246 478.197 443.417C481.693 445.306 483.473 442.739 483.95 439.766C484.447 436.535 485.143 434.11 481.615 432.368Z" fill="#FFE9B3"/>
<path opacity="0.15" d="M481.615 432.368C480.594 431.791 479.406 431.58 478.249 431.768C477.676 431.876 477.156 432.17 476.769 432.606C476.383 433.041 476.152 433.593 476.114 434.174L474.256 434.064C474.041 434.042 473.823 434.053 473.611 434.097C473.359 434.176 473.145 434.346 473.011 434.573C472.876 434.8 472.83 435.07 472.882 435.329C472.951 435.584 473.113 435.805 473.336 435.947C473.559 436.089 473.828 436.142 474.088 436.096C473.174 436.46 472.359 437.035 471.708 437.773C471.223 438.505 471.046 439.399 471.215 440.261C471.384 441.123 471.886 441.883 472.611 442.378C473.374 442.817 474.27 442.963 475.132 442.789C475.994 442.614 476.763 442.131 477.294 441.43C477.185 441.815 477.217 442.225 477.382 442.589C477.547 442.952 477.836 443.246 478.197 443.417C481.693 445.306 483.473 442.739 483.95 439.766C484.447 436.535 485.143 434.11 481.615 432.368Z" fill="black"/>
<path d="M468.716 428.498C467.694 427.921 466.507 427.71 465.349 427.898C464.777 428.006 464.256 428.301 463.87 428.736C463.483 429.172 463.253 429.723 463.214 430.304L461.356 430.195C461.141 430.172 460.924 430.183 460.711 430.227C460.459 430.306 460.246 430.476 460.111 430.703C459.976 430.93 459.931 431.2 459.983 431.459C460.051 431.714 460.213 431.935 460.436 432.077C460.66 432.219 460.928 432.272 461.189 432.226C460.275 432.591 459.459 433.165 458.809 433.903C458.324 434.635 458.147 435.529 458.316 436.391C458.485 437.253 458.986 438.013 459.712 438.508C460.474 438.948 461.37 439.094 462.232 438.919C463.094 438.744 463.863 438.261 464.394 437.56C464.286 437.945 464.317 438.355 464.482 438.719C464.647 439.082 464.936 439.376 465.297 439.547C468.793 441.437 470.573 438.87 471.05 435.896C471.547 432.665 472.244 430.24 468.716 428.498Z" fill="#FFE9B3"/>
<path opacity="0.15" d="M468.716 428.498C467.694 427.921 466.507 427.71 465.349 427.898C464.777 428.006 464.256 428.301 463.87 428.736C463.483 429.172 463.253 429.723 463.214 430.304L461.356 430.195C461.141 430.172 460.924 430.183 460.711 430.227C460.459 430.306 460.246 430.476 460.111 430.703C459.976 430.93 459.931 431.2 459.983 431.459C460.051 431.714 460.213 431.935 460.436 432.077C460.66 432.219 460.928 432.272 461.189 432.226C460.275 432.591 459.459 433.165 458.809 433.903C458.324 434.635 458.147 435.529 458.316 436.391C458.485 437.253 458.986 438.013 459.712 438.508C460.474 438.948 461.37 439.094 462.232 438.919C463.094 438.744 463.863 438.261 464.394 437.56C464.286 437.945 464.317 438.355 464.482 438.719C464.647 439.082 464.936 439.376 465.297 439.547C468.793 441.437 470.573 438.87 471.05 435.896C471.547 432.665 472.244 430.24 468.716 428.498Z" fill="black"/>
<path d="M482.905 425.918C481.884 425.341 480.696 425.13 479.538 425.319C478.966 425.426 478.446 425.721 478.059 426.156C477.673 426.592 477.442 427.143 477.404 427.724L475.546 427.615C475.331 427.592 475.113 427.603 474.901 427.647C474.649 427.726 474.435 427.896 474.301 428.123C474.166 428.351 474.12 428.62 474.172 428.879C474.241 429.134 474.403 429.355 474.626 429.497C474.849 429.639 475.118 429.692 475.378 429.646C474.464 430.011 473.649 430.585 472.998 431.323C472.513 432.055 472.336 432.949 472.505 433.811C472.674 434.673 473.176 435.434 473.901 435.928C474.663 436.368 475.56 436.514 476.422 436.339C477.284 436.165 478.053 435.681 478.584 434.98C478.475 435.365 478.506 435.775 478.672 436.139C478.837 436.503 479.126 436.796 479.487 436.967C482.983 438.857 484.763 436.29 485.24 433.316C485.737 430.085 486.433 427.66 482.905 425.918Z" fill="#FFE9B3"/>
<path opacity="0.15" d="M482.905 425.918C481.884 425.341 480.696 425.13 479.538 425.319C478.966 425.426 478.446 425.721 478.059 426.156C477.673 426.592 477.442 427.143 477.404 427.724L475.546 427.615C475.331 427.592 475.113 427.603 474.901 427.647C474.649 427.726 474.435 427.896 474.301 428.123C474.166 428.351 474.12 428.62 474.172 428.879C474.241 429.134 474.403 429.355 474.626 429.497C474.849 429.639 475.118 429.692 475.378 429.646C474.464 430.011 473.649 430.585 472.998 431.323C472.513 432.055 472.336 432.949 472.505 433.811C472.674 434.673 473.176 435.434 473.901 435.928C474.663 436.368 475.56 436.514 476.422 436.339C477.284 436.165 478.053 435.681 478.584 434.98C478.475 435.365 478.506 435.775 478.672 436.139C478.837 436.503 479.126 436.796 479.487 436.967C482.983 438.857 484.763 436.29 485.24 433.316C485.737 430.085 486.433 427.66 482.905 425.918Z" fill="black"/>
<path d="M488.065 429.788C487.044 429.211 485.856 429 484.698 429.188C484.126 429.296 483.606 429.59 483.219 430.026C482.833 430.462 482.602 431.013 482.563 431.594L480.706 431.484C480.49 431.462 480.273 431.473 480.061 431.517C479.809 431.596 479.595 431.766 479.46 431.993C479.326 432.22 479.28 432.49 479.332 432.749C479.401 433.004 479.562 433.225 479.786 433.367C480.009 433.509 480.278 433.562 480.538 433.516C479.624 433.88 478.809 434.455 478.158 435.193C477.673 435.925 477.496 436.819 477.665 437.681C477.834 438.543 478.336 439.303 479.061 439.798C479.823 440.238 480.719 440.384 481.582 440.209C482.444 440.034 483.212 439.551 483.744 438.85C483.635 439.235 483.666 439.645 483.832 440.009C483.997 440.372 484.286 440.666 484.647 440.837C488.142 442.726 489.923 440.159 490.4 437.186C490.896 433.955 491.593 431.53 488.065 429.788Z" fill="#FFE9B3"/>
<path opacity="0.15" d="M488.065 429.788C487.044 429.211 485.856 429 484.698 429.188C484.126 429.296 483.606 429.59 483.219 430.026C482.833 430.462 482.602 431.013 482.563 431.594L480.706 431.484C480.49 431.462 480.273 431.473 480.061 431.517C479.809 431.596 479.595 431.766 479.46 431.993C479.326 432.22 479.28 432.49 479.332 432.749C479.401 433.004 479.562 433.225 479.786 433.367C480.009 433.509 480.278 433.562 480.538 433.516C479.624 433.88 478.809 434.455 478.158 435.193C477.673 435.925 477.496 436.819 477.665 437.681C477.834 438.543 478.336 439.303 479.061 439.798C479.823 440.238 480.719 440.384 481.582 440.209C482.444 440.034 483.212 439.551 483.744 438.85C483.635 439.235 483.666 439.645 483.832 440.009C483.997 440.372 484.286 440.666 484.647 440.837C488.142 442.726 489.923 440.159 490.4 437.186C490.896 433.955 491.593 431.53 488.065 429.788Z" fill="black"/>
<path d="M456.461 443.333C455.44 442.756 454.252 442.544 453.094 442.733C452.522 442.84 452.002 443.135 451.615 443.571C451.229 444.006 450.998 444.558 450.959 445.139L449.102 445.029C448.887 445.007 448.669 445.018 448.457 445.061C448.205 445.141 447.991 445.31 447.856 445.538C447.722 445.765 447.676 446.034 447.728 446.293C447.797 446.549 447.959 446.769 448.182 446.912C448.405 447.054 448.674 447.107 448.934 447.061C448.02 447.425 447.205 448 446.554 448.738C446.069 449.47 445.892 450.364 446.061 451.225C446.23 452.087 446.732 452.848 447.457 453.343C448.219 453.782 449.116 453.928 449.978 453.754C450.84 453.579 451.609 453.096 452.14 452.395C452.031 452.779 452.062 453.19 452.228 453.553C452.393 453.917 452.682 454.21 453.043 454.381C456.539 456.271 458.319 453.704 458.796 450.731C459.293 447.499 459.989 445.074 456.461 443.333Z" fill="#FFE9B3"/>
<path opacity="0.15" d="M456.461 443.333C455.44 442.756 454.252 442.544 453.094 442.733C452.522 442.84 452.002 443.135 451.615 443.571C451.229 444.006 450.998 444.558 450.959 445.139L449.102 445.029C448.887 445.007 448.669 445.018 448.457 445.061C448.205 445.141 447.991 445.31 447.856 445.538C447.722 445.765 447.676 446.034 447.728 446.293C447.797 446.549 447.959 446.769 448.182 446.912C448.405 447.054 448.674 447.107 448.934 447.061C448.02 447.425 447.205 448 446.554 448.738C446.069 449.47 445.892 450.364 446.061 451.225C446.23 452.087 446.732 452.848 447.457 453.343C448.219 453.782 449.116 453.928 449.978 453.754C450.84 453.579 451.609 453.096 452.14 452.395C452.031 452.779 452.062 453.19 452.228 453.553C452.393 453.917 452.682 454.21 453.043 454.381C456.539 456.271 458.319 453.704 458.796 450.731C459.293 447.499 459.989 445.074 456.461 443.333Z" fill="black"/>
<path d="M493.87 434.303C492.848 433.726 491.661 433.515 490.503 433.703C489.931 433.811 489.41 434.105 489.024 434.541C488.638 434.976 488.407 435.528 488.368 436.109L486.511 435.999C486.295 435.977 486.078 435.988 485.866 436.032C485.614 436.111 485.4 436.28 485.265 436.508C485.131 436.735 485.085 437.004 485.137 437.264C485.205 437.519 485.367 437.74 485.591 437.882C485.814 438.024 486.082 438.077 486.343 438.031C485.429 438.395 484.614 438.97 483.963 439.708C483.478 440.44 483.301 441.334 483.47 442.196C483.639 443.058 484.14 443.818 484.866 444.313C485.628 444.752 486.524 444.898 487.386 444.724C488.248 444.549 489.017 444.066 489.548 443.365C489.44 443.749 489.471 444.16 489.636 444.524C489.802 444.887 490.09 445.181 490.451 445.352C493.947 447.241 495.727 444.674 496.205 441.701C496.701 438.47 497.398 436.044 493.87 434.303Z" fill="#FFE9B3"/>
<path opacity="0.15" d="M493.87 434.303C492.848 433.726 491.661 433.515 490.503 433.703C489.931 433.811 489.41 434.105 489.024 434.541C488.638 434.976 488.407 435.528 488.368 436.109L486.511 435.999C486.295 435.977 486.078 435.988 485.866 436.032C485.614 436.111 485.4 436.28 485.265 436.508C485.131 436.735 485.085 437.004 485.137 437.264C485.205 437.519 485.367 437.74 485.591 437.882C485.814 438.024 486.082 438.077 486.343 438.031C485.429 438.395 484.614 438.97 483.963 439.708C483.478 440.44 483.301 441.334 483.47 442.196C483.639 443.058 484.14 443.818 484.866 444.313C485.628 444.752 486.524 444.898 487.386 444.724C488.248 444.549 489.017 444.066 489.548 443.365C489.44 443.749 489.471 444.16 489.636 444.524C489.802 444.887 490.09 445.181 490.451 445.352C493.947 447.241 495.727 444.674 496.205 441.701C496.701 438.47 497.398 436.044 493.87 434.303Z" fill="black"/>
<path d="M506.124 440.753C505.103 440.176 503.916 439.964 502.758 440.153C502.185 440.26 501.665 440.555 501.279 440.991C500.892 441.426 500.661 441.978 500.623 442.559L498.765 442.449C498.55 442.427 498.332 442.438 498.12 442.481C497.868 442.561 497.654 442.73 497.52 442.958C497.385 443.185 497.34 443.454 497.391 443.713C497.46 443.969 497.622 444.19 497.845 444.332C498.069 444.474 498.337 444.527 498.598 444.481C497.684 444.845 496.868 445.42 496.218 446.158C495.733 446.89 495.555 447.784 495.724 448.646C495.893 449.507 496.395 450.268 497.121 450.763C497.883 451.202 498.779 451.348 499.641 451.174C500.503 450.999 501.272 450.516 501.803 449.815C501.695 450.199 501.726 450.61 501.891 450.973C502.056 451.337 502.345 451.63 502.706 451.801C506.202 453.691 507.982 451.124 508.459 448.151C508.956 444.919 509.653 442.494 506.124 440.753Z" fill="#FFE9B3"/>
<path opacity="0.15" d="M506.124 440.753C505.103 440.176 503.916 439.964 502.758 440.153C502.185 440.26 501.665 440.555 501.279 440.991C500.892 441.426 500.661 441.978 500.623 442.559L498.765 442.449C498.55 442.427 498.332 442.438 498.12 442.481C497.868 442.561 497.654 442.73 497.52 442.958C497.385 443.185 497.34 443.454 497.391 443.713C497.46 443.969 497.622 444.19 497.845 444.332C498.069 444.474 498.337 444.527 498.598 444.481C497.684 444.845 496.868 445.42 496.218 446.158C495.733 446.89 495.555 447.784 495.724 448.646C495.893 449.507 496.395 450.268 497.121 450.763C497.883 451.202 498.779 451.348 499.641 451.174C500.503 450.999 501.272 450.516 501.803 449.815C501.695 450.199 501.726 450.61 501.891 450.973C502.056 451.337 502.345 451.63 502.706 451.801C506.202 453.691 507.982 451.124 508.459 448.151C508.956 444.919 509.653 442.494 506.124 440.753Z" fill="black"/>
<path d="M495.805 426.563C494.783 425.986 493.596 425.775 492.438 425.963C491.866 426.071 491.345 426.366 490.959 426.801C490.572 427.237 490.342 427.788 490.303 428.369L488.446 428.26C488.23 428.237 488.013 428.248 487.801 428.292C487.549 428.371 487.335 428.541 487.2 428.768C487.066 428.996 487.02 429.265 487.072 429.524C487.14 429.779 487.302 430 487.526 430.142C487.749 430.284 488.017 430.337 488.278 430.291C487.364 430.656 486.548 431.23 485.898 431.968C485.413 432.7 485.236 433.594 485.405 434.456C485.574 435.318 486.075 436.079 486.801 436.573C487.563 437.013 488.459 437.159 489.321 436.984C490.183 436.81 490.952 436.326 491.483 435.625C491.375 436.01 491.406 436.42 491.571 436.784C491.737 437.147 492.025 437.441 492.386 437.612C495.882 439.502 497.662 436.935 498.14 433.961C498.636 430.73 499.333 428.305 495.805 426.563Z" fill="#FFE9B3"/>
<path opacity="0.15" d="M495.805 426.563C494.783 425.986 493.596 425.775 492.438 425.963C491.866 426.071 491.345 426.366 490.959 426.801C490.572 427.237 490.342 427.788 490.303 428.369L488.446 428.26C488.23 428.237 488.013 428.248 487.801 428.292C487.549 428.371 487.335 428.541 487.2 428.768C487.066 428.996 487.02 429.265 487.072 429.524C487.14 429.779 487.302 430 487.526 430.142C487.749 430.284 488.017 430.337 488.278 430.291C487.364 430.656 486.548 431.23 485.898 431.968C485.413 432.7 485.236 433.594 485.405 434.456C485.574 435.318 486.075 436.079 486.801 436.573C487.563 437.013 488.459 437.159 489.321 436.984C490.183 436.81 490.952 436.326 491.483 435.625C491.375 436.01 491.406 436.42 491.571 436.784C491.737 437.147 492.025 437.441 492.386 437.612C495.882 439.502 497.662 436.935 498.14 433.961C498.636 430.73 499.333 428.305 495.805 426.563Z" fill="black"/>
<path d="M504.828 442.094C505.419 441.08 505.646 439.895 505.473 438.734C505.372 438.16 505.082 437.636 504.65 437.245C504.218 436.854 503.668 436.617 503.087 436.573L503.222 434.716C503.255 434.502 503.255 434.285 503.222 434.071C503.192 433.94 503.136 433.816 503.058 433.706C502.98 433.596 502.881 433.503 502.767 433.431C502.653 433.359 502.526 433.311 502.393 433.289C502.261 433.266 502.125 433.27 501.993 433.3C501.862 433.33 501.738 433.386 501.628 433.464C501.518 433.542 501.425 433.641 501.354 433.755C501.282 433.869 501.234 433.996 501.211 434.129C501.189 434.262 501.193 434.398 501.223 434.529C500.868 433.611 500.302 432.789 499.571 432.129C498.845 431.635 497.952 431.448 497.088 431.607C496.223 431.766 495.456 432.26 494.953 432.981C494.506 433.739 494.35 434.635 494.517 435.499C494.683 436.364 495.159 437.138 495.856 437.676C495.472 437.564 495.061 437.591 494.695 437.753C494.33 437.915 494.033 438.201 493.857 438.56C491.922 442.036 494.502 443.842 497.443 444.365C500.636 444.874 503.061 445.603 504.828 442.094Z" fill="#FFE9B3"/>
<path d="M504.828 431.775C505.419 430.761 505.646 429.575 505.473 428.414C505.372 427.84 505.082 427.317 504.65 426.925C504.218 426.534 503.668 426.298 503.087 426.254L503.222 424.396C503.255 424.182 503.255 423.965 503.222 423.751C503.161 423.486 502.998 423.256 502.767 423.111C502.537 422.967 502.258 422.92 501.993 422.98C501.728 423.041 501.498 423.205 501.354 423.435C501.209 423.666 501.162 423.944 501.223 424.209C500.868 423.291 500.302 422.469 499.571 421.81C498.845 421.316 497.952 421.128 497.088 421.287C496.223 421.447 495.456 421.94 494.953 422.661C494.506 423.419 494.35 424.315 494.517 425.18C494.683 426.044 495.159 426.819 495.856 427.357C495.472 427.245 495.061 427.272 494.695 427.433C494.33 427.595 494.033 427.881 493.857 428.24C491.922 431.717 494.502 433.523 497.443 434.045C500.636 434.555 503.061 435.283 504.828 431.775Z" fill="#FFE9B3"/>
<path d="M493.863 445.319C494.454 444.305 494.682 443.12 494.508 441.959C494.407 441.385 494.117 440.861 493.685 440.47C493.253 440.079 492.703 439.842 492.122 439.798L492.257 437.941C492.29 437.727 492.29 437.51 492.257 437.296C492.197 437.031 492.033 436.8 491.803 436.656C491.572 436.511 491.294 436.464 491.029 436.525C490.764 436.586 490.533 436.749 490.389 436.98C490.244 437.21 490.197 437.489 490.258 437.754C489.903 436.835 489.338 436.014 488.607 435.354C487.88 434.86 486.987 434.673 486.123 434.832C485.259 434.991 484.492 435.485 483.989 436.206C483.541 436.964 483.386 437.86 483.552 438.724C483.718 439.589 484.195 440.363 484.892 440.901C484.508 440.789 484.097 440.816 483.731 440.978C483.365 441.14 483.068 441.425 482.892 441.785C480.957 445.261 483.537 447.067 486.478 447.59C489.671 448.099 492.096 448.828 493.863 445.319Z" fill="#FFE9B3"/>
<path d="M506.118 456.929C506.709 455.915 506.937 454.729 506.763 453.569C506.662 452.995 506.372 452.471 505.94 452.079C505.508 451.688 504.958 451.452 504.377 451.408L504.512 449.55C504.545 449.337 504.545 449.119 504.512 448.905C504.451 448.64 504.288 448.41 504.057 448.266C503.827 448.121 503.549 448.074 503.283 448.135C503.018 448.195 502.788 448.359 502.644 448.589C502.499 448.82 502.452 449.098 502.513 449.363C502.158 448.445 501.592 447.623 500.862 446.964C500.135 446.47 499.242 446.282 498.378 446.442C497.513 446.601 496.746 447.094 496.243 447.815C495.796 448.574 495.64 449.469 495.807 450.334C495.973 451.199 496.449 451.973 497.146 452.511C496.762 452.399 496.351 452.426 495.985 452.588C495.62 452.749 495.323 453.035 495.147 453.394C493.212 456.871 495.792 458.677 498.733 459.199C501.926 459.709 504.351 460.438 506.118 456.929Z" fill="#FFE9B3"/>
<path d="M482.899 461.444C483.49 460.43 483.717 459.244 483.544 458.083C483.442 457.509 483.153 456.986 482.721 456.594C482.289 456.203 481.739 455.967 481.157 455.923L481.293 454.065C481.326 453.851 481.326 453.634 481.293 453.42C481.232 453.155 481.069 452.925 480.838 452.78C480.608 452.636 480.329 452.589 480.064 452.649C479.799 452.71 479.569 452.874 479.424 453.104C479.28 453.335 479.233 453.613 479.293 453.878C478.939 452.96 478.373 452.138 477.642 451.479C476.915 450.985 476.023 450.797 475.158 450.956C474.294 451.116 473.527 451.609 473.024 452.33C472.577 453.088 472.421 453.984 472.587 454.849C472.754 455.713 473.23 456.488 473.927 457.026C473.543 456.914 473.132 456.941 472.766 457.102C472.4 457.264 472.103 457.55 471.928 457.909C469.993 461.386 472.573 463.192 475.514 463.714C478.706 464.224 481.132 464.952 482.899 461.444Z" fill="#FFE9B3"/>
<path d="M477.739 435C478.33 433.985 478.557 432.8 478.384 431.639C478.282 431.065 477.993 430.541 477.561 430.15C477.129 429.759 476.579 429.523 475.997 429.479L476.133 427.621C476.166 427.407 476.166 427.19 476.133 426.976C476.072 426.711 475.909 426.481 475.678 426.336C475.448 426.192 475.169 426.145 474.904 426.205C474.639 426.266 474.409 426.43 474.264 426.66C474.12 426.89 474.073 427.169 474.134 427.434C473.779 426.516 473.213 425.694 472.482 425.035C471.755 424.541 470.863 424.353 469.999 424.512C469.134 424.672 468.367 425.165 467.864 425.886C467.417 426.644 467.261 427.54 467.428 428.405C467.594 429.269 468.07 430.043 468.767 430.582C468.383 430.469 467.972 430.497 467.606 430.658C467.24 430.82 466.943 431.106 466.768 431.465C464.833 434.942 467.413 436.748 470.354 437.27C473.547 437.779 475.972 438.508 477.739 435Z" fill="#FFE9B3"/>
<path d="M491.283 431.775C491.874 430.761 492.102 429.575 491.928 428.414C491.827 427.84 491.537 427.317 491.105 426.925C490.673 426.534 490.123 426.298 489.542 426.254L489.677 424.396C489.71 424.182 489.71 423.965 489.677 423.751C489.617 423.486 489.453 423.256 489.223 423.111C488.992 422.967 488.714 422.92 488.449 422.98C488.184 423.041 487.954 423.205 487.809 423.435C487.664 423.666 487.617 423.944 487.678 424.209C487.323 423.291 486.758 422.469 486.027 421.81C485.3 421.316 484.408 421.128 483.543 421.287C482.679 421.447 481.912 421.94 481.409 422.661C480.961 423.419 480.806 424.315 480.972 425.18C481.138 426.044 481.615 426.819 482.312 427.357C481.928 427.245 481.517 427.272 481.151 427.433C480.785 427.595 480.488 427.881 480.312 428.24C478.377 431.717 480.957 433.523 483.898 434.045C487.091 434.555 489.516 435.283 491.283 431.775Z" fill="#FFE9B3"/>
<path d="M464.194 444.029C464.785 443.015 465.013 441.83 464.839 440.669C464.738 440.095 464.448 439.571 464.016 439.18C463.584 438.789 463.034 438.552 462.453 438.508L462.588 436.651C462.621 436.437 462.621 436.22 462.588 436.006C462.528 435.741 462.364 435.51 462.134 435.366C461.903 435.221 461.625 435.174 461.36 435.235C461.095 435.296 460.864 435.459 460.72 435.69C460.575 435.92 460.528 436.199 460.589 436.464C460.234 435.546 459.669 434.724 458.938 434.064C458.211 433.57 457.318 433.383 456.454 433.542C455.59 433.701 454.823 434.195 454.32 434.916C453.872 435.674 453.717 436.57 453.883 437.434C454.049 438.299 454.526 439.073 455.223 439.611C454.839 439.499 454.428 439.526 454.062 439.688C453.696 439.85 453.399 440.135 453.223 440.495C451.288 443.971 453.868 445.777 456.809 446.3C460.002 446.809 462.427 447.538 464.194 444.029Z" fill="#FFE9B3"/>
<path d="M453.92 473.615C457.274 473.344 460.582 472.486 463.949 472.531C468.354 472.589 472.592 474.182 476.604 476.001C477.782 476.456 478.863 477.13 479.79 477.987C480.451 478.75 480.933 479.651 481.198 480.625C481.464 481.598 481.507 482.619 481.325 483.612C480.948 485.597 480.161 487.481 479.016 489.146C477.842 491.01 476.391 492.848 474.346 493.66C473.203 494.055 472.002 494.262 470.792 494.273C465.742 494.551 460.595 494.273 455.803 492.654C453.346 491.816 451.017 490.642 448.612 489.649C440.943 486.475 432.648 485.224 424.502 483.625C424.088 483.575 423.693 483.422 423.354 483.18C421.658 481.715 425.341 476.44 426.205 474.963C427.663 472.454 428.985 472.183 431.939 472.112C439.318 471.925 446.522 474.072 453.92 473.615Z" fill="#A0616A"/>
<path d="M511.304 491.461C508.969 490.313 506.873 488.726 504.557 487.533C501.641 486.033 498.436 485.182 495.16 485.037C493.038 484.94 490.729 485.224 489.187 486.688C486.988 488.778 487.252 492.332 487.975 495.279C489.071 499.697 491.277 504.374 495.515 506.044C497.179 506.601 498.919 506.899 500.674 506.928C508.524 507.469 516.696 507.96 523.971 504.993C524.504 504.827 524.961 504.477 525.261 504.006C525.577 503.361 525.261 502.587 524.938 501.936C523.777 499.601 521.939 494.705 519.695 493.248C517.605 491.848 513.909 492.738 511.304 491.461Z" fill="#A0616A"/>
<path opacity="0.1" d="M529.75 456.336C534.049 463.156 537.584 470.431 540.289 478.026C541.045 479.894 541.481 481.876 541.579 483.889C541.579 486.127 540.798 488.294 539.979 490.41C537.37 497.179 534.341 503.779 530.911 510.172C529.879 512.107 528.699 514.126 526.654 515.19C524.506 516.312 521.862 516.138 519.405 515.835C513.247 515.161 507.14 514.079 501.126 512.597C504.912 512.72 508.33 509.882 510.078 506.792C511.826 503.703 512.213 500.168 512.503 496.718C512.769 494.859 512.69 492.968 512.271 491.139C512.026 490.194 511.557 489.323 510.904 488.599C510.25 487.875 509.432 487.319 508.517 486.978C508.343 485.295 509.949 483.883 511.607 483.109C513.264 482.335 515.148 481.902 516.496 480.742C518.482 479.039 518.766 476.194 518.115 473.782C517.463 471.37 516.044 469.19 515.038 466.874C513.626 463.65 520.914 460.257 521.204 456.774C521.269 455.987 520.714 457.419 521.204 456.774C521.694 456.129 524.739 458.367 525.429 458.064C529.963 456.103 527.241 452.35 529.75 456.336Z" fill="black"/>
<path d="M531.156 456.336C535.455 463.158 538.991 470.432 541.701 478.026C542.461 479.893 542.897 481.876 542.991 483.889C542.991 486.127 542.211 488.294 541.398 490.41C538.786 497.178 535.757 503.778 532.33 510.172C531.298 512.107 530.118 514.126 528.073 515.19C525.925 516.312 523.274 516.138 520.823 515.835C514.663 515.162 508.555 514.081 502.538 512.597C506.318 512.72 509.743 509.882 511.484 506.792C513.226 503.703 513.626 500.168 513.916 496.718C514.178 494.859 514.099 492.969 513.684 491.139C513.437 490.195 512.967 489.325 512.314 488.601C511.66 487.877 510.843 487.321 509.93 486.978C509.749 485.295 511.362 483.883 513.019 483.109C514.677 482.335 516.56 481.902 517.908 480.742C519.888 479.039 520.172 476.194 519.521 473.782C518.869 471.37 517.45 469.19 516.444 466.874C515.036 463.645 514.447 460.118 514.728 456.606C514.742 455.803 514.979 455.019 515.412 454.343C515.893 453.767 516.512 453.323 517.212 453.053C521.765 451.118 528.647 452.35 531.156 456.336Z" fill="#7EB2FF"/>
<path opacity="0.1" d="M393.285 449.937C389.1 453.807 384.778 457.896 382.74 463.23C381.631 466.139 381.263 469.274 380.902 472.37C380.296 477.646 379.747 483.296 382.192 488.004C384.901 493.164 390.577 495.931 395.904 498.272C397.746 499.137 399.655 499.853 401.612 500.413C404.176 500.986 406.79 501.306 409.416 501.368L436.306 502.864C432.797 499.33 430.552 493.796 431.03 488.836C431.462 484.405 433.609 480.342 435.77 476.465C436.892 474.466 438.163 472.363 440.233 471.376C431.473 469.44 422.465 468.875 413.531 469.699C412.931 469.751 412.241 469.77 411.848 469.293C411.652 468.994 411.561 468.637 411.59 468.281C411.59 464.275 414.583 460.947 415.821 457.142C417.801 451.04 411.061 454.388 404.998 452.292C398.935 450.195 394.524 443.642 393.285 449.937Z" fill="black"/>
<path d="M391.35 449.937C387.165 453.807 382.843 457.896 380.805 463.23C379.696 466.139 379.328 469.274 378.967 472.37C378.361 477.646 377.812 483.296 380.257 488.004C382.966 493.164 388.642 495.931 393.969 498.272C395.811 499.137 397.72 499.853 399.677 500.413C402.241 500.986 404.855 501.306 407.481 501.368L434.371 502.864C430.862 499.33 428.617 493.796 429.095 488.836C429.527 484.405 431.675 480.342 433.835 476.465C434.957 474.466 436.228 472.363 438.299 471.376C429.538 469.44 420.53 468.875 411.596 469.699C410.997 469.751 410.306 469.77 409.913 469.293C409.717 468.994 409.626 468.637 409.655 468.281C409.655 464.275 412.648 460.947 413.886 457.142C415.866 451.04 412.422 443.597 406.353 441.488C400.283 439.379 392.589 443.642 391.35 449.937Z" fill="#7EB2FF"/>
<path d="M458.88 380.699C476.868 380.699 491.451 374.635 491.451 367.154C491.451 359.674 476.868 353.61 458.88 353.61C440.891 353.61 426.308 359.674 426.308 367.154C426.308 374.635 440.891 380.699 458.88 380.699Z" fill="#2F2E41"/>
<path opacity="0.1" d="M458.235 374.894C442.646 374.894 429.617 370.334 426.418 364.252C425.933 365.143 425.674 366.14 425.663 367.154C425.663 374.636 440.246 380.699 458.235 380.699C476.223 380.699 490.806 374.636 490.806 367.154C490.796 366.14 490.537 365.143 490.052 364.252C486.852 370.334 473.824 374.894 458.235 374.894Z" fill="black"/>
<path d="M502.255 376.255C501.233 375.678 500.046 375.467 498.888 375.655C498.316 375.763 497.795 376.057 497.409 376.493C497.022 376.928 496.792 377.48 496.753 378.061L494.895 377.951C494.68 377.929 494.463 377.94 494.25 377.984C493.998 378.063 493.784 378.232 493.65 378.46C493.515 378.687 493.47 378.956 493.522 379.215C493.59 379.471 493.752 379.692 493.975 379.834C494.199 379.976 494.467 380.029 494.728 379.983C493.814 380.347 492.998 380.922 492.348 381.66C491.863 382.392 491.686 383.286 491.855 384.148C492.024 385.01 492.525 385.77 493.251 386.265C494.013 386.704 494.909 386.85 495.771 386.676C496.633 386.501 497.402 386.018 497.933 385.317C497.825 385.701 497.856 386.112 498.021 386.475C498.186 386.839 498.475 387.132 498.836 387.303C502.332 389.193 504.112 386.626 504.589 383.653C505.086 380.422 505.783 377.996 502.255 376.255Z" fill="#FFE9B3"/>
<path opacity="0.15" d="M502.255 376.255C501.233 375.678 500.046 375.467 498.888 375.655C498.316 375.763 497.795 376.057 497.409 376.493C497.022 376.928 496.792 377.48 496.753 378.061L494.895 377.951C494.68 377.929 494.463 377.94 494.25 377.984C493.998 378.063 493.784 378.232 493.65 378.46C493.515 378.687 493.47 378.956 493.522 379.215C493.59 379.471 493.752 379.692 493.975 379.834C494.199 379.976 494.467 380.029 494.728 379.983C493.814 380.347 492.998 380.922 492.348 381.66C491.863 382.392 491.686 383.286 491.855 384.148C492.024 385.01 492.525 385.77 493.251 386.265C494.013 386.704 494.909 386.85 495.771 386.676C496.633 386.501 497.402 386.018 497.933 385.317C497.825 385.701 497.856 386.112 498.021 386.475C498.186 386.839 498.475 387.132 498.836 387.303C502.332 389.193 504.112 386.626 504.589 383.653C505.086 380.422 505.783 377.996 502.255 376.255Z" fill="black"/>
<path d="M533.214 425.273C532.192 424.697 531.005 424.485 529.847 424.674C529.275 424.781 528.754 425.076 528.368 425.511C527.981 425.947 527.751 426.498 527.712 427.079L525.854 426.97C525.639 426.947 525.421 426.958 525.209 427.002C524.957 427.081 524.743 427.251 524.609 427.478C524.474 427.706 524.429 427.975 524.481 428.234C524.549 428.489 524.711 428.71 524.934 428.852C525.158 428.994 525.426 429.047 525.687 429.001C524.773 429.366 523.957 429.94 523.307 430.678C522.822 431.41 522.645 432.304 522.814 433.166C522.983 434.028 523.484 434.789 524.21 435.283C524.972 435.723 525.868 435.869 526.73 435.694C527.592 435.52 528.361 435.036 528.892 434.335C528.784 434.72 528.815 435.13 528.98 435.494C529.145 435.858 529.434 436.151 529.795 436.322C533.291 438.212 535.071 435.645 535.548 432.671C536.045 429.44 536.742 427.015 533.214 425.273Z" fill="#FFE9B3"/>
<path opacity="0.15" d="M533.214 425.273C532.192 424.697 531.005 424.485 529.847 424.674C529.275 424.781 528.754 425.076 528.368 425.511C527.981 425.947 527.751 426.498 527.712 427.079L525.854 426.97C525.639 426.947 525.421 426.958 525.209 427.002C524.957 427.081 524.743 427.251 524.609 427.478C524.474 427.706 524.429 427.975 524.481 428.234C524.549 428.489 524.711 428.71 524.934 428.852C525.158 428.994 525.426 429.047 525.687 429.001C524.773 429.366 523.957 429.94 523.307 430.678C522.822 431.41 522.645 432.304 522.814 433.166C522.983 434.028 523.484 434.789 524.21 435.283C524.972 435.723 525.868 435.869 526.73 435.694C527.592 435.52 528.361 435.036 528.892 434.335C528.784 434.72 528.815 435.13 528.98 435.494C529.145 435.858 529.434 436.151 529.795 436.322C533.291 438.212 535.071 435.645 535.548 432.671C536.045 429.44 536.742 427.015 533.214 425.273Z" fill="black"/>
<path d="M569.332 477.517C568.311 476.94 567.123 476.728 565.966 476.917C565.393 477.024 564.873 477.319 564.487 477.754C564.1 478.19 563.869 478.742 563.831 479.323L561.973 479.213C561.758 479.191 561.54 479.201 561.328 479.245C561.076 479.324 560.862 479.494 560.728 479.721C560.593 479.949 560.547 480.218 560.599 480.477C560.668 480.733 560.83 480.953 561.053 481.095C561.276 481.238 561.545 481.291 561.805 481.245C560.891 481.609 560.076 482.183 559.425 482.922C558.941 483.654 558.763 484.548 558.932 485.409C559.101 486.271 559.603 487.032 560.328 487.527C561.091 487.966 561.987 488.112 562.849 487.937C563.711 487.763 564.48 487.28 565.011 486.579C564.902 486.963 564.934 487.373 565.099 487.737C565.264 488.101 565.553 488.394 565.914 488.565C569.41 490.455 571.19 487.888 571.667 484.915C572.164 481.683 572.86 479.258 569.332 477.517Z" fill="#FFE9B3"/>
<path opacity="0.15" d="M569.332 477.517C568.311 476.94 567.123 476.728 565.966 476.917C565.393 477.024 564.873 477.319 564.487 477.754C564.1 478.19 563.869 478.742 563.831 479.323L561.973 479.213C561.758 479.191 561.54 479.201 561.328 479.245C561.076 479.324 560.862 479.494 560.728 479.721C560.593 479.949 560.547 480.218 560.599 480.477C560.668 480.733 560.83 480.953 561.053 481.095C561.276 481.238 561.545 481.291 561.805 481.245C560.891 481.609 560.076 482.183 559.425 482.922C558.941 483.654 558.763 484.548 558.932 485.409C559.101 486.271 559.603 487.032 560.328 487.527C561.091 487.966 561.987 488.112 562.849 487.937C563.711 487.763 564.48 487.28 565.011 486.579C564.902 486.963 564.934 487.373 565.099 487.737C565.264 488.101 565.553 488.394 565.914 488.565C569.41 490.455 571.19 487.888 571.667 484.915C572.164 481.683 572.86 479.258 569.332 477.517Z" fill="black"/>
<path d="M513.858 362.117C514.449 361.103 514.676 359.918 514.503 358.757C514.401 358.183 514.112 357.659 513.68 357.268C513.248 356.876 512.698 356.64 512.116 356.596L512.252 354.738C512.285 354.525 512.285 354.307 512.252 354.093C512.191 353.828 512.028 353.598 511.797 353.454C511.567 353.309 511.288 353.262 511.023 353.323C510.758 353.383 510.528 353.547 510.383 353.777C510.239 354.008 510.192 354.286 510.252 354.551C509.898 353.633 509.332 352.811 508.601 352.152C507.874 351.658 506.982 351.47 506.117 351.63C505.253 351.789 504.486 352.283 503.983 353.003C503.536 353.762 503.38 354.657 503.546 355.522C503.713 356.387 504.189 357.161 504.886 357.699C504.502 357.587 504.091 357.614 503.725 357.776C503.359 357.937 503.062 358.223 502.887 358.583C500.952 362.059 503.532 363.865 506.473 364.387C509.665 364.897 512.091 365.626 513.858 362.117Z" fill="#FFE9B3"/>
<path d="M509.988 339.543C510.579 338.529 510.806 337.343 510.633 336.182C510.531 335.608 510.242 335.085 509.81 334.693C509.378 334.302 508.828 334.066 508.246 334.022L508.382 332.164C508.415 331.95 508.415 331.733 508.382 331.519C508.321 331.254 508.158 331.024 507.927 330.879C507.697 330.735 507.418 330.688 507.153 330.748C506.888 330.809 506.658 330.973 506.513 331.203C506.369 331.434 506.322 331.712 506.383 331.977C506.028 331.059 505.462 330.237 504.731 329.578C504.004 329.084 503.112 328.896 502.248 329.055C501.383 329.215 500.616 329.708 500.113 330.429C499.666 331.187 499.51 332.083 499.677 332.948C499.843 333.812 500.319 334.587 501.016 335.125C500.632 335.013 500.221 335.04 499.855 335.201C499.489 335.363 499.192 335.649 499.017 336.008C497.082 339.485 499.662 341.291 502.603 341.813C505.796 342.323 508.221 343.051 509.988 339.543Z" fill="#FFE9B3"/>
<path d="M413.248 525.245C412.226 524.668 411.039 524.457 409.881 524.645C409.308 524.753 408.788 525.047 408.402 525.483C408.015 525.918 407.784 526.47 407.746 527.051L405.888 526.941C405.675 526.908 405.457 526.908 405.243 526.941C404.991 527.021 404.777 527.19 404.643 527.418C404.508 527.645 404.463 527.914 404.515 528.173C404.583 528.429 404.745 528.65 404.968 528.792C405.192 528.934 405.46 528.987 405.721 528.941C404.807 529.305 403.991 529.88 403.341 530.618C402.856 531.35 402.678 532.244 402.847 533.106C403.016 533.967 403.518 534.728 404.244 535.223C405.006 535.662 405.902 535.808 406.764 535.634C407.626 535.459 408.395 534.976 408.926 534.275C408.818 534.659 408.849 535.07 409.014 535.433C409.179 535.797 409.468 536.09 409.829 536.261C413.325 538.151 415.105 535.616 415.582 532.611C416.079 529.412 416.776 526.987 413.248 525.245Z" fill="#FFE9B3"/>
<path opacity="0.15" d="M413.248 525.245C412.226 524.668 411.039 524.457 409.881 524.645C409.308 524.753 408.788 525.047 408.402 525.483C408.015 525.918 407.784 526.47 407.746 527.051L405.888 526.941C405.675 526.908 405.457 526.908 405.243 526.941C404.991 527.021 404.777 527.19 404.643 527.418C404.508 527.645 404.463 527.914 404.515 528.173C404.583 528.429 404.745 528.65 404.968 528.792C405.192 528.934 405.46 528.987 405.721 528.941C404.807 529.305 403.991 529.88 403.341 530.618C402.856 531.35 402.678 532.244 402.847 533.106C403.016 533.967 403.518 534.728 404.244 535.223C405.006 535.662 405.902 535.808 406.764 535.634C407.626 535.459 408.395 534.976 408.926 534.275C408.818 534.659 408.849 535.07 409.014 535.433C409.179 535.797 409.468 536.09 409.829 536.261C413.325 538.151 415.105 535.616 415.582 532.611C416.079 529.412 416.776 526.987 413.248 525.245Z" fill="black"/>
<path d="M390.022 524.007C390.613 522.993 390.84 521.807 390.667 520.646C390.565 520.072 390.276 519.548 389.844 519.157C389.412 518.766 388.862 518.53 388.28 518.486L388.416 516.628C388.449 516.414 388.449 516.197 388.416 515.983C388.355 515.718 388.192 515.488 387.961 515.343C387.731 515.199 387.452 515.152 387.187 515.212C386.922 515.273 386.692 515.437 386.547 515.667C386.403 515.898 386.356 516.176 386.416 516.441C386.062 515.523 385.496 514.701 384.765 514.042C384.038 513.548 383.146 513.36 382.281 513.519C381.417 513.679 380.65 514.172 380.147 514.893C379.7 515.651 379.544 516.547 379.711 517.412C379.877 518.276 380.353 519.051 381.05 519.589C380.666 519.477 380.255 519.504 379.889 519.665C379.523 519.827 379.226 520.113 379.051 520.472C377.116 523.949 379.696 525.755 382.637 526.277C385.83 526.787 388.255 527.515 390.022 524.007Z" fill="#FFE9B3"/>
<path d="M420.981 488.533C421.572 487.519 421.799 486.333 421.626 485.173C421.524 484.599 421.235 484.075 420.803 483.683C420.371 483.292 419.821 483.056 419.239 483.012L419.375 481.154C419.408 480.941 419.408 480.723 419.375 480.509C419.314 480.244 419.151 480.014 418.92 479.869C418.69 479.725 418.411 479.678 418.146 479.739C417.881 479.799 417.651 479.963 417.506 480.193C417.362 480.424 417.315 480.702 417.375 480.967C417.021 480.049 416.455 479.227 415.724 478.568C414.997 478.074 414.105 477.886 413.24 478.045C412.376 478.205 411.609 478.698 411.106 479.419C410.659 480.178 410.503 481.073 410.67 481.938C410.836 482.803 411.312 483.577 412.009 484.115C411.625 484.003 411.214 484.03 410.848 484.192C410.482 484.353 410.185 484.639 410.01 484.998C408.075 488.475 410.655 490.281 413.596 490.803C416.788 491.313 419.214 492.042 420.981 488.533Z" fill="#FFE9B3"/>
<path d="M371.427 500.246C365.145 498.64 358.605 497.021 352.258 498.311C349.433 498.885 346.763 500.02 344.015 500.891C337.25 502.987 330.098 503.533 323.093 502.486C316.087 501.44 309.408 498.829 303.55 494.847C296.971 490.3 290.134 483.67 282.343 485.469C280.246 485.959 278.305 487.056 276.164 487.295C272.146 487.752 268.424 485.147 264.438 484.534C257.575 483.483 251.339 488.294 246.063 492.809L218.245 516.615C216.136 518.421 213.814 520.808 214.375 523.517C215.233 527.496 221.328 528.031 222.895 531.805C224.03 534.507 222.153 537.654 219.67 539.196C217.187 540.737 214.181 541.131 211.395 542.066C207.185 543.477 203.412 545.952 200.442 549.252C197.471 552.552 195.406 556.565 194.445 560.9C193.955 563.209 193.8 565.608 192.891 567.788C191.91 570.161 190.136 572.109 188.827 574.315C183.1 583.925 186.86 596.676 182.513 606.983C180.21 612.453 175.599 617.741 177.056 623.488C178.385 628.7 184.106 631.363 189.311 632.744C189.924 636.291 188.666 638.794 186.086 641.341C207.725 650.236 230.951 659.317 253.906 654.77C261.781 653.215 269.45 650.061 277.473 650.19C283.168 650.281 288.799 652.035 294.481 651.635C306.471 650.79 317.481 640.542 329.097 643.618C325.595 643.857 324.298 648.978 326.362 651.822C328.426 654.667 332.225 655.576 335.721 655.911C339.217 656.247 342.919 656.273 345.95 658.053C343.654 662.832 335.431 664.502 336.224 669.759C336.514 671.655 338.049 673.094 339.572 674.274C355.212 686.251 376.755 685.103 396.33 687.173C410.764 688.683 424.915 692.211 439.305 694.094C462.292 697.093 485.595 695.868 508.737 694.629C512.935 694.404 517.644 693.939 520.346 690.714C523.932 686.419 521.939 680.053 521.488 674.48C519.734 652.674 543.585 637.665 550.267 616.832C552.847 608.699 552.737 599.959 552.273 591.426C551.234 572.18 548.222 551.876 535.955 537.016C525.854 524.761 510.755 517.86 495.721 512.803C486.149 509.579 476.12 506.928 466.052 507.876C449.154 509.469 432.081 521.008 416.479 514.326C412.351 512.558 408.836 509.637 404.914 507.457C394.608 501.632 382.914 503.18 371.427 500.246Z" fill="#D22B49"/>
<g opacity="0.1">
<path opacity="0.1" d="M458.693 677.299C444.303 675.415 430.178 671.907 415.718 670.378C396.123 668.327 374.581 669.475 358.96 657.479C357.438 656.311 355.902 654.899 355.612 652.964C354.819 647.72 363.042 646.037 365.338 641.257C362.307 639.477 358.611 639.458 355.109 639.116C351.607 638.774 347.814 637.871 345.75 635.027C343.687 632.183 344.983 627.061 348.485 626.823C336.876 623.746 325.859 633.995 313.869 634.84C308.187 635.24 302.556 633.485 296.861 633.395C288.838 633.266 281.169 636.42 273.294 637.974C250.339 642.489 227.12 633.46 205.474 624.546C208.022 621.966 209.292 619.496 208.699 615.948C203.507 614.568 197.786 611.904 196.444 606.693C194.987 600.946 199.598 595.657 201.901 590.188C206.248 579.868 202.488 567.13 208.215 557.52C209.505 555.314 211.298 553.366 212.279 550.993C213.175 548.813 213.343 546.413 213.833 544.104C214.044 543.093 214.324 542.097 214.671 541.124C213.588 541.421 212.491 541.692 211.447 542.04C207.237 543.451 203.463 545.926 200.493 549.226C197.523 552.527 195.457 556.539 194.496 560.874C194.006 563.183 193.852 565.582 192.942 567.762C191.962 570.136 190.188 572.083 188.879 574.289C183.151 583.899 186.912 596.651 182.564 606.957C180.262 612.427 175.65 617.716 177.108 623.462C178.437 628.674 184.157 631.338 189.362 632.718C189.975 636.265 188.717 638.768 186.138 641.315C207.783 650.21 231.002 659.291 253.957 654.744C261.832 653.19 269.501 650.036 277.525 650.165C283.22 650.255 288.85 652.009 294.533 651.609C306.523 650.764 317.533 640.516 329.149 643.592C325.646 643.831 324.35 648.952 326.414 651.796C328.478 654.641 332.277 655.55 335.773 655.886C339.268 656.221 342.971 656.247 346.002 658.027C343.706 662.806 335.482 664.477 336.276 669.733C336.566 671.629 338.101 673.068 339.623 674.248C355.264 686.225 376.806 685.077 396.381 687.148C410.816 688.657 424.967 692.185 439.356 694.068C462.343 697.067 485.646 695.842 508.788 694.604C512.987 694.378 517.695 693.913 520.398 690.689C523.204 687.322 522.591 682.691 521.978 678.157C500.849 679.253 479.635 680.034 458.693 677.299Z" fill="black"/>
<path opacity="0.1" d="M221.966 530.36C224.518 528.088 227.511 526.367 230.757 525.303C233.544 524.4 236.562 523.968 239.032 522.433C241.503 520.898 243.399 517.744 242.257 515.042C240.69 511.294 234.595 510.733 233.737 506.754C233.344 504.922 234.279 503.238 235.582 501.781L218.238 516.615C216.129 518.421 213.807 520.808 214.368 523.517C215.123 526.922 219.677 527.831 221.966 530.36Z" fill="black"/>
</g>
<path d="M280.375 517.557C280.966 516.543 281.194 515.357 281.02 514.197C280.919 513.623 280.629 513.099 280.197 512.708C279.765 512.316 279.215 512.08 278.634 512.036L278.769 510.178C278.792 509.963 278.781 509.745 278.737 509.533C278.677 509.268 278.513 509.038 278.283 508.894C278.052 508.749 277.774 508.702 277.509 508.763C277.243 508.823 277.013 508.987 276.869 509.217C276.724 509.448 276.677 509.726 276.738 509.991C276.383 509.073 275.818 508.251 275.087 507.592C274.36 507.098 273.467 506.91 272.603 507.07C271.738 507.229 270.972 507.723 270.469 508.443C270.021 509.202 269.866 510.097 270.032 510.962C270.198 511.827 270.675 512.601 271.372 513.139C270.988 513.027 270.576 513.054 270.211 513.216C269.845 513.377 269.548 513.663 269.372 514.022C267.437 517.499 270.017 519.305 272.958 519.827C276.183 520.337 278.608 521.066 280.375 517.557Z" fill="#FFE9B3"/>
<path d="M374.542 642.683C375.133 641.669 375.361 640.483 375.187 639.322C375.086 638.748 374.796 638.225 374.364 637.833C373.932 637.442 373.382 637.206 372.801 637.162L372.936 635.304C372.969 635.09 372.969 634.873 372.936 634.659C372.876 634.394 372.712 634.164 372.482 634.019C372.251 633.875 371.973 633.828 371.708 633.889C371.443 633.949 371.212 634.113 371.068 634.343C370.923 634.574 370.876 634.852 370.937 635.117C370.582 634.199 370.017 633.377 369.286 632.718C368.559 632.224 367.666 632.036 366.802 632.195C365.938 632.355 365.171 632.848 364.668 633.569C364.22 634.327 364.065 635.223 364.231 636.088C364.397 636.952 364.874 637.727 365.571 638.265C365.187 638.153 364.776 638.18 364.41 638.341C364.044 638.503 363.747 638.789 363.571 639.148C361.636 642.625 364.216 644.431 367.157 644.953C370.35 645.463 372.775 646.191 374.542 642.683Z" fill="#FFE9B3"/>
<path d="M439.04 519.492C439.631 518.478 439.859 517.292 439.685 516.132C439.584 515.558 439.294 515.034 438.862 514.642C438.43 514.251 437.88 514.015 437.299 513.971L437.434 512.113C437.467 511.9 437.467 511.682 437.434 511.468C437.373 511.203 437.21 510.973 436.979 510.828C436.749 510.684 436.471 510.637 436.206 510.698C435.94 510.758 435.71 510.922 435.566 511.152C435.421 511.383 435.374 511.661 435.435 511.926C435.08 511.008 434.515 510.186 433.784 509.527C433.057 509.033 432.164 508.845 431.3 509.004C430.435 509.164 429.669 509.657 429.166 510.378C428.718 511.137 428.563 512.032 428.729 512.897C428.895 513.762 429.372 514.536 430.069 515.074C429.685 514.962 429.273 514.989 428.908 515.151C428.542 515.312 428.245 515.598 428.069 515.957C426.134 519.434 428.714 521.24 431.655 521.762C434.848 522.272 437.273 523.001 439.04 519.492Z" fill="#FFE9B3"/>
<path d="M451.172 518.073C452.244 517.598 453.122 516.772 453.662 515.732C453.919 515.21 453.996 514.617 453.879 514.047C453.762 513.477 453.459 512.963 453.017 512.584L454.21 511.152C454.364 510.989 454.49 510.801 454.584 510.598C454.691 510.347 454.694 510.064 454.593 509.811C454.491 509.559 454.293 509.357 454.042 509.25C453.792 509.143 453.509 509.14 453.256 509.241C453.003 509.343 452.801 509.541 452.694 509.791C452.946 508.841 452.97 507.844 452.765 506.883C452.466 506.055 451.853 505.379 451.058 505.001C450.264 504.623 449.352 504.574 448.521 504.864C447.715 505.215 447.065 505.848 446.693 506.646C446.321 507.443 446.253 508.348 446.503 509.192C446.258 508.876 445.91 508.657 445.52 508.572C445.129 508.487 444.722 508.542 444.368 508.727C440.769 510.411 441.788 513.365 443.878 515.519C446.135 517.873 447.67 519.879 451.172 518.073Z" fill="#FFE9B3"/>
<path d="M311.341 521.375C310.319 520.798 309.132 520.587 307.974 520.775C307.402 520.883 306.882 521.177 306.495 521.613C306.109 522.049 305.878 522.6 305.839 523.181L303.982 523.071C303.768 523.039 303.55 523.039 303.337 523.071C303.085 523.151 302.871 523.32 302.736 523.548C302.602 523.775 302.556 524.044 302.608 524.303C302.676 524.559 302.838 524.78 303.062 524.922C303.285 525.064 303.553 525.117 303.814 525.071C302.9 525.435 302.085 526.01 301.434 526.748C300.949 527.48 300.772 528.374 300.941 529.236C301.11 530.098 301.611 530.858 302.337 531.353C303.099 531.792 303.995 531.938 304.857 531.764C305.72 531.589 306.488 531.106 307.02 530.405C306.911 530.789 306.942 531.2 307.107 531.563C307.273 531.927 307.561 532.22 307.923 532.391C311.418 534.281 313.198 531.746 313.676 528.741C314.172 525.542 314.869 523.117 311.341 521.375Z" fill="#FFE9B3"/>
<path opacity="0.15" d="M311.341 521.375C310.319 520.798 309.132 520.587 307.974 520.775C307.402 520.883 306.882 521.177 306.495 521.613C306.109 522.049 305.878 522.6 305.839 523.181L303.982 523.071C303.768 523.039 303.55 523.039 303.337 523.071C303.085 523.151 302.871 523.32 302.736 523.548C302.602 523.775 302.556 524.044 302.608 524.303C302.676 524.559 302.838 524.78 303.062 524.922C303.285 525.064 303.553 525.117 303.814 525.071C302.9 525.435 302.085 526.01 301.434 526.748C300.949 527.48 300.772 528.374 300.941 529.236C301.11 530.098 301.611 530.858 302.337 531.353C303.099 531.792 303.995 531.938 304.857 531.764C305.72 531.589 306.488 531.106 307.02 530.405C306.911 530.789 306.942 531.2 307.107 531.563C307.273 531.927 307.561 532.22 307.923 532.391C311.418 534.281 313.198 531.746 313.676 528.741C314.172 525.542 314.869 523.117 311.341 521.375Z" fill="black"/>
<path d="M368.77 569.355C368.968 568.2 368.773 567.013 368.215 565.982C367.923 565.477 367.47 565.084 366.929 564.866C366.388 564.647 365.79 564.615 365.229 564.776L364.713 562.983C364.662 562.755 364.575 562.538 364.455 562.338C364.306 562.109 364.073 561.95 363.806 561.893C363.539 561.837 363.261 561.889 363.033 562.038C362.804 562.187 362.644 562.42 362.588 562.687C362.532 562.954 362.584 563.232 362.733 563.46C362.086 562.717 361.273 562.138 360.359 561.77C359.506 561.558 358.604 561.69 357.847 562.138C357.09 562.586 356.54 563.313 356.315 564.163C356.156 565.029 356.319 565.923 356.773 566.677C357.227 567.431 357.94 567.993 358.779 568.259C358.38 568.285 358.004 568.452 357.716 568.729C357.428 569.007 357.247 569.377 357.205 569.774C356.56 573.702 359.605 574.521 362.565 573.98C365.79 573.393 368.305 573.225 368.77 569.355Z" fill="#FFE9B3"/>
<path opacity="0.15" d="M368.77 569.355C368.968 568.2 368.773 567.013 368.215 565.982C367.923 565.477 367.47 565.084 366.929 564.866C366.388 564.647 365.79 564.615 365.229 564.776L364.713 562.983C364.662 562.755 364.575 562.538 364.455 562.338C364.306 562.109 364.073 561.95 363.806 561.893C363.539 561.837 363.261 561.889 363.033 562.038C362.804 562.187 362.644 562.42 362.588 562.687C362.532 562.954 362.584 563.232 362.733 563.46C362.086 562.717 361.273 562.138 360.359 561.77C359.506 561.558 358.604 561.69 357.847 562.138C357.09 562.586 356.54 563.313 356.315 564.163C356.156 565.029 356.319 565.923 356.773 566.677C357.227 567.431 357.94 567.993 358.779 568.259C358.38 568.285 358.004 568.452 357.716 568.729C357.428 569.007 357.247 569.377 357.205 569.774C356.56 573.702 359.605 574.521 362.565 573.98C365.79 573.393 368.305 573.225 368.77 569.355Z" fill="black"/>
<path d="M446.167 510.662C446.365 509.507 446.17 508.319 445.613 507.289C445.32 506.784 444.868 506.391 444.327 506.172C443.786 505.954 443.187 505.922 442.626 506.083L442.11 504.29C442.06 504.062 441.972 503.845 441.852 503.645C441.779 503.532 441.683 503.434 441.572 503.358C441.461 503.282 441.335 503.228 441.203 503.2C441.071 503.172 440.935 503.171 440.802 503.196C440.67 503.22 440.543 503.271 440.43 503.345C440.317 503.419 440.22 503.514 440.143 503.625C440.067 503.736 440.014 503.862 439.986 503.994C439.958 504.126 439.956 504.262 439.981 504.395C440.006 504.527 440.057 504.654 440.13 504.767C439.484 504.024 438.67 503.445 437.757 503.077C436.904 502.865 436.001 502.997 435.244 503.445C434.488 503.893 433.937 504.62 433.713 505.47C433.554 506.336 433.717 507.23 434.17 507.984C434.624 508.738 435.337 509.3 436.177 509.566C435.778 509.592 435.401 509.759 435.113 510.036C434.825 510.314 434.644 510.684 434.603 511.081C433.958 515.009 437.002 515.828 439.963 515.287C443.187 514.7 445.703 514.532 446.167 510.662Z" fill="#FFE9B3"/>
<path opacity="0.15" d="M446.167 510.662C446.365 509.507 446.17 508.319 445.613 507.289C445.32 506.784 444.868 506.391 444.327 506.172C443.786 505.954 443.187 505.922 442.626 506.083L442.11 504.29C442.06 504.062 441.972 503.845 441.852 503.645C441.779 503.532 441.683 503.434 441.572 503.358C441.461 503.282 441.335 503.228 441.203 503.2C441.071 503.172 440.935 503.171 440.802 503.196C440.67 503.22 440.543 503.271 440.43 503.345C440.317 503.419 440.22 503.514 440.143 503.625C440.067 503.736 440.014 503.862 439.986 503.994C439.958 504.126 439.956 504.262 439.981 504.395C440.006 504.527 440.057 504.654 440.13 504.767C439.484 504.024 438.67 503.445 437.757 503.077C436.904 502.865 436.001 502.997 435.244 503.445C434.488 503.893 433.937 504.62 433.713 505.47C433.554 506.336 433.717 507.23 434.17 507.984C434.624 508.738 435.337 509.3 436.177 509.566C435.778 509.592 435.401 509.759 435.113 510.036C434.825 510.314 434.644 510.684 434.603 511.081C433.958 515.009 437.002 515.828 439.963 515.287C443.187 514.7 445.703 514.532 446.167 510.662Z" fill="black"/>
<path d="M804.364 447.877C804.364 458.277 802.436 467.481 798.578 475.489C794.721 483.497 789.228 489.674 782.099 494.02C775.019 498.316 766.938 500.465 757.855 500.465C748.773 500.465 740.717 498.39 733.686 494.239C726.654 490.04 721.161 484.059 717.206 476.295C713.3 468.531 711.249 459.62 711.054 449.562V443.556C711.054 433.106 712.958 423.902 716.767 415.943C720.624 407.936 726.117 401.759 733.246 397.413C740.424 393.067 748.578 390.895 757.709 390.895C766.742 390.895 774.799 393.043 781.879 397.34C788.959 401.637 794.452 407.765 798.358 415.724C802.313 423.634 804.315 432.716 804.364 442.97V447.877ZM778.217 443.409C778.217 432.813 776.435 424.781 772.87 419.312C769.354 413.795 764.301 411.036 757.709 411.036C744.818 411.036 738.007 420.704 737.274 440.04L737.201 447.877C737.201 458.326 738.935 466.358 742.401 471.974C745.868 477.589 751.02 480.396 757.855 480.396C764.35 480.396 769.354 477.638 772.87 472.12C776.386 466.603 778.168 458.668 778.217 448.316V443.409ZM890.058 459.962C890.058 472.267 887.274 482.105 881.708 489.479C876.19 496.803 868.72 500.465 859.296 500.465C852.021 500.465 846.039 497.804 841.352 492.481V529.469H816.669V419.752H839.74L840.473 427.076C845.209 421.217 851.435 418.287 859.149 418.287C868.915 418.287 876.508 421.9 881.928 429.127C887.348 436.305 890.058 446.192 890.058 458.79V459.962ZM865.375 458.424C865.375 444.361 861.273 437.33 853.07 437.33C847.211 437.33 843.305 439.43 841.352 443.629V474.83C843.5 479.225 847.455 481.422 853.217 481.422C861.078 481.422 865.131 474.635 865.375 461.061V458.424ZM942.499 476.734C942.499 474.635 941.4 472.95 939.203 471.681C937.006 470.411 932.831 469.093 926.679 467.726C920.526 466.358 915.448 464.576 911.444 462.379C907.44 460.133 904.389 457.423 902.289 454.249C900.189 451.075 899.14 447.438 899.14 443.336C899.14 436.061 902.143 430.079 908.148 425.392C914.154 420.655 922.016 418.287 931.732 418.287C942.182 418.287 950.58 420.655 956.928 425.392C963.275 430.128 966.449 436.354 966.449 444.068H941.693C941.693 437.721 938.349 434.547 931.659 434.547C929.071 434.547 926.898 435.279 925.141 436.744C923.383 438.16 922.504 439.942 922.504 442.091C922.504 444.288 923.578 446.07 925.727 447.438C927.875 448.805 931.293 449.928 935.98 450.807C940.717 451.686 944.867 452.735 948.432 453.956C960.346 458.058 966.303 465.406 966.303 476.002C966.303 483.229 963.08 489.112 956.635 493.653C950.238 498.194 941.938 500.465 931.732 500.465C924.945 500.465 918.891 499.244 913.568 496.803C908.246 494.361 904.096 491.041 901.117 486.842C898.139 482.643 896.649 478.224 896.649 473.585H919.721C919.818 477.247 921.039 479.933 923.383 481.642C925.727 483.302 928.729 484.132 932.392 484.132C935.761 484.132 938.275 483.448 939.936 482.081C941.645 480.714 942.499 478.932 942.499 476.734ZM1002.41 465.235H982.416L979.267 392.359H1005.56L1002.41 465.235ZM978.534 487.94C978.534 484.327 979.828 481.373 982.416 479.078C985.053 476.734 988.324 475.562 992.23 475.562C996.137 475.562 999.384 476.734 1001.97 479.078C1004.61 481.373 1005.93 484.327 1005.93 487.94C1005.93 491.554 1004.61 494.532 1001.97 496.876C999.384 499.171 996.137 500.318 992.23 500.318C988.324 500.318 985.053 499.171 982.416 496.876C979.828 494.532 978.534 491.554 978.534 487.94ZM1072.06 475.05C1075.97 475.05 1079.22 476.222 1081.81 478.565C1084.39 480.86 1085.69 483.814 1085.69 487.428C1085.69 491.041 1084.39 494.02 1081.81 496.363C1079.22 498.658 1075.97 499.806 1072.06 499.806C1068.11 499.806 1064.84 498.634 1062.25 496.29C1059.71 493.946 1058.44 490.992 1058.44 487.428C1058.44 483.863 1059.71 480.909 1062.25 478.565C1064.84 476.222 1068.11 475.05 1072.06 475.05ZM1072.06 416.603C1075.97 416.603 1079.22 417.774 1081.81 420.118C1084.39 422.413 1085.69 425.367 1085.69 428.98C1085.69 432.594 1084.39 435.572 1081.81 437.916C1079.22 440.211 1075.97 441.358 1072.06 441.358C1068.11 441.358 1064.84 440.187 1062.25 437.843C1059.71 435.499 1058.44 432.545 1058.44 428.98C1058.44 425.416 1059.71 422.462 1062.25 420.118C1064.84 417.774 1068.11 416.603 1072.06 416.603ZM1103.71 455.641C1103.71 443.727 1105.29 432.643 1108.47 422.389C1111.64 412.135 1116.01 403.443 1121.58 396.314C1127.19 389.186 1133.42 384.205 1140.25 381.373L1144.94 393.531C1138.1 398.561 1132.81 406.422 1129.05 417.115C1125.34 427.76 1123.46 440.26 1123.41 454.615V457.838C1123.41 472.535 1125.26 485.279 1128.97 496.07C1132.73 506.861 1138.06 514.771 1144.94 519.801L1140.25 531.959C1133.51 529.225 1127.29 524.22 1121.58 516.944C1115.91 509.718 1111.54 501.075 1108.47 491.017C1105.39 480.958 1103.8 470.265 1103.71 458.937V455.641Z" fill="black"/>
<path d="M770.746 639H753.705L728.51 594.762V639H711.371V567.906H728.51L753.656 612.145V567.906H770.746V639ZM778.754 612.096C778.754 606.822 779.779 602.135 781.83 598.033C783.881 593.899 786.827 590.725 790.668 588.512C794.509 586.298 799.018 585.191 804.193 585.191C812.104 585.191 818.337 587.649 822.895 592.564C827.452 597.447 829.73 604.104 829.73 612.535V613.121C829.73 621.357 827.436 627.9 822.846 632.75C818.288 637.568 812.104 639.977 804.291 639.977C796.771 639.977 790.733 637.73 786.176 633.238C781.618 628.714 779.161 622.594 778.803 614.879L778.754 612.096ZM795.209 613.121C795.209 618.004 795.974 621.585 797.504 623.863C799.034 626.142 801.296 627.281 804.291 627.281C810.15 627.281 813.145 622.773 813.275 613.756V612.096C813.275 602.623 810.248 597.887 804.193 597.887C798.692 597.887 795.714 601.972 795.258 610.143L795.209 613.121ZM856.146 573.033V586.168H864.838V597.594H856.146V621.764C856.146 623.749 856.505 625.133 857.221 625.914C857.937 626.695 859.353 627.086 861.469 627.086C863.096 627.086 864.464 626.988 865.57 626.793V638.561C862.608 639.505 859.516 639.977 856.293 639.977C850.629 639.977 846.446 638.642 843.744 635.973C841.042 633.303 839.691 629.251 839.691 623.814V597.594H832.953V586.168H839.691V573.033H856.146ZM887.445 591.832C890.961 587.405 895.453 585.191 900.922 585.191C906.749 585.191 911.143 586.917 914.105 590.367C917.068 593.818 918.581 598.912 918.646 605.65V639H902.143V606.041C902.143 603.242 901.573 601.191 900.434 599.889C899.294 598.554 897.357 597.887 894.623 597.887C891.238 597.887 888.845 598.961 887.445 601.109V639H870.99V564H887.445V591.832ZM945.16 639H928.656V586.168H945.16V639ZM927.68 572.545C927.68 570.201 928.526 568.281 930.219 566.783C931.911 565.286 934.109 564.537 936.811 564.537C939.512 564.537 941.71 565.286 943.402 566.783C945.095 568.281 945.941 570.201 945.941 572.545C945.941 574.889 945.095 576.809 943.402 578.307C941.71 579.804 939.512 580.553 936.811 580.553C934.109 580.553 931.911 579.804 930.219 578.307C928.526 576.809 927.68 574.889 927.68 572.545ZM970.453 586.168L970.99 592.369C974.636 587.584 979.665 585.191 986.078 585.191C991.579 585.191 995.681 586.835 998.383 590.123C1001.12 593.411 1002.53 598.359 1002.63 604.967V639H986.127V605.65C986.127 602.981 985.59 601.028 984.516 599.791C983.441 598.521 981.488 597.887 978.656 597.887C975.434 597.887 973.041 599.156 971.479 601.695V639H955.023V586.168H970.453ZM1009.86 612.193C1009.86 606.855 1010.74 602.135 1012.49 598.033C1014.25 593.932 1016.77 590.774 1020.06 588.561C1023.35 586.314 1027.18 585.191 1031.54 585.191C1037.04 585.191 1041.34 587.047 1044.43 590.758L1045.01 586.168H1059.96V636.998C1059.96 641.653 1058.86 645.689 1056.68 649.107C1054.54 652.558 1051.41 655.195 1047.31 657.018C1043.21 658.873 1038.45 659.801 1033.05 659.801C1029.18 659.801 1025.42 659.068 1021.77 657.604C1018.16 656.139 1015.39 654.234 1013.47 651.891L1020.36 642.223C1023.42 645.836 1027.45 647.643 1032.46 647.643C1039.76 647.643 1043.4 643.899 1043.4 636.412V634.752C1040.24 638.235 1036.26 639.977 1031.44 639.977C1024.99 639.977 1019.79 637.519 1015.81 632.604C1011.84 627.656 1009.86 621.048 1009.86 612.779V612.193ZM1026.36 613.219C1026.36 617.548 1027.18 620.982 1028.8 623.521C1030.43 626.028 1032.71 627.281 1035.64 627.281C1039.19 627.281 1041.77 626.093 1043.4 623.717V601.5C1041.81 599.091 1039.25 597.887 1035.74 597.887C1032.81 597.887 1030.51 599.205 1028.85 601.842C1027.19 604.446 1026.36 608.238 1026.36 613.219ZM1110.3 591.832C1113.81 587.405 1118.3 585.191 1123.77 585.191C1129.6 585.191 1133.99 586.917 1136.96 590.367C1139.92 593.818 1141.43 598.912 1141.5 605.65V639H1124.99V606.041C1124.99 603.242 1124.42 601.191 1123.29 599.889C1122.15 598.554 1120.21 597.887 1117.47 597.887C1114.09 597.887 1111.7 598.961 1110.3 601.109V639H1093.84V564H1110.3V591.832ZM1176.21 639.977C1168.11 639.977 1161.55 637.568 1156.54 632.75C1151.52 627.9 1149.02 621.601 1149.02 613.854V612.486C1149.02 607.083 1150.01 602.314 1152 598.18C1154.01 594.046 1156.94 590.855 1160.79 588.609C1164.63 586.331 1169.18 585.191 1174.46 585.191C1181.88 585.191 1187.74 587.503 1192.04 592.125C1196.33 596.715 1198.48 603.128 1198.48 611.363V617.76H1165.77C1166.35 620.722 1167.64 623.049 1169.62 624.742C1171.61 626.435 1174.18 627.281 1177.34 627.281C1182.55 627.281 1186.62 625.458 1189.54 621.812L1197.06 630.699C1195.01 633.531 1192.1 635.794 1188.32 637.486C1184.58 639.146 1180.54 639.977 1176.21 639.977ZM1174.36 597.887C1169.54 597.887 1166.68 601.077 1165.77 607.457H1182.37V606.188C1182.43 603.551 1181.76 601.516 1180.37 600.084C1178.97 598.619 1176.96 597.887 1174.36 597.887ZM1237.1 601.061L1231.68 600.67C1226.51 600.67 1223.19 602.298 1221.72 605.553V639H1205.27V586.168H1220.7L1221.23 592.955C1224 587.779 1227.86 585.191 1232.81 585.191C1234.56 585.191 1236.09 585.387 1237.4 585.777L1237.1 601.061ZM1267.62 639.977C1259.52 639.977 1252.96 637.568 1247.94 632.75C1242.93 627.9 1240.42 621.601 1240.42 613.854V612.486C1240.42 607.083 1241.42 602.314 1243.4 598.18C1245.42 594.046 1248.35 590.855 1252.19 588.609C1256.03 586.331 1260.59 585.191 1265.86 585.191C1273.29 585.191 1279.14 587.503 1283.44 592.125C1287.74 596.715 1289.89 603.128 1289.89 611.363V617.76H1257.17C1257.76 620.722 1259.04 623.049 1261.03 624.742C1263.01 626.435 1265.59 627.281 1268.74 627.281C1273.95 627.281 1278.02 625.458 1280.95 621.812L1288.47 630.699C1286.42 633.531 1283.51 635.794 1279.73 637.486C1275.99 639.146 1271.95 639.977 1267.62 639.977ZM1265.77 597.887C1260.95 597.887 1258.08 601.077 1257.17 607.457H1273.77V606.188C1273.84 603.551 1273.17 601.516 1271.77 600.084C1270.37 598.619 1268.37 597.887 1265.77 597.887Z" fill="black"/>
</svg>
