<svg width="1440" height="1024" viewBox="0 0 1440 1024" fill="none" xmlns="http://www.w3.org/2000/svg">
<path d="M915.106 558.358H526.184V647.688H915.106V558.358Z" fill="#46455B"/>
<path d="M528.764 465.804L492 493.538L520.379 519.337L536.504 493.538L558.433 465.804H528.764Z" fill="#46455B"/>
<path d="M908.656 499.342L903.496 493.538L870.603 474.833L900.917 474.188L948 493.538L928.651 505.792L908.656 499.342Z" fill="#46455B"/>
<path d="M526.184 500.632L558.433 465.804V545.781L536.504 563.84L522.959 545.136L526.184 500.632Z" fill="#46455B"/>
<path d="M909.301 514.822L903.496 493.538L892.532 479.348L870.603 474.833V563.84H915.106L909.301 514.822Z" fill="#46455B"/>
<path d="M565.56 441.939H866.7C869.36 441.939 871.911 442.996 873.792 444.877C875.673 446.758 876.73 449.309 876.73 451.969V543.846H555.53V451.969C555.53 449.309 556.587 446.758 558.468 444.877C560.349 442.996 562.9 441.939 565.56 441.939V441.939Z" fill="#46455B"/>
<path d="M536.504 563.84L558.433 536.751H870.603L903.496 563.84H536.504Z" fill="#46455B"/>
<path opacity="0.05" d="M536.504 563.84L558.433 536.751H870.603L903.496 563.84H536.504Z" fill="black"/>
<path d="M536.504 493.538H492V647.688H536.504V493.538Z" fill="#46455B"/>
<path opacity="0.05" d="M536.504 493.538H492V647.688H536.504V493.538Z" fill="white"/>
<path d="M948 493.538H903.496V647.688H948V493.538Z" fill="#46455B"/>
<path opacity="0.05" d="M948 493.538H903.496V647.688H948V493.538Z" fill="white"/>
<path d="M676.786 464.836C705.283 464.836 728.385 434.371 728.385 396.791C728.385 359.21 705.283 328.746 676.786 328.746C648.289 328.746 625.188 359.21 625.188 396.791C625.188 434.371 648.289 464.836 676.786 464.836Z" fill="#2F2E41"/>
<path d="M699.361 367.444H641.958V447.422H699.361V367.444Z" fill="#2F2E41"/>
<path opacity="0.1" d="M699.361 367.444H641.958V447.422H699.361V367.444Z" fill="black"/>
<path d="M646.124 414.347C644.328 416.534 642.009 418.233 639.383 419.286C636.756 420.339 633.906 420.712 631.096 420.371C630.838 424.383 633.56 427.905 636.133 430.994L656.276 455.161C656.355 455.353 656.486 455.519 656.653 455.641C656.82 455.763 657.018 455.837 657.225 455.855C657.431 455.872 657.639 455.832 657.824 455.739C658.009 455.647 658.165 455.505 658.276 455.329L689.041 426.144C685.971 427.434 682.34 425.389 680.656 422.513C678.973 419.636 678.805 416.179 678.65 412.838C678.427 407.85 678.212 402.867 678.005 397.887C677.954 396.778 677.844 395.552 677.025 394.804C676.388 394.325 675.627 394.036 674.832 393.972C669.975 393.14 654.838 388.812 652.032 393.921C650.742 396.249 651.323 400.79 650.742 403.421C649.871 407.323 648.64 411.213 646.124 414.347Z" fill="#FBBEBE"/>
<path opacity="0.1" d="M646.124 414.347C644.328 416.534 642.009 418.233 639.383 419.286C636.756 420.339 633.906 420.712 631.096 420.371C630.838 424.383 633.56 427.905 636.133 430.994L656.276 455.161C656.355 455.353 656.486 455.519 656.653 455.641C656.82 455.763 657.018 455.837 657.225 455.855C657.431 455.872 657.639 455.832 657.824 455.739C658.009 455.647 658.165 455.505 658.276 455.329L689.041 426.144C685.971 427.434 682.34 425.389 680.656 422.513C678.973 419.636 678.805 416.179 678.65 412.838C678.427 407.85 678.212 402.867 678.005 397.887C677.954 396.778 677.844 395.552 677.025 394.804C676.388 394.325 675.627 394.036 674.832 393.972C669.975 393.14 654.838 388.812 652.032 393.921C650.742 396.249 651.323 400.79 650.742 403.421C649.871 407.323 648.64 411.213 646.124 414.347Z" fill="black"/>
<path d="M668.402 409.368C685.144 409.368 698.716 395.796 698.716 379.054C698.716 362.312 685.144 348.74 668.402 348.74C651.66 348.74 638.088 362.312 638.088 379.054C638.088 395.796 651.66 409.368 668.402 409.368Z" fill="#FBBEBE"/>
<path d="M657.437 440.095L652.574 424.764C650.639 418.623 647.891 411.664 641.764 409.684C637.894 408.446 633.721 409.581 629.69 409.239C621.847 408.562 614.21 402.325 606.877 405.182C597.847 408.691 597.925 422.558 589.908 428.001C589.908 440.959 594.094 452.994 596.357 465.745C598.621 478.497 599.273 492.261 593.365 503.799C590.862 508.688 587.283 512.945 584.612 517.744C580.235 525.657 578.444 534.741 579.491 543.723C613.727 544.153 647.967 544.257 682.211 544.033C681.895 539.596 679.914 535.223 679.592 530.785C679.399 529.446 679.504 528.08 679.902 526.786C680.656 524.851 682.578 523.697 684.223 522.439C686.426 520.741 688.292 518.645 689.725 516.26C692.008 512.461 693.091 508.082 694.149 503.773L706.971 451.53C708.5 445.306 709.983 438.514 707.326 432.684C704.411 426.279 697.419 422.951 690.963 420.145C687.093 418.449 682.643 416.734 678.708 418.294C675.483 419.584 673.458 422.674 671.42 425.473C667.477 430.986 662.769 435.91 657.437 440.095V440.095Z" fill="#FFF281"/>
<path opacity="0.1" d="M589.566 432.6C588.56 436.367 589.121 440.391 588.379 444.21C587.134 450.601 582.471 455.684 579.349 461.385C574.512 470.239 573.287 480.621 575.931 490.358C576.718 493.202 578.118 496.247 580.878 497.291C582.852 498.046 585.058 497.575 587.167 497.762C589.953 498.007 592.849 499.388 595.422 498.291C598.602 496.937 599.234 492.802 599.582 489.365C600.385 481.392 602.101 473.539 604.697 465.958C607.277 458.373 610.818 450.846 610.766 442.829C610.728 437.179 603.491 442.378 598.77 439.03C593.442 435.277 591.314 426.092 589.566 432.6Z" fill="black"/>
<path d="M588.276 431.955C587.27 435.722 587.831 439.746 587.089 443.565C585.844 449.956 581.181 455.039 578.059 460.74C573.222 469.594 571.997 479.976 574.641 489.713C575.428 492.557 576.828 495.602 579.588 496.646C581.562 497.401 583.768 496.93 585.877 497.117C588.663 497.362 591.559 498.743 594.132 497.646C597.312 496.292 597.944 492.157 598.292 488.72C599.095 480.747 600.811 472.894 603.407 465.313C605.987 457.728 609.528 450.202 609.476 442.184C609.438 436.534 606.954 430.291 602.233 426.944C596.906 423.19 590.024 425.447 588.276 431.955Z" fill="#FFF281"/>
<path d="M632.412 396.488C636.282 394.321 640.094 391.973 644.08 389.96C650.31 386.845 657.315 384.414 662.216 379.641C662.469 379.4 662.779 379.228 663.117 379.141C663.454 379.054 663.809 379.054 664.146 379.143C664.484 379.231 664.793 379.405 665.045 379.647C665.296 379.889 665.481 380.191 665.583 380.524C667.692 387.394 670.188 394.138 673.058 400.725C675.535 406.401 678.296 411.974 680.153 417.882C681.443 421.99 682.249 426.266 683.855 430.22C685.952 435.38 689.299 439.972 692.621 444.474C693.84 446.138 695.097 447.828 696.807 448.989C699.206 450.621 702.786 451.666 703.037 454.555C699.922 456.806 695.684 456.064 691.847 456.032C688.009 456 684.107 456.793 680.314 457.728C675.884 458.739 671.563 460.182 667.415 462.037C663.377 463.94 659.675 466.442 655.934 468.932L621.641 491.938C619.119 489.055 619.216 484.843 618.674 481.025C618.212 478.277 617.548 475.568 616.687 472.918L613.269 461.405C611.644 455.935 610.044 450.472 608.212 445.061C606.703 440.546 605.026 435.986 602.072 432.258C598.512 427.743 593.391 424.815 588.947 421.184C587.373 419.894 585.819 418.423 585.232 416.476C585.037 415.84 584.982 415.169 585.071 414.51C585.16 413.851 585.391 413.219 585.748 412.657C586.689 411.296 588.037 411.496 589.534 411.258C593.184 410.677 596.805 409.944 600.395 409.058C607.518 407.291 614.48 404.931 621.209 402.002C625.031 400.351 628.766 398.513 632.412 396.488Z" fill="#BBBDC8"/>
<path opacity="0.1" d="M633.818 401.261C637.217 399.377 640.519 397.313 643.996 395.572C649.439 392.85 655.541 390.734 659.817 386.587C660.037 386.375 660.307 386.223 660.602 386.146C660.897 386.068 661.208 386.068 661.503 386.145C661.798 386.222 662.069 386.374 662.289 386.586C662.509 386.798 662.67 387.062 662.758 387.355C664.597 393.347 666.774 399.23 669.279 404.976C671.44 409.929 673.845 414.792 675.451 419.946C676.561 423.525 677.277 427.234 678.676 430.71C680.501 435.225 683.43 439.218 686.319 443.145C687.305 444.653 688.54 445.984 689.97 447.08C692.072 448.505 695.194 449.415 695.407 451.943C692.692 453.878 688.996 453.233 685.648 453.233C682.248 453.301 678.869 453.8 675.593 454.716C671.731 455.596 667.965 456.856 664.351 458.477C660.864 460.232 657.516 462.25 654.335 464.514L624.414 484.553C622.215 482.038 622.305 478.342 621.834 475.027C621.433 472.623 620.856 470.251 620.106 467.932L617.119 457.89C615.7 453.117 614.282 448.35 612.708 443.629C611.418 439.688 609.934 435.715 607.354 432.458C604.246 428.53 599.782 425.97 595.9 422.783C594.532 421.668 593.171 420.378 592.675 418.681C592.505 418.127 592.457 417.542 592.535 416.968C592.613 416.393 592.815 415.842 593.126 415.353C593.945 414.16 595.126 414.334 596.428 414.128C599.615 413.625 602.773 412.98 605.903 412.193C612.117 410.655 618.191 408.597 624.059 406.04C627.392 404.604 630.645 403.011 633.818 401.261Z" fill="black"/>
<path d="M621.299 427.518C622.724 427.518 623.879 426.363 623.879 424.938C623.879 423.513 622.724 422.358 621.299 422.358C619.874 422.358 618.719 423.513 618.719 424.938C618.719 426.363 619.874 427.518 621.299 427.518Z" fill="#BBBDC8"/>
<path d="M648.807 414.779C650.232 414.779 651.387 413.624 651.387 412.199C651.387 410.775 650.232 409.619 648.807 409.619C647.382 409.619 646.227 410.775 646.227 412.199C646.227 413.624 647.382 414.779 648.807 414.779Z" fill="#BBBDC8"/>
<path d="M634.308 455.613C635.733 455.613 636.888 454.458 636.888 453.033C636.888 451.608 635.733 450.453 634.308 450.453C632.883 450.453 631.728 451.608 631.728 453.033C631.728 454.458 632.883 455.613 634.308 455.613Z" fill="#BBBDC8"/>
<path d="M661.816 442.875C663.241 442.875 664.396 441.719 664.396 440.295C664.396 438.87 663.241 437.715 661.816 437.715C660.392 437.715 659.237 438.87 659.237 440.295C659.237 441.719 660.392 442.875 661.816 442.875Z" fill="#BBBDC8"/>
<path d="M594.416 469.248C596.996 468.506 599.711 467.693 601.608 465.791C603.078 464.307 603.897 462.314 604.929 460.495C606.987 456.864 610.244 453.646 614.34 452.846C618.435 452.046 623.247 454.413 624.124 458.496C624.691 461.153 623.582 463.856 622.479 466.345C620.828 470.073 618.964 473.982 615.559 476.233C612.579 478.2 608.78 478.632 605.852 480.677C603.272 482.483 601.646 485.34 599.402 487.565C596.468 490.455 592.586 492.185 588.476 492.435C587.852 492.509 587.219 492.422 586.638 492.183C586.068 491.846 585.59 491.374 585.245 490.809C583.348 488.229 581.426 485.572 580.42 482.521C576.918 471.886 586.831 471.421 594.416 469.248Z" fill="#FBBEBE"/>
<path d="M663.132 470.667C662.262 465.468 662.145 459.799 658.933 455.619C656.244 452.13 651.774 450.363 647.375 450.066C646.085 449.976 644.57 450.105 643.822 451.163C643.396 451.909 643.226 452.774 643.338 453.626C643.61 460.232 646.074 466.559 650.342 471.608C651.948 473.492 653.812 475.207 654.935 477.413C655.915 479.316 656.276 481.489 657.186 483.424C658.372 485.946 660.41 487.939 661.971 490.261C664.184 493.587 665.332 497.509 665.261 501.503C666.963 498.723 666.757 495.247 666.918 491.99C667.131 487.404 670.343 484.895 668.26 481.154C666.177 477.413 663.887 475.214 663.132 470.667Z" fill="#FBBEBE"/>
<path opacity="0.1" d="M686.938 465.488C685.307 469.744 684.468 474.298 682.546 478.432C682.039 479.725 681.17 480.845 680.044 481.657C677.98 482.947 675.251 482.147 673.2 480.864C671.149 479.58 669.33 477.813 667.092 476.962C666.086 486.759 657.947 495.382 648.22 496.956C654.025 502.29 660.14 508.217 661.449 515.983C661.694 517.408 661.778 518.924 662.539 520.156C663.764 522.123 666.351 522.768 668.673 522.736C674.574 522.691 679.986 519.575 684.913 516.286C686.577 515.19 688.261 514.016 689.37 512.365C690.479 510.713 690.957 508.617 691.376 506.618C694.227 493.069 697.075 479.514 699.922 465.952C700.696 462.269 700.567 455.032 694.852 455.761C690.976 456.329 688.138 462.372 686.938 465.488Z" fill="black"/>
<path d="M688.228 465.488C686.597 469.744 685.758 474.298 683.836 478.432C683.329 479.725 682.46 480.845 681.334 481.657C679.27 482.947 676.541 482.147 674.49 480.864C672.439 479.58 670.62 477.813 668.382 476.962C667.376 486.759 659.237 495.382 649.51 496.956C655.315 502.29 661.429 508.217 662.739 515.983C662.984 517.408 663.068 518.924 663.829 520.156C665.054 522.123 667.641 522.768 669.963 522.736C675.864 522.691 681.275 519.575 686.203 516.286C687.867 515.19 689.551 514.016 690.66 512.365C691.769 510.713 692.247 508.617 692.666 506.618C695.517 493.069 698.365 479.514 701.212 465.952C701.986 462.269 701.857 455.032 696.142 455.761C692.266 456.329 689.428 462.372 688.228 465.488Z" fill="#FFF281"/>
<path d="M594.139 490.642C593.907 491.822 592.739 492.538 591.682 493.105C589.637 494.208 587.412 495.35 585.109 495.04C582.807 494.731 580.878 493.028 579.369 491.222C578.617 490.363 577.968 489.419 577.434 488.41C575.106 483.811 574.854 464.243 584.477 470.628C588.45 473.272 586.212 477.787 586.709 481.676C586.926 483.983 587.847 486.167 589.347 487.933C589.637 488.268 593.991 491.403 594.139 490.642Z" fill="#E3D770"/>
<path d="M676.464 371.959C692.315 371.959 705.165 365.895 705.165 358.415C705.165 350.934 692.315 344.87 676.464 344.87C660.612 344.87 647.762 350.934 647.762 358.415C647.762 365.895 660.612 371.959 676.464 371.959Z" fill="#2F2E41"/>
<path opacity="0.1" d="M677.754 367.444C662.223 367.444 649.588 361.639 649.078 354.351C648.254 355.548 647.805 356.962 647.788 358.415C647.788 365.896 660.636 371.959 676.49 371.959C692.343 371.959 705.191 365.896 705.191 358.415C705.191 358.26 705.191 358.111 705.191 357.963C701.483 363.458 690.608 367.444 677.754 367.444Z" fill="black"/>
<path d="M802.557 463.546C841.741 463.546 873.505 434.669 873.505 399.048C873.505 363.427 841.741 334.55 802.557 334.55C763.374 334.55 731.61 363.427 731.61 399.048C731.61 434.669 763.374 463.546 802.557 463.546Z" fill="#2F2E41"/>
<path opacity="0.1" d="M802.557 446.777C766.626 446.777 736.931 422.487 732.255 390.986C731.828 393.869 731.612 396.779 731.61 399.693C731.61 435.315 763.375 464.191 802.557 464.191C841.74 464.191 873.505 435.315 873.505 399.693C873.503 396.779 873.287 393.869 872.86 390.986C868.184 422.487 838.489 446.777 802.557 446.777Z" fill="black"/>
<path d="M801.267 447.422C820.147 447.422 835.451 426.775 835.451 401.306C835.451 375.837 820.147 355.19 801.267 355.19C782.388 355.19 767.083 375.837 767.083 401.306C767.083 426.775 782.388 447.422 801.267 447.422Z" fill="#2F2E41"/>
<path opacity="0.1" d="M801.267 447.422C820.147 447.422 835.451 426.775 835.451 401.306C835.451 375.837 820.147 355.19 801.267 355.19C782.388 355.19 767.083 375.837 767.083 401.306C767.083 426.775 782.388 447.422 801.267 447.422Z" fill="black"/>
<path d="M785.549 424.68C784.259 427.866 781.679 431.252 777.809 431.497C782.969 435.735 788.194 440.017 794.36 443.107C800.526 446.196 807.827 448.009 814.844 446.899C819.798 446.119 824.3 443.945 828.505 441.565C835.664 437.515 842.694 432.194 844.507 424.983C839.131 425.253 833.744 425.152 828.382 424.68C825.602 424.441 822.758 424.073 820.346 422.861C818.865 422.079 817.556 421.009 816.496 419.713C815.436 418.416 814.646 416.921 814.173 415.315C813.212 412.27 813.232 409.065 813.406 405.911C813.503 404.073 813.574 402.041 812.161 400.635C810.749 399.229 808.414 399.042 806.292 398.997C802.024 398.91 797.756 399.162 793.528 399.751C791.31 399.981 789.113 400.38 786.955 400.944C784.156 401.796 784.42 401.467 785.098 403.808C787.2 410.98 788.484 417.43 785.549 424.68Z" fill="#A0616A"/>
<path opacity="0.1" d="M785.549 424.68C784.259 427.866 781.679 431.252 777.809 431.497C782.969 435.735 788.194 440.017 794.36 443.107C800.526 446.196 807.827 448.009 814.844 446.899C819.798 446.119 824.3 443.945 828.505 441.565C835.664 437.515 842.694 432.194 844.507 424.983C839.131 425.253 833.744 425.152 828.382 424.68C825.602 424.441 822.758 424.073 820.346 422.861C818.865 422.079 817.556 421.009 816.496 419.713C815.436 418.416 814.646 416.921 814.173 415.315C813.212 412.27 813.232 409.065 813.406 405.911C813.503 404.073 813.574 402.041 812.161 400.635C810.749 399.229 808.414 399.042 806.292 398.997C802.024 398.91 797.756 399.162 793.528 399.751C791.31 399.981 789.113 400.38 786.955 400.944C784.156 401.796 784.42 401.467 785.098 403.808C787.2 410.98 788.484 417.43 785.549 424.68Z" fill="black"/>
<path d="M800.3 418.075C817.042 418.075 830.614 404.503 830.614 387.761C830.614 371.019 817.042 357.447 800.3 357.447C783.558 357.447 769.986 371.019 769.986 387.761C769.986 404.503 783.558 418.075 800.3 418.075Z" fill="#A0616A"/>
<path d="M789.851 427.35C787.871 424.976 785.833 422.551 783.195 420.939C778.874 418.288 773.52 418.12 768.457 418.036C762.968 417.94 757.002 417.991 752.662 421.352C750.727 422.867 749.243 424.944 747.831 426.982L729.442 453.426C728.727 454.458 727.972 455.626 728.152 456.871C728.358 457.766 728.804 458.589 729.442 459.251L749.669 484.508C750.823 485.946 752.017 487.462 752.404 489.268C752.791 491.074 752.313 492.97 751.694 494.724C749.25 501.684 744.599 508.269 745.025 515.602C745.328 520.388 747.831 524.787 750.894 528.502C757.925 536.971 768.044 542.479 778.629 545.484C789.213 548.49 800.326 549.148 811.335 549.219C832.091 549.354 853.904 547.09 871.048 535.384L857.574 522.691C854.91 520.175 852.117 517.466 851.195 513.919C850.55 511.533 850.86 509.017 851.15 506.573C851.692 502.103 852.233 497.601 853.678 493.344C857.696 481.483 868.023 473.04 874.911 462.585C875.775 461.295 876.614 459.812 876.517 458.244C876.44 456.922 875.704 455.742 874.988 454.632C871.841 449.75 868.577 444.893 866.294 439.553C864.591 435.58 863.437 431.355 861.328 427.582C859.219 423.809 855.871 420.416 851.653 419.623C846.222 418.604 840.927 422.003 835.412 422.235C831.375 422.409 827.163 420.894 823.39 422.332C818.914 424.041 816.94 429.085 814.431 433.181C812.58 436.231 807.059 444.577 802.731 442.526C800.377 441.404 798.217 437.366 796.527 435.386L789.851 427.35Z" fill="#7EB2FF"/>
<path d="M813.999 447.854C812.977 447.278 811.791 447.064 810.632 447.248C810.06 447.357 809.54 447.654 809.154 448.09C808.768 448.526 808.537 449.078 808.498 449.66L806.634 449.55C806.418 449.527 806.201 449.538 805.989 449.582C805.719 449.64 805.484 449.803 805.335 450.035C805.185 450.267 805.134 450.548 805.192 450.817C805.25 451.087 805.413 451.322 805.645 451.472C805.876 451.621 806.158 451.672 806.427 451.614C805.512 451.977 804.697 452.552 804.047 453.291C803.561 454.023 803.382 454.917 803.551 455.779C803.721 456.642 804.223 457.402 804.95 457.896C805.713 458.335 806.61 458.48 807.472 458.304C808.334 458.128 809.102 457.644 809.633 456.942C809.524 457.327 809.555 457.738 809.72 458.103C809.885 458.468 810.174 458.762 810.536 458.935C814.031 460.824 815.812 458.257 816.289 455.284C816.831 452.02 817.527 449.595 813.999 447.854Z" fill="#FFE9B3"/>
<path opacity="0.15" d="M813.999 447.854C812.977 447.278 811.791 447.064 810.632 447.248C810.06 447.357 809.54 447.654 809.154 448.09C808.768 448.526 808.537 449.078 808.498 449.66L806.634 449.55C806.418 449.527 806.201 449.538 805.989 449.582C805.719 449.64 805.484 449.803 805.335 450.035C805.185 450.267 805.134 450.548 805.192 450.817C805.25 451.087 805.413 451.322 805.645 451.472C805.876 451.621 806.158 451.672 806.427 451.614C805.512 451.977 804.697 452.552 804.047 453.291C803.561 454.023 803.382 454.917 803.551 455.779C803.721 456.642 804.223 457.402 804.95 457.896C805.713 458.335 806.61 458.48 807.472 458.304C808.334 458.128 809.102 457.644 809.633 456.942C809.524 457.327 809.555 457.738 809.72 458.103C809.885 458.468 810.174 458.762 810.536 458.935C814.031 460.824 815.812 458.257 816.289 455.284C816.831 452.02 817.527 449.595 813.999 447.854Z" fill="black"/>
<path d="M823.519 445.661C822.498 445.084 821.31 444.872 820.152 445.061C819.581 445.169 819.061 445.464 818.676 445.899C818.291 446.335 818.061 446.886 818.024 447.467L816.16 447.357C815.945 447.335 815.727 447.346 815.515 447.389C815.263 447.469 815.049 447.638 814.914 447.866C814.78 448.093 814.734 448.362 814.786 448.621C814.855 448.877 815.017 449.098 815.24 449.24C815.463 449.382 815.732 449.435 815.992 449.389C815.078 449.753 814.263 450.328 813.612 451.066C813.127 451.798 812.95 452.692 813.119 453.554C813.288 454.415 813.79 455.176 814.515 455.671C815.278 456.111 816.176 456.257 817.039 456.082C817.902 455.908 818.672 455.424 819.204 454.723C819.095 455.106 819.125 455.516 819.289 455.88C819.454 456.243 819.741 456.537 820.101 456.709C823.603 458.606 825.377 456.064 825.86 453.065C826.357 449.827 827.067 447.402 823.519 445.661Z" fill="#FFE9B3"/>
<path d="M831.285 446.77C830.265 446.195 829.08 445.983 827.924 446.17C827.352 446.277 826.831 446.571 826.444 447.007C826.057 447.443 825.827 447.995 825.789 448.576L823.925 448.467C823.71 448.444 823.492 448.454 823.28 448.499C823.028 448.578 822.814 448.748 822.68 448.975C822.545 449.202 822.5 449.472 822.552 449.731C822.62 449.986 822.782 450.207 823.005 450.349C823.229 450.491 823.497 450.544 823.758 450.498C822.842 450.859 822.026 451.434 821.378 452.175C820.891 452.907 820.713 453.801 820.882 454.663C821.051 455.526 821.554 456.287 822.281 456.78C823.042 457.221 823.939 457.368 824.802 457.193C825.664 457.018 826.433 456.534 826.963 455.832C826.855 456.217 826.886 456.627 827.051 456.991C827.216 457.354 827.505 457.648 827.866 457.819C831.362 459.715 833.136 457.141 833.619 454.175C834.123 450.969 834.806 448.512 831.285 446.77Z" fill="#FFE9B3"/>
<path opacity="0.15" d="M831.285 446.77C830.265 446.195 829.08 445.983 827.924 446.17C827.352 446.277 826.831 446.571 826.444 447.007C826.057 447.443 825.827 447.995 825.789 448.576L823.925 448.467C823.71 448.444 823.492 448.454 823.28 448.499C823.028 448.578 822.814 448.748 822.68 448.975C822.545 449.202 822.5 449.472 822.552 449.731C822.62 449.986 822.782 450.207 823.005 450.349C823.229 450.491 823.497 450.544 823.758 450.498C822.842 450.859 822.026 451.434 821.378 452.175C820.891 452.907 820.713 453.801 820.882 454.663C821.051 455.526 821.554 456.287 822.281 456.78C823.042 457.221 823.939 457.368 824.802 457.193C825.664 457.018 826.433 456.534 826.963 455.832C826.855 456.217 826.886 456.627 827.051 456.991C827.216 457.354 827.505 457.648 827.866 457.819C831.362 459.715 833.136 457.141 833.619 454.175C834.123 450.969 834.806 448.512 831.285 446.77Z" fill="black"/>
<path d="M850.286 451.292V520.575C850.284 521.016 850.108 521.438 849.796 521.75C849.485 522.062 849.062 522.237 848.622 522.239H794.547C794.106 522.237 793.684 522.062 793.372 521.75C793.06 521.438 792.884 521.016 792.883 520.575V451.292C792.882 451.015 792.95 450.743 793.082 450.5C793.213 450.256 793.402 450.049 793.633 449.898C793.864 449.746 794.13 449.654 794.405 449.631C794.681 449.607 794.957 449.653 795.211 449.763C796.587 450.356 797.961 450.905 799.332 451.408C801.267 452.117 803.202 452.734 805.137 453.259C807.072 453.781 809.007 454.213 810.942 454.549C812.877 454.884 814.812 455.142 816.747 455.297C818.682 455.452 820.617 455.516 822.552 455.477C824.487 455.439 826.421 455.329 828.356 455.116C830.291 454.903 832.226 454.587 834.161 454.181C836.096 453.775 838.031 453.297 839.966 452.71C841.469 452.253 842.978 451.743 844.481 451.175C845.642 450.743 846.796 450.272 847.957 449.769C848.21 449.659 848.487 449.614 848.762 449.637C849.036 449.66 849.301 449.751 849.532 449.902C849.763 450.053 849.953 450.259 850.084 450.502C850.216 450.744 850.285 451.016 850.286 451.292V451.292Z" fill="#BBBDC8"/>
<path d="M805.137 453.259V522.271H799.332V451.408C801.267 452.117 803.202 452.734 805.137 453.259Z" fill="white"/>
<path d="M816.747 455.29V522.239H810.942V454.516C812.877 454.89 814.812 455.136 816.747 455.29Z" fill="white"/>
<path d="M828.356 455.11V522.239H822.552V455.484C824.487 455.449 826.422 455.325 828.356 455.11Z" fill="white"/>
<path d="M839.966 452.704V522.239H834.161V454.194C836.096 453.79 838.031 453.293 839.966 452.704Z" fill="white"/>
<path opacity="0.1" d="M850.286 451.292V520.575C850.284 521.016 850.108 521.438 849.797 521.75C849.485 522.062 849.063 522.237 848.622 522.239H844.481V451.169C845.642 450.737 846.796 450.266 847.957 449.763C848.211 449.653 848.488 449.607 848.763 449.631C849.039 449.654 849.304 449.746 849.535 449.898C849.766 450.049 849.956 450.256 850.087 450.5C850.218 450.743 850.286 451.015 850.286 451.292Z" fill="black"/>
<path d="M807.982 444.551C806.962 443.976 805.777 443.765 804.621 443.952C804.048 444.058 803.528 444.352 803.141 444.788C802.754 445.224 802.524 445.776 802.486 446.357L800.622 446.248C800.407 446.225 800.189 446.236 799.977 446.28C799.725 446.359 799.511 446.529 799.377 446.756C799.242 446.984 799.197 447.253 799.249 447.512C799.317 447.768 799.479 447.988 799.702 448.13C799.926 448.272 800.194 448.326 800.455 448.279C799.539 448.64 798.723 449.215 798.075 449.956C797.588 450.688 797.41 451.582 797.579 452.445C797.748 453.307 798.251 454.068 798.978 454.562C799.74 455.001 800.636 455.147 801.498 454.972C802.36 454.798 803.129 454.315 803.66 453.613C803.552 453.998 803.583 454.408 803.748 454.772C803.913 455.136 804.202 455.429 804.563 455.6C808.059 457.49 809.833 454.923 810.316 451.956C810.819 448.718 811.516 446.293 807.982 444.551Z" fill="#FFE9B3"/>
<path d="M817.656 433.587C816.637 433.011 815.452 432.8 814.296 432.987C813.723 433.093 813.202 433.388 812.816 433.823C812.429 434.259 812.199 434.811 812.161 435.393L810.297 435.283C810.082 435.26 809.864 435.271 809.652 435.315C809.4 435.395 809.186 435.564 809.052 435.792C808.917 436.019 808.871 436.288 808.923 436.547C808.992 436.803 809.154 437.024 809.377 437.166C809.6 437.308 809.869 437.361 810.129 437.315C809.214 437.676 808.398 438.251 807.749 438.992C807.263 439.723 807.085 440.618 807.254 441.48C807.423 442.342 807.925 443.103 808.652 443.597C809.415 444.036 810.311 444.182 811.173 444.008C812.035 443.833 812.804 443.35 813.335 442.649C813.226 443.033 813.258 443.444 813.423 443.807C813.588 444.171 813.877 444.464 814.238 444.635C817.734 446.525 819.507 443.958 819.991 440.991C820.494 437.753 821.191 435.328 817.656 433.587Z" fill="#FFE9B3"/>
<path d="M824.229 448.479C824.994 447.59 825.433 446.466 825.473 445.293C825.485 444.709 825.301 444.138 824.95 443.67C824.6 443.203 824.103 442.866 823.538 442.713L824.009 440.907C824.078 440.699 824.11 440.481 824.106 440.262C824.096 439.99 823.978 439.734 823.778 439.549C823.579 439.364 823.314 439.265 823.042 439.276C822.77 439.286 822.513 439.404 822.328 439.603C822.143 439.803 822.045 440.068 822.055 440.34C821.879 439.373 821.474 438.462 820.875 437.682C820.249 437.065 819.406 436.719 818.527 436.719C817.648 436.719 816.805 437.065 816.179 437.682C815.597 438.342 815.276 439.192 815.276 440.072C815.276 440.952 815.597 441.802 816.179 442.462C815.822 442.281 815.413 442.232 815.023 442.324C814.634 442.417 814.289 442.643 814.051 442.965C811.516 446.022 813.69 448.267 816.508 449.318C819.591 450.453 821.836 451.614 824.229 448.479Z" fill="#FFE9B3"/>
<path d="M832.613 448.479C833.378 447.59 833.818 446.466 833.858 445.293C833.87 444.709 833.686 444.138 833.335 443.67C832.984 443.203 832.487 442.866 831.923 442.713L832.394 440.907C832.463 440.699 832.495 440.481 832.491 440.262C832.48 439.99 832.363 439.734 832.163 439.549C831.963 439.364 831.699 439.265 831.427 439.276C831.155 439.286 830.898 439.404 830.713 439.603C830.528 439.803 830.429 440.068 830.44 440.34C830.264 439.373 829.859 438.462 829.259 437.682C828.634 437.065 827.791 436.719 826.912 436.719C826.033 436.719 825.189 437.065 824.564 437.682C823.982 438.342 823.66 439.192 823.66 440.072C823.66 440.952 823.982 441.802 824.564 442.462C824.207 442.281 823.797 442.232 823.408 442.324C823.018 442.417 822.674 442.643 822.436 442.965C819.901 446.022 822.074 448.267 824.893 449.318C827.976 450.453 830.22 451.614 832.613 448.479Z" fill="#FFE9B3"/>
<path d="M837.863 453.994C838.454 452.98 838.682 451.795 838.508 450.634C838.407 450.06 838.117 449.536 837.685 449.145C837.253 448.753 836.703 448.517 836.122 448.473L836.257 446.615C836.29 446.402 836.29 446.184 836.257 445.97C836.197 445.705 836.033 445.475 835.803 445.331C835.572 445.186 835.294 445.139 835.029 445.2C834.764 445.26 834.533 445.424 834.389 445.654C834.244 445.885 834.197 446.163 834.258 446.428C833.903 445.51 833.338 444.688 832.607 444.029C831.88 443.535 830.987 443.347 830.123 443.507C829.259 443.666 828.492 444.16 827.989 444.88C827.541 445.639 827.386 446.534 827.552 447.399C827.718 448.264 828.195 449.038 828.892 449.576C828.508 449.464 828.097 449.491 827.731 449.653C827.365 449.814 827.068 450.1 826.892 450.459C824.957 453.936 827.537 455.742 830.478 456.264C833.671 456.774 836.096 457.503 837.863 453.994Z" fill="#FFE9B3"/>
<path d="M812.064 443.674C812.655 442.66 812.883 441.475 812.709 440.314C812.608 439.74 812.318 439.216 811.886 438.825C811.454 438.434 810.904 438.197 810.323 438.153L810.458 436.296C810.491 436.082 810.491 435.865 810.458 435.651C810.398 435.386 810.234 435.155 810.004 435.011C809.773 434.866 809.495 434.819 809.23 434.88C808.964 434.941 808.734 435.104 808.59 435.335C808.445 435.565 808.398 435.844 808.459 436.109C808.104 435.191 807.539 434.369 806.808 433.709C806.081 433.215 805.188 433.028 804.324 433.187C803.459 433.346 802.693 433.84 802.19 434.561C801.742 435.319 801.587 436.215 801.753 437.079C801.919 437.944 802.396 438.718 803.093 439.256C802.709 439.144 802.297 439.171 801.932 439.333C801.566 439.495 801.269 439.78 801.093 440.14C799.158 443.616 801.738 445.422 804.679 445.945C807.872 446.454 810.297 447.183 812.064 443.674Z" fill="#FFE9B3"/>
<path d="M814.644 440.114C813.623 439.538 812.436 439.324 811.277 439.508C810.705 439.618 810.185 439.914 809.799 440.35C809.413 440.787 809.182 441.339 809.143 441.92L807.279 441.81C807.063 441.787 806.846 441.798 806.634 441.843C806.364 441.901 806.129 442.064 805.98 442.295C805.83 442.527 805.779 442.808 805.837 443.078C805.895 443.347 806.058 443.582 806.29 443.732C806.521 443.881 806.803 443.932 807.072 443.874C806.157 444.237 805.342 444.812 804.692 445.551C804.206 446.283 804.027 447.177 804.196 448.04C804.366 448.902 804.868 449.663 805.595 450.156C806.358 450.595 807.255 450.74 808.117 450.564C808.979 450.388 809.747 449.904 810.278 449.202C810.169 449.587 810.2 449.999 810.365 450.363C810.53 450.728 810.819 451.023 811.181 451.195C814.676 453.085 816.457 450.518 816.934 447.544C817.476 444.281 818.172 441.855 814.644 440.114Z" fill="#FFE9B3"/>
<path opacity="0.15" d="M814.644 440.114C813.623 439.538 812.436 439.324 811.277 439.508C810.705 439.618 810.185 439.914 809.799 440.35C809.413 440.787 809.182 441.339 809.143 441.92L807.279 441.81C807.063 441.787 806.846 441.798 806.634 441.843C806.364 441.901 806.129 442.064 805.98 442.295C805.83 442.527 805.779 442.808 805.837 443.078C805.895 443.347 806.058 443.582 806.29 443.732C806.521 443.881 806.803 443.932 807.072 443.874C806.157 444.237 805.342 444.812 804.692 445.551C804.206 446.283 804.027 447.177 804.196 448.04C804.366 448.902 804.868 449.663 805.595 450.156C806.358 450.595 807.255 450.74 808.117 450.564C808.979 450.388 809.747 449.904 810.278 449.202C810.169 449.587 810.2 449.999 810.365 450.363C810.53 450.728 810.819 451.023 811.181 451.195C814.676 453.085 816.457 450.518 816.934 447.544C817.476 444.281 818.172 441.855 814.644 440.114Z" fill="black"/>
<path d="M842.385 442.333C841.363 441.756 840.176 441.544 839.018 441.733C838.446 441.84 837.925 442.135 837.539 442.571C837.152 443.006 836.922 443.558 836.883 444.139L835.026 444.029C834.81 444.007 834.593 444.018 834.381 444.061C834.128 444.141 833.915 444.31 833.78 444.538C833.645 444.765 833.6 445.034 833.652 445.293C833.72 445.549 833.882 445.769 834.105 445.912C834.329 446.054 834.597 446.107 834.858 446.061C833.944 446.425 833.128 447 832.478 447.738C831.993 448.47 831.816 449.364 831.985 450.225C832.154 451.087 832.655 451.848 833.381 452.343C834.143 452.782 835.039 452.928 835.901 452.754C836.763 452.579 837.532 452.096 838.063 451.395C837.955 451.779 837.986 452.19 838.151 452.553C838.317 452.917 838.605 453.21 838.966 453.381C842.462 455.271 844.242 452.704 844.72 449.731C845.216 446.499 845.913 444.074 842.385 442.333Z" fill="#FFE9B3"/>
<path opacity="0.15" d="M842.385 442.333C841.363 441.756 840.176 441.544 839.018 441.733C838.446 441.84 837.925 442.135 837.539 442.571C837.152 443.006 836.922 443.558 836.883 444.139L835.026 444.029C834.81 444.007 834.593 444.018 834.381 444.061C834.128 444.141 833.915 444.31 833.78 444.538C833.645 444.765 833.6 445.034 833.652 445.293C833.72 445.549 833.882 445.769 834.105 445.912C834.329 446.054 834.597 446.107 834.858 446.061C833.944 446.425 833.128 447 832.478 447.738C831.993 448.47 831.816 449.364 831.985 450.225C832.154 451.087 832.655 451.848 833.381 452.343C834.143 452.782 835.039 452.928 835.901 452.754C836.763 452.579 837.532 452.096 838.063 451.395C837.955 451.779 837.986 452.19 838.151 452.553C838.317 452.917 838.605 453.21 838.966 453.381C842.462 455.271 844.242 452.704 844.72 449.731C845.216 446.499 845.913 444.074 842.385 442.333Z" fill="black"/>
<path d="M825.615 431.368C824.594 430.791 823.406 430.58 822.249 430.768C821.676 430.876 821.156 431.17 820.769 431.606C820.383 432.041 820.152 432.593 820.114 433.174L818.256 433.064C818.041 433.042 817.823 433.053 817.611 433.097C817.359 433.176 817.145 433.346 817.011 433.573C816.876 433.8 816.83 434.07 816.882 434.329C816.951 434.584 817.113 434.805 817.336 434.947C817.559 435.089 817.828 435.142 818.088 435.096C817.174 435.46 816.359 436.035 815.708 436.773C815.223 437.505 815.046 438.399 815.215 439.261C815.384 440.123 815.886 440.883 816.611 441.378C817.374 441.817 818.27 441.963 819.132 441.789C819.994 441.614 820.763 441.131 821.294 440.43C821.185 440.815 821.217 441.225 821.382 441.589C821.547 441.952 821.836 442.246 822.197 442.417C825.693 444.306 827.473 441.739 827.95 438.766C828.447 435.535 829.143 433.11 825.615 431.368Z" fill="#FFE9B3"/>
<path opacity="0.15" d="M825.615 431.368C824.594 430.791 823.406 430.58 822.249 430.768C821.676 430.876 821.156 431.17 820.769 431.606C820.383 432.041 820.152 432.593 820.114 433.174L818.256 433.064C818.041 433.042 817.823 433.053 817.611 433.097C817.359 433.176 817.145 433.346 817.011 433.573C816.876 433.8 816.83 434.07 816.882 434.329C816.951 434.584 817.113 434.805 817.336 434.947C817.559 435.089 817.828 435.142 818.088 435.096C817.174 435.46 816.359 436.035 815.708 436.773C815.223 437.505 815.046 438.399 815.215 439.261C815.384 440.123 815.886 440.883 816.611 441.378C817.374 441.817 818.27 441.963 819.132 441.789C819.994 441.614 820.763 441.131 821.294 440.43C821.185 440.815 821.217 441.225 821.382 441.589C821.547 441.952 821.836 442.246 822.197 442.417C825.693 444.306 827.473 441.739 827.95 438.766C828.447 435.535 829.143 433.11 825.615 431.368Z" fill="black"/>
<path d="M812.716 427.498C811.694 426.921 810.507 426.71 809.349 426.898C808.777 427.006 808.256 427.301 807.87 427.736C807.483 428.172 807.253 428.723 807.214 429.304L805.356 429.195C805.141 429.172 804.924 429.183 804.711 429.227C804.459 429.306 804.246 429.476 804.111 429.703C803.976 429.93 803.931 430.2 803.983 430.459C804.051 430.714 804.213 430.935 804.436 431.077C804.66 431.219 804.928 431.272 805.189 431.226C804.275 431.591 803.459 432.165 802.809 432.903C802.324 433.635 802.147 434.529 802.316 435.391C802.485 436.253 802.986 437.013 803.712 437.508C804.474 437.948 805.37 438.094 806.232 437.919C807.094 437.744 807.863 437.261 808.394 436.56C808.286 436.945 808.317 437.355 808.482 437.719C808.647 438.082 808.936 438.376 809.297 438.547C812.793 440.437 814.573 437.87 815.05 434.896C815.547 431.665 816.244 429.24 812.716 427.498Z" fill="#FFE9B3"/>
<path opacity="0.15" d="M812.716 427.498C811.694 426.921 810.507 426.71 809.349 426.898C808.777 427.006 808.256 427.301 807.87 427.736C807.483 428.172 807.253 428.723 807.214 429.304L805.356 429.195C805.141 429.172 804.924 429.183 804.711 429.227C804.459 429.306 804.246 429.476 804.111 429.703C803.976 429.93 803.931 430.2 803.983 430.459C804.051 430.714 804.213 430.935 804.436 431.077C804.66 431.219 804.928 431.272 805.189 431.226C804.275 431.591 803.459 432.165 802.809 432.903C802.324 433.635 802.147 434.529 802.316 435.391C802.485 436.253 802.986 437.013 803.712 437.508C804.474 437.948 805.37 438.094 806.232 437.919C807.094 437.744 807.863 437.261 808.394 436.56C808.286 436.945 808.317 437.355 808.482 437.719C808.647 438.082 808.936 438.376 809.297 438.547C812.793 440.437 814.573 437.87 815.05 434.896C815.547 431.665 816.244 429.24 812.716 427.498Z" fill="black"/>
<path d="M826.905 424.918C825.884 424.341 824.696 424.13 823.538 424.319C822.966 424.426 822.446 424.721 822.059 425.156C821.673 425.592 821.442 426.143 821.404 426.724L819.546 426.615C819.331 426.592 819.113 426.603 818.901 426.647C818.649 426.726 818.435 426.896 818.301 427.123C818.166 427.351 818.12 427.62 818.172 427.879C818.241 428.134 818.403 428.355 818.626 428.497C818.849 428.639 819.118 428.692 819.378 428.646C818.464 429.011 817.649 429.585 816.998 430.323C816.513 431.055 816.336 431.949 816.505 432.811C816.674 433.673 817.176 434.434 817.901 434.928C818.663 435.368 819.56 435.514 820.422 435.339C821.284 435.165 822.053 434.681 822.584 433.98C822.475 434.365 822.506 434.775 822.672 435.139C822.837 435.503 823.126 435.796 823.487 435.967C826.983 437.857 828.763 435.29 829.24 432.316C829.737 429.085 830.433 426.66 826.905 424.918Z" fill="#FFE9B3"/>
<path opacity="0.15" d="M826.905 424.918C825.884 424.341 824.696 424.13 823.538 424.319C822.966 424.426 822.446 424.721 822.059 425.156C821.673 425.592 821.442 426.143 821.404 426.724L819.546 426.615C819.331 426.592 819.113 426.603 818.901 426.647C818.649 426.726 818.435 426.896 818.301 427.123C818.166 427.351 818.12 427.62 818.172 427.879C818.241 428.134 818.403 428.355 818.626 428.497C818.849 428.639 819.118 428.692 819.378 428.646C818.464 429.011 817.649 429.585 816.998 430.323C816.513 431.055 816.336 431.949 816.505 432.811C816.674 433.673 817.176 434.434 817.901 434.928C818.663 435.368 819.56 435.514 820.422 435.339C821.284 435.165 822.053 434.681 822.584 433.98C822.475 434.365 822.506 434.775 822.672 435.139C822.837 435.503 823.126 435.796 823.487 435.967C826.983 437.857 828.763 435.29 829.24 432.316C829.737 429.085 830.433 426.66 826.905 424.918Z" fill="black"/>
<path d="M832.065 428.788C831.044 428.211 829.856 428 828.698 428.188C828.126 428.296 827.606 428.59 827.219 429.026C826.833 429.462 826.602 430.013 826.563 430.594L824.706 430.484C824.49 430.462 824.273 430.473 824.061 430.517C823.809 430.596 823.595 430.766 823.46 430.993C823.326 431.22 823.28 431.49 823.332 431.749C823.401 432.004 823.562 432.225 823.786 432.367C824.009 432.509 824.278 432.562 824.538 432.516C823.624 432.88 822.809 433.455 822.158 434.193C821.673 434.925 821.496 435.819 821.665 436.681C821.834 437.543 822.336 438.303 823.061 438.798C823.823 439.238 824.719 439.384 825.582 439.209C826.444 439.034 827.212 438.551 827.744 437.85C827.635 438.235 827.666 438.645 827.832 439.009C827.997 439.372 828.286 439.666 828.647 439.837C832.142 441.726 833.923 439.159 834.4 436.186C834.896 432.955 835.593 430.53 832.065 428.788Z" fill="#FFE9B3"/>
<path opacity="0.15" d="M832.065 428.788C831.044 428.211 829.856 428 828.698 428.188C828.126 428.296 827.606 428.59 827.219 429.026C826.833 429.462 826.602 430.013 826.563 430.594L824.706 430.484C824.49 430.462 824.273 430.473 824.061 430.517C823.809 430.596 823.595 430.766 823.46 430.993C823.326 431.22 823.28 431.49 823.332 431.749C823.401 432.004 823.562 432.225 823.786 432.367C824.009 432.509 824.278 432.562 824.538 432.516C823.624 432.88 822.809 433.455 822.158 434.193C821.673 434.925 821.496 435.819 821.665 436.681C821.834 437.543 822.336 438.303 823.061 438.798C823.823 439.238 824.719 439.384 825.582 439.209C826.444 439.034 827.212 438.551 827.744 437.85C827.635 438.235 827.666 438.645 827.832 439.009C827.997 439.372 828.286 439.666 828.647 439.837C832.142 441.726 833.923 439.159 834.4 436.186C834.896 432.955 835.593 430.53 832.065 428.788Z" fill="black"/>
<path d="M800.461 442.333C799.44 441.756 798.252 441.544 797.094 441.733C796.522 441.84 796.002 442.135 795.615 442.571C795.229 443.006 794.998 443.558 794.959 444.139L793.102 444.029C792.887 444.007 792.669 444.018 792.457 444.061C792.205 444.141 791.991 444.31 791.856 444.538C791.722 444.765 791.676 445.034 791.728 445.293C791.797 445.549 791.959 445.769 792.182 445.912C792.405 446.054 792.674 446.107 792.934 446.061C792.02 446.425 791.205 447 790.554 447.738C790.069 448.47 789.892 449.364 790.061 450.225C790.23 451.087 790.732 451.848 791.457 452.343C792.219 452.782 793.116 452.928 793.978 452.754C794.84 452.579 795.609 452.096 796.14 451.395C796.031 451.779 796.062 452.19 796.228 452.553C796.393 452.917 796.682 453.21 797.043 453.381C800.539 455.271 802.319 452.704 802.796 449.731C803.293 446.499 803.989 444.074 800.461 442.333Z" fill="#FFE9B3"/>
<path opacity="0.15" d="M800.461 442.333C799.44 441.756 798.252 441.544 797.094 441.733C796.522 441.84 796.002 442.135 795.615 442.571C795.229 443.006 794.998 443.558 794.959 444.139L793.102 444.029C792.887 444.007 792.669 444.018 792.457 444.061C792.205 444.141 791.991 444.31 791.856 444.538C791.722 444.765 791.676 445.034 791.728 445.293C791.797 445.549 791.959 445.769 792.182 445.912C792.405 446.054 792.674 446.107 792.934 446.061C792.02 446.425 791.205 447 790.554 447.738C790.069 448.47 789.892 449.364 790.061 450.225C790.23 451.087 790.732 451.848 791.457 452.343C792.219 452.782 793.116 452.928 793.978 452.754C794.84 452.579 795.609 452.096 796.14 451.395C796.031 451.779 796.062 452.19 796.228 452.553C796.393 452.917 796.682 453.21 797.043 453.381C800.539 455.271 802.319 452.704 802.796 449.731C803.293 446.499 803.989 444.074 800.461 442.333Z" fill="black"/>
<path d="M837.87 433.303C836.848 432.726 835.661 432.515 834.503 432.703C833.931 432.811 833.41 433.105 833.024 433.541C832.638 433.976 832.407 434.528 832.368 435.109L830.511 434.999C830.295 434.977 830.078 434.988 829.866 435.032C829.614 435.111 829.4 435.28 829.265 435.508C829.131 435.735 829.085 436.004 829.137 436.264C829.205 436.519 829.367 436.74 829.591 436.882C829.814 437.024 830.082 437.077 830.343 437.031C829.429 437.395 828.614 437.97 827.963 438.708C827.478 439.44 827.301 440.334 827.47 441.196C827.639 442.058 828.14 442.818 828.866 443.313C829.628 443.752 830.524 443.898 831.386 443.724C832.248 443.549 833.017 443.066 833.548 442.365C833.44 442.749 833.471 443.16 833.636 443.524C833.802 443.887 834.09 444.181 834.451 444.352C837.947 446.241 839.727 443.674 840.205 440.701C840.701 437.47 841.398 435.044 837.87 433.303Z" fill="#FFE9B3"/>
<path opacity="0.15" d="M837.87 433.303C836.848 432.726 835.661 432.515 834.503 432.703C833.931 432.811 833.41 433.105 833.024 433.541C832.638 433.976 832.407 434.528 832.368 435.109L830.511 434.999C830.295 434.977 830.078 434.988 829.866 435.032C829.614 435.111 829.4 435.28 829.265 435.508C829.131 435.735 829.085 436.004 829.137 436.264C829.205 436.519 829.367 436.74 829.591 436.882C829.814 437.024 830.082 437.077 830.343 437.031C829.429 437.395 828.614 437.97 827.963 438.708C827.478 439.44 827.301 440.334 827.47 441.196C827.639 442.058 828.14 442.818 828.866 443.313C829.628 443.752 830.524 443.898 831.386 443.724C832.248 443.549 833.017 443.066 833.548 442.365C833.44 442.749 833.471 443.16 833.636 443.524C833.802 443.887 834.09 444.181 834.451 444.352C837.947 446.241 839.727 443.674 840.205 440.701C840.701 437.47 841.398 435.044 837.87 433.303Z" fill="black"/>
<path d="M850.124 439.753C849.103 439.176 847.916 438.964 846.758 439.153C846.185 439.26 845.665 439.555 845.279 439.991C844.892 440.426 844.661 440.978 844.623 441.559L842.765 441.449C842.55 441.427 842.332 441.438 842.12 441.481C841.868 441.561 841.654 441.73 841.52 441.958C841.385 442.185 841.34 442.454 841.391 442.713C841.46 442.969 841.622 443.19 841.845 443.332C842.069 443.474 842.337 443.527 842.598 443.481C841.684 443.845 840.868 444.42 840.218 445.158C839.733 445.89 839.555 446.784 839.724 447.646C839.893 448.507 840.395 449.268 841.121 449.763C841.883 450.202 842.779 450.348 843.641 450.174C844.503 449.999 845.272 449.516 845.803 448.815C845.695 449.199 845.726 449.61 845.891 449.973C846.056 450.337 846.345 450.63 846.706 450.801C850.202 452.691 851.982 450.124 852.459 447.151C852.956 443.919 853.653 441.494 850.124 439.753Z" fill="#FFE9B3"/>
<path opacity="0.15" d="M850.124 439.753C849.103 439.176 847.916 438.964 846.758 439.153C846.185 439.26 845.665 439.555 845.279 439.991C844.892 440.426 844.661 440.978 844.623 441.559L842.765 441.449C842.55 441.427 842.332 441.438 842.12 441.481C841.868 441.561 841.654 441.73 841.52 441.958C841.385 442.185 841.34 442.454 841.391 442.713C841.46 442.969 841.622 443.19 841.845 443.332C842.069 443.474 842.337 443.527 842.598 443.481C841.684 443.845 840.868 444.42 840.218 445.158C839.733 445.89 839.555 446.784 839.724 447.646C839.893 448.507 840.395 449.268 841.121 449.763C841.883 450.202 842.779 450.348 843.641 450.174C844.503 449.999 845.272 449.516 845.803 448.815C845.695 449.199 845.726 449.61 845.891 449.973C846.056 450.337 846.345 450.63 846.706 450.801C850.202 452.691 851.982 450.124 852.459 447.151C852.956 443.919 853.653 441.494 850.124 439.753Z" fill="black"/>
<path d="M839.805 425.563C838.783 424.986 837.596 424.775 836.438 424.963C835.866 425.071 835.345 425.366 834.959 425.801C834.572 426.237 834.342 426.788 834.303 427.369L832.446 427.26C832.23 427.237 832.013 427.248 831.801 427.292C831.549 427.371 831.335 427.541 831.2 427.768C831.066 427.996 831.02 428.265 831.072 428.524C831.14 428.779 831.302 429 831.526 429.142C831.749 429.284 832.017 429.337 832.278 429.291C831.364 429.656 830.548 430.23 829.898 430.968C829.413 431.7 829.236 432.594 829.405 433.456C829.574 434.318 830.075 435.079 830.801 435.573C831.563 436.013 832.459 436.159 833.321 435.984C834.183 435.81 834.952 435.326 835.483 434.625C835.375 435.01 835.406 435.42 835.571 435.784C835.737 436.147 836.025 436.441 836.386 436.612C839.882 438.502 841.662 435.935 842.14 432.961C842.636 429.73 843.333 427.305 839.805 425.563Z" fill="#FFE9B3"/>
<path opacity="0.15" d="M839.805 425.563C838.783 424.986 837.596 424.775 836.438 424.963C835.866 425.071 835.345 425.366 834.959 425.801C834.572 426.237 834.342 426.788 834.303 427.369L832.446 427.26C832.23 427.237 832.013 427.248 831.801 427.292C831.549 427.371 831.335 427.541 831.2 427.768C831.066 427.996 831.02 428.265 831.072 428.524C831.14 428.779 831.302 429 831.526 429.142C831.749 429.284 832.017 429.337 832.278 429.291C831.364 429.656 830.548 430.23 829.898 430.968C829.413 431.7 829.236 432.594 829.405 433.456C829.574 434.318 830.075 435.079 830.801 435.573C831.563 436.013 832.459 436.159 833.321 435.984C834.183 435.81 834.952 435.326 835.483 434.625C835.375 435.01 835.406 435.42 835.571 435.784C835.737 436.147 836.025 436.441 836.386 436.612C839.882 438.502 841.662 435.935 842.14 432.961C842.636 429.73 843.333 427.305 839.805 425.563Z" fill="black"/>
<path d="M848.828 441.094C849.419 440.08 849.646 438.895 849.473 437.734C849.372 437.16 849.082 436.636 848.65 436.245C848.218 435.854 847.668 435.617 847.087 435.573L847.222 433.716C847.255 433.502 847.255 433.285 847.222 433.071C847.192 432.94 847.136 432.816 847.058 432.706C846.98 432.596 846.881 432.503 846.767 432.431C846.653 432.359 846.526 432.311 846.393 432.289C846.261 432.266 846.125 432.27 845.993 432.3C845.862 432.33 845.738 432.386 845.628 432.464C845.518 432.542 845.425 432.641 845.354 432.755C845.282 432.869 845.234 432.996 845.211 433.129C845.189 433.262 845.193 433.398 845.223 433.529C844.868 432.611 844.302 431.789 843.571 431.129C842.845 430.635 841.952 430.448 841.088 430.607C840.223 430.766 839.456 431.26 838.953 431.981C838.506 432.739 838.35 433.635 838.517 434.499C838.683 435.364 839.159 436.138 839.856 436.676C839.472 436.564 839.061 436.591 838.695 436.753C838.33 436.915 838.033 437.201 837.857 437.56C835.922 441.036 838.502 442.842 841.443 443.365C844.636 443.874 847.061 444.603 848.828 441.094Z" fill="#FFE9B3"/>
<path d="M848.828 430.775C849.419 429.761 849.646 428.575 849.473 427.414C849.372 426.84 849.082 426.317 848.65 425.925C848.218 425.534 847.668 425.298 847.087 425.254L847.222 423.396C847.255 423.182 847.255 422.965 847.222 422.751C847.161 422.486 846.998 422.256 846.767 422.111C846.537 421.967 846.258 421.92 845.993 421.98C845.728 422.041 845.498 422.205 845.354 422.435C845.209 422.666 845.162 422.944 845.223 423.209C844.868 422.291 844.302 421.469 843.571 420.81C842.845 420.316 841.952 420.128 841.088 420.287C840.223 420.447 839.456 420.94 838.953 421.661C838.506 422.419 838.35 423.315 838.517 424.18C838.683 425.044 839.159 425.819 839.856 426.357C839.472 426.245 839.061 426.272 838.695 426.433C838.33 426.595 838.033 426.881 837.857 427.24C835.922 430.717 838.502 432.523 841.443 433.045C844.636 433.555 847.061 434.283 848.828 430.775Z" fill="#FFE9B3"/>
<path d="M837.863 444.319C838.454 443.305 838.682 442.12 838.508 440.959C838.407 440.385 838.117 439.861 837.685 439.47C837.253 439.079 836.703 438.842 836.122 438.798L836.257 436.941C836.29 436.727 836.29 436.51 836.257 436.296C836.197 436.031 836.033 435.8 835.803 435.656C835.572 435.511 835.294 435.464 835.029 435.525C834.764 435.586 834.533 435.749 834.389 435.98C834.244 436.21 834.197 436.489 834.258 436.754C833.903 435.835 833.338 435.014 832.607 434.354C831.88 433.86 830.987 433.673 830.123 433.832C829.259 433.991 828.492 434.485 827.989 435.206C827.541 435.964 827.386 436.86 827.552 437.724C827.718 438.589 828.195 439.363 828.892 439.901C828.508 439.789 828.097 439.816 827.731 439.978C827.365 440.14 827.068 440.425 826.892 440.785C824.957 444.261 827.537 446.067 830.478 446.59C833.671 447.099 836.096 447.828 837.863 444.319Z" fill="#FFE9B3"/>
<path d="M850.118 455.929C850.709 454.915 850.937 453.729 850.763 452.569C850.662 451.995 850.372 451.471 849.94 451.079C849.508 450.688 848.958 450.452 848.377 450.408L848.512 448.55C848.545 448.337 848.545 448.119 848.512 447.905C848.451 447.64 848.288 447.41 848.057 447.266C847.827 447.121 847.549 447.074 847.283 447.135C847.018 447.195 846.788 447.359 846.644 447.589C846.499 447.82 846.452 448.098 846.513 448.363C846.158 447.445 845.592 446.623 844.862 445.964C844.135 445.47 843.242 445.282 842.378 445.442C841.513 445.601 840.746 446.094 840.243 446.815C839.796 447.574 839.64 448.469 839.807 449.334C839.973 450.199 840.449 450.973 841.146 451.511C840.762 451.399 840.351 451.426 839.985 451.588C839.62 451.749 839.323 452.035 839.147 452.394C837.212 455.871 839.792 457.677 842.733 458.199C845.926 458.709 848.351 459.438 850.118 455.929Z" fill="#FFE9B3"/>
<path d="M826.899 460.444C827.49 459.43 827.717 458.244 827.544 457.083C827.442 456.509 827.153 455.986 826.721 455.594C826.289 455.203 825.739 454.967 825.157 454.923L825.293 453.065C825.326 452.851 825.326 452.634 825.293 452.42C825.232 452.155 825.069 451.925 824.838 451.78C824.608 451.636 824.329 451.589 824.064 451.649C823.799 451.71 823.569 451.874 823.424 452.104C823.28 452.335 823.233 452.613 823.293 452.878C822.939 451.96 822.373 451.138 821.642 450.479C820.915 449.985 820.023 449.797 819.158 449.956C818.294 450.116 817.527 450.609 817.024 451.33C816.577 452.088 816.421 452.984 816.587 453.849C816.754 454.713 817.23 455.488 817.927 456.026C817.543 455.914 817.132 455.941 816.766 456.102C816.4 456.264 816.103 456.55 815.928 456.909C813.993 460.386 816.573 462.192 819.514 462.714C822.706 463.224 825.132 463.952 826.899 460.444Z" fill="#FFE9B3"/>
<path d="M821.739 434C822.33 432.985 822.557 431.8 822.384 430.639C822.282 430.065 821.993 429.541 821.561 429.15C821.129 428.759 820.579 428.523 819.997 428.479L820.133 426.621C820.166 426.407 820.166 426.19 820.133 425.976C820.072 425.711 819.909 425.481 819.678 425.336C819.448 425.192 819.169 425.145 818.904 425.205C818.639 425.266 818.409 425.43 818.264 425.66C818.12 425.89 818.073 426.169 818.134 426.434C817.779 425.516 817.213 424.694 816.482 424.035C815.755 423.541 814.863 423.353 813.999 423.512C813.134 423.672 812.367 424.165 811.864 424.886C811.417 425.644 811.261 426.54 811.428 427.405C811.594 428.269 812.07 429.043 812.767 429.582C812.383 429.469 811.972 429.497 811.606 429.658C811.24 429.82 810.943 430.106 810.768 430.465C808.833 433.942 811.413 435.748 814.354 436.27C817.547 436.779 819.972 437.508 821.739 434Z" fill="#FFE9B3"/>
<path d="M835.283 430.775C835.874 429.761 836.102 428.575 835.928 427.414C835.827 426.84 835.537 426.317 835.105 425.925C834.673 425.534 834.123 425.298 833.542 425.254L833.677 423.396C833.71 423.182 833.71 422.965 833.677 422.751C833.617 422.486 833.453 422.256 833.223 422.111C832.992 421.967 832.714 421.92 832.449 421.98C832.184 422.041 831.954 422.205 831.809 422.435C831.664 422.666 831.617 422.944 831.678 423.209C831.323 422.291 830.758 421.469 830.027 420.81C829.3 420.316 828.408 420.128 827.543 420.287C826.679 420.447 825.912 420.94 825.409 421.661C824.961 422.419 824.806 423.315 824.972 424.18C825.138 425.044 825.615 425.819 826.312 426.357C825.928 426.245 825.517 426.272 825.151 426.433C824.785 426.595 824.488 426.881 824.312 427.24C822.377 430.717 824.957 432.523 827.898 433.045C831.091 433.555 833.516 434.283 835.283 430.775Z" fill="#FFE9B3"/>
<path d="M808.194 443.029C808.785 442.015 809.013 440.83 808.839 439.669C808.738 439.095 808.448 438.571 808.016 438.18C807.584 437.789 807.034 437.552 806.453 437.508L806.588 435.651C806.621 435.437 806.621 435.22 806.588 435.006C806.528 434.741 806.364 434.51 806.134 434.366C805.903 434.221 805.625 434.174 805.36 434.235C805.095 434.296 804.864 434.459 804.72 434.69C804.575 434.92 804.528 435.199 804.589 435.464C804.234 434.546 803.669 433.724 802.938 433.064C802.211 432.57 801.318 432.383 800.454 432.542C799.59 432.701 798.823 433.195 798.32 433.916C797.872 434.674 797.717 435.57 797.883 436.434C798.049 437.299 798.526 438.073 799.223 438.611C798.839 438.499 798.428 438.526 798.062 438.688C797.696 438.85 797.399 439.135 797.223 439.495C795.288 442.971 797.868 444.777 800.809 445.3C804.002 445.809 806.427 446.538 808.194 443.029Z" fill="#FFE9B3"/>
<path d="M797.92 472.615C801.274 472.344 804.582 471.486 807.949 471.531C812.354 471.589 816.592 473.182 820.604 475.001C821.782 475.456 822.863 476.13 823.79 476.987C824.451 477.75 824.933 478.651 825.198 479.625C825.464 480.598 825.507 481.619 825.325 482.612C824.948 484.597 824.161 486.481 823.016 488.146C821.842 490.01 820.391 491.848 818.346 492.66C817.203 493.055 816.002 493.262 814.792 493.273C809.742 493.551 804.595 493.273 799.803 491.654C797.346 490.816 795.017 489.642 792.612 488.649C784.943 485.475 776.648 484.224 768.502 482.625C768.088 482.575 767.693 482.422 767.354 482.18C765.658 480.715 769.341 475.44 770.205 473.963C771.663 471.454 772.985 471.183 775.939 471.112C783.318 470.925 790.522 473.072 797.92 472.615Z" fill="#A0616A"/>
<path d="M855.304 490.461C852.969 489.313 850.873 487.726 848.557 486.533C845.641 485.033 842.436 484.182 839.16 484.037C837.038 483.94 834.729 484.224 833.187 485.688C830.988 487.778 831.252 491.332 831.975 494.279C833.071 498.697 835.277 503.374 839.515 505.044C841.179 505.601 842.919 505.899 844.674 505.928C852.524 506.469 860.696 506.96 867.971 503.993C868.504 503.827 868.961 503.477 869.261 503.006C869.577 502.361 869.261 501.587 868.938 500.936C867.777 498.601 865.939 493.705 863.695 492.248C861.605 490.848 857.909 491.738 855.304 490.461Z" fill="#A0616A"/>
<path opacity="0.1" d="M873.75 455.336C878.049 462.156 881.584 469.431 884.289 477.026C885.045 478.894 885.481 480.876 885.579 482.889C885.579 485.127 884.798 487.294 883.979 489.41C881.37 496.179 878.341 502.779 874.911 509.172C873.879 511.107 872.699 513.126 870.654 514.19C868.506 515.312 865.862 515.138 863.405 514.835C857.247 514.161 851.14 513.079 845.126 511.597C848.912 511.72 852.33 508.882 854.078 505.792C855.826 502.703 856.213 499.168 856.503 495.718C856.769 493.859 856.69 491.968 856.271 490.139C856.026 489.194 855.557 488.323 854.904 487.599C854.25 486.875 853.432 486.319 852.517 485.978C852.343 484.295 853.949 482.883 855.607 482.109C857.264 481.335 859.148 480.902 860.496 479.742C862.482 478.039 862.766 475.194 862.115 472.782C861.463 470.37 860.044 468.19 859.038 465.874C857.626 462.65 864.914 459.257 865.204 455.774C865.269 454.987 864.714 456.419 865.204 455.774C865.694 455.129 868.739 457.367 869.429 457.064C873.963 455.103 871.241 451.35 873.75 455.336Z" fill="black"/>
<path d="M875.156 455.336C879.455 462.158 882.991 469.432 885.701 477.026C886.461 478.893 886.897 480.876 886.991 482.889C886.991 485.127 886.211 487.294 885.398 489.41C882.786 496.178 879.757 502.778 876.33 509.172C875.298 511.107 874.118 513.126 872.073 514.19C869.925 515.312 867.274 515.138 864.823 514.835C858.663 514.162 852.555 513.081 846.538 511.597C850.318 511.72 853.743 508.882 855.484 505.792C857.226 502.703 857.626 499.168 857.916 495.718C858.178 493.859 858.099 491.969 857.684 490.139C857.437 489.195 856.967 488.325 856.314 487.601C855.66 486.877 854.843 486.321 853.93 485.978C853.749 484.295 855.362 482.883 857.019 482.109C858.677 481.335 860.56 480.902 861.908 479.742C863.888 478.039 864.172 475.194 863.521 472.782C862.869 470.37 861.45 468.19 860.444 465.874C859.036 462.645 858.447 459.118 858.728 455.606C858.742 454.803 858.979 454.019 859.412 453.343C859.893 452.767 860.512 452.323 861.212 452.053C865.765 450.118 872.647 451.35 875.156 455.336Z" fill="#7EB2FF"/>
<path opacity="0.1" d="M737.285 448.937C733.1 452.807 728.778 456.896 726.74 462.23C725.631 465.139 725.263 468.274 724.902 471.37C724.296 476.646 723.747 482.296 726.192 487.004C728.901 492.164 734.577 494.931 739.904 497.272C741.746 498.137 743.655 498.853 745.612 499.413C748.176 499.986 750.79 500.306 753.416 500.368L780.306 501.864C776.797 498.33 774.552 492.796 775.03 487.836C775.462 483.405 777.609 479.342 779.77 475.465C780.892 473.466 782.163 471.363 784.233 470.376C775.473 468.44 766.465 467.875 757.531 468.699C756.931 468.751 756.241 468.77 755.848 468.293C755.652 467.994 755.561 467.637 755.59 467.281C755.59 463.275 758.583 459.947 759.821 456.142C761.801 450.04 755.061 453.388 748.998 451.292C742.935 449.195 738.524 442.642 737.285 448.937Z" fill="black"/>
<path d="M735.35 448.937C731.165 452.807 726.843 456.896 724.805 462.23C723.696 465.139 723.328 468.274 722.967 471.37C722.361 476.646 721.812 482.296 724.257 487.004C726.966 492.164 732.642 494.931 737.969 497.272C739.811 498.137 741.72 498.853 743.677 499.413C746.241 499.986 748.855 500.306 751.481 500.368L778.371 501.864C774.862 498.33 772.617 492.796 773.095 487.836C773.527 483.405 775.675 479.342 777.835 475.465C778.957 473.466 780.228 471.363 782.299 470.376C773.538 468.44 764.53 467.875 755.596 468.699C754.997 468.751 754.306 468.77 753.913 468.293C753.717 467.994 753.626 467.637 753.655 467.281C753.655 463.275 756.648 459.947 757.886 456.142C759.866 450.04 756.422 442.597 750.353 440.488C744.283 438.379 736.589 442.642 735.35 448.937Z" fill="#7EB2FF"/>
<path d="M802.88 379.699C820.868 379.699 835.451 373.635 835.451 366.154C835.451 358.674 820.868 352.61 802.88 352.61C784.891 352.61 770.308 358.674 770.308 366.154C770.308 373.635 784.891 379.699 802.88 379.699Z" fill="#2F2E41"/>
<path opacity="0.1" d="M802.235 373.894C786.646 373.894 773.617 369.334 770.418 363.252C769.933 364.143 769.674 365.14 769.663 366.154C769.663 373.636 784.246 379.699 802.235 379.699C820.223 379.699 834.806 373.636 834.806 366.154C834.796 365.14 834.537 364.143 834.052 363.252C830.852 369.334 817.824 373.894 802.235 373.894Z" fill="black"/>
<path d="M846.255 375.255C845.233 374.678 844.046 374.467 842.888 374.655C842.316 374.763 841.795 375.057 841.409 375.493C841.022 375.928 840.792 376.48 840.753 377.061L838.895 376.951C838.68 376.929 838.463 376.94 838.25 376.984C837.998 377.063 837.784 377.232 837.65 377.46C837.515 377.687 837.47 377.956 837.522 378.215C837.59 378.471 837.752 378.692 837.975 378.834C838.199 378.976 838.467 379.029 838.728 378.983C837.814 379.347 836.998 379.922 836.348 380.66C835.863 381.392 835.686 382.286 835.855 383.148C836.024 384.01 836.525 384.77 837.251 385.265C838.013 385.704 838.909 385.85 839.771 385.676C840.633 385.501 841.402 385.018 841.933 384.317C841.825 384.701 841.856 385.112 842.021 385.475C842.186 385.839 842.475 386.132 842.836 386.303C846.332 388.193 848.112 385.626 848.589 382.653C849.086 379.422 849.783 376.996 846.255 375.255Z" fill="#FFE9B3"/>
<path opacity="0.15" d="M846.255 375.255C845.233 374.678 844.046 374.467 842.888 374.655C842.316 374.763 841.795 375.057 841.409 375.493C841.022 375.928 840.792 376.48 840.753 377.061L838.895 376.951C838.68 376.929 838.463 376.94 838.25 376.984C837.998 377.063 837.784 377.232 837.65 377.46C837.515 377.687 837.47 377.956 837.522 378.215C837.59 378.471 837.752 378.692 837.975 378.834C838.199 378.976 838.467 379.029 838.728 378.983C837.814 379.347 836.998 379.922 836.348 380.66C835.863 381.392 835.686 382.286 835.855 383.148C836.024 384.01 836.525 384.77 837.251 385.265C838.013 385.704 838.909 385.85 839.771 385.676C840.633 385.501 841.402 385.018 841.933 384.317C841.825 384.701 841.856 385.112 842.021 385.475C842.186 385.839 842.475 386.132 842.836 386.303C846.332 388.193 848.112 385.626 848.589 382.653C849.086 379.422 849.783 376.996 846.255 375.255Z" fill="black"/>
<path d="M877.214 424.273C876.192 423.697 875.005 423.485 873.847 423.674C873.275 423.781 872.754 424.076 872.368 424.511C871.981 424.947 871.751 425.498 871.712 426.079L869.854 425.97C869.639 425.947 869.421 425.958 869.209 426.002C868.957 426.081 868.743 426.251 868.609 426.478C868.474 426.706 868.429 426.975 868.481 427.234C868.549 427.489 868.711 427.71 868.934 427.852C869.158 427.994 869.426 428.047 869.687 428.001C868.773 428.366 867.957 428.94 867.307 429.678C866.822 430.41 866.645 431.304 866.814 432.166C866.983 433.028 867.484 433.789 868.21 434.283C868.972 434.723 869.868 434.869 870.73 434.694C871.592 434.52 872.361 434.036 872.892 433.335C872.784 433.72 872.815 434.13 872.98 434.494C873.145 434.858 873.434 435.151 873.795 435.322C877.291 437.212 879.071 434.645 879.548 431.671C880.045 428.44 880.742 426.015 877.214 424.273Z" fill="#FFE9B3"/>
<path opacity="0.15" d="M877.214 424.273C876.192 423.697 875.005 423.485 873.847 423.674C873.275 423.781 872.754 424.076 872.368 424.511C871.981 424.947 871.751 425.498 871.712 426.079L869.854 425.97C869.639 425.947 869.421 425.958 869.209 426.002C868.957 426.081 868.743 426.251 868.609 426.478C868.474 426.706 868.429 426.975 868.481 427.234C868.549 427.489 868.711 427.71 868.934 427.852C869.158 427.994 869.426 428.047 869.687 428.001C868.773 428.366 867.957 428.94 867.307 429.678C866.822 430.41 866.645 431.304 866.814 432.166C866.983 433.028 867.484 433.789 868.21 434.283C868.972 434.723 869.868 434.869 870.73 434.694C871.592 434.52 872.361 434.036 872.892 433.335C872.784 433.72 872.815 434.13 872.98 434.494C873.145 434.858 873.434 435.151 873.795 435.322C877.291 437.212 879.071 434.645 879.548 431.671C880.045 428.44 880.742 426.015 877.214 424.273Z" fill="black"/>
<path d="M913.332 476.517C912.311 475.94 911.123 475.728 909.966 475.917C909.393 476.024 908.873 476.319 908.487 476.754C908.1 477.19 907.869 477.742 907.831 478.323L905.973 478.213C905.758 478.191 905.54 478.201 905.328 478.245C905.076 478.324 904.862 478.494 904.728 478.721C904.593 478.949 904.547 479.218 904.599 479.477C904.668 479.733 904.83 479.953 905.053 480.095C905.276 480.238 905.545 480.291 905.805 480.245C904.891 480.609 904.076 481.183 903.425 481.922C902.941 482.654 902.763 483.548 902.932 484.409C903.101 485.271 903.603 486.032 904.328 486.527C905.091 486.966 905.987 487.112 906.849 486.937C907.711 486.763 908.48 486.28 909.011 485.579C908.902 485.963 908.934 486.373 909.099 486.737C909.264 487.101 909.553 487.394 909.914 487.565C913.41 489.455 915.19 486.888 915.667 483.915C916.164 480.683 916.86 478.258 913.332 476.517Z" fill="#FFE9B3"/>
<path opacity="0.15" d="M913.332 476.517C912.311 475.94 911.123 475.728 909.966 475.917C909.393 476.024 908.873 476.319 908.487 476.754C908.1 477.19 907.869 477.742 907.831 478.323L905.973 478.213C905.758 478.191 905.54 478.201 905.328 478.245C905.076 478.324 904.862 478.494 904.728 478.721C904.593 478.949 904.547 479.218 904.599 479.477C904.668 479.733 904.83 479.953 905.053 480.095C905.276 480.238 905.545 480.291 905.805 480.245C904.891 480.609 904.076 481.183 903.425 481.922C902.941 482.654 902.763 483.548 902.932 484.409C903.101 485.271 903.603 486.032 904.328 486.527C905.091 486.966 905.987 487.112 906.849 486.937C907.711 486.763 908.48 486.28 909.011 485.579C908.902 485.963 908.934 486.373 909.099 486.737C909.264 487.101 909.553 487.394 909.914 487.565C913.41 489.455 915.19 486.888 915.667 483.915C916.164 480.683 916.86 478.258 913.332 476.517Z" fill="black"/>
<path d="M857.858 361.117C858.449 360.103 858.676 358.918 858.503 357.757C858.401 357.183 858.112 356.659 857.68 356.268C857.248 355.876 856.698 355.64 856.116 355.596L856.252 353.738C856.285 353.525 856.285 353.307 856.252 353.093C856.191 352.828 856.028 352.598 855.797 352.454C855.567 352.309 855.288 352.262 855.023 352.323C854.758 352.383 854.528 352.547 854.383 352.777C854.239 353.008 854.192 353.286 854.252 353.551C853.898 352.633 853.332 351.811 852.601 351.152C851.874 350.658 850.982 350.47 850.117 350.63C849.253 350.789 848.486 351.283 847.983 352.003C847.536 352.762 847.38 353.657 847.546 354.522C847.713 355.387 848.189 356.161 848.886 356.699C848.502 356.587 848.091 356.614 847.725 356.776C847.359 356.937 847.062 357.223 846.887 357.583C844.952 361.059 847.532 362.865 850.473 363.387C853.665 363.897 856.091 364.626 857.858 361.117Z" fill="#FFE9B3"/>
<path d="M853.988 338.543C854.579 337.529 854.806 336.343 854.633 335.182C854.531 334.608 854.242 334.085 853.81 333.693C853.378 333.302 852.828 333.066 852.246 333.022L852.382 331.164C852.415 330.95 852.415 330.733 852.382 330.519C852.321 330.254 852.158 330.024 851.927 329.879C851.697 329.735 851.418 329.688 851.153 329.748C850.888 329.809 850.658 329.973 850.513 330.203C850.369 330.434 850.322 330.712 850.383 330.977C850.028 330.059 849.462 329.237 848.731 328.578C848.004 328.084 847.112 327.896 846.248 328.055C845.383 328.215 844.616 328.708 844.113 329.429C843.666 330.187 843.51 331.083 843.677 331.948C843.843 332.812 844.319 333.587 845.016 334.125C844.632 334.013 844.221 334.04 843.855 334.201C843.489 334.363 843.192 334.649 843.017 335.008C841.082 338.485 843.662 340.291 846.603 340.813C849.796 341.323 852.221 342.051 853.988 338.543Z" fill="#FFE9B3"/>
<path d="M757.248 524.245C756.226 523.668 755.039 523.457 753.881 523.645C753.308 523.753 752.788 524.047 752.402 524.483C752.015 524.918 751.784 525.47 751.746 526.051L749.888 525.941C749.675 525.908 749.457 525.908 749.243 525.941C748.991 526.021 748.777 526.19 748.643 526.418C748.508 526.645 748.463 526.914 748.515 527.173C748.583 527.429 748.745 527.65 748.968 527.792C749.192 527.934 749.46 527.987 749.721 527.941C748.807 528.305 747.991 528.88 747.341 529.618C746.856 530.35 746.678 531.244 746.847 532.106C747.016 532.967 747.518 533.728 748.244 534.223C749.006 534.662 749.902 534.808 750.764 534.634C751.626 534.459 752.395 533.976 752.926 533.275C752.818 533.659 752.849 534.07 753.014 534.433C753.179 534.797 753.468 535.09 753.829 535.261C757.325 537.151 759.105 534.616 759.582 531.611C760.079 528.412 760.776 525.987 757.248 524.245Z" fill="#FFE9B3"/>
<path opacity="0.15" d="M757.248 524.245C756.226 523.668 755.039 523.457 753.881 523.645C753.308 523.753 752.788 524.047 752.402 524.483C752.015 524.918 751.784 525.47 751.746 526.051L749.888 525.941C749.675 525.908 749.457 525.908 749.243 525.941C748.991 526.021 748.777 526.19 748.643 526.418C748.508 526.645 748.463 526.914 748.515 527.173C748.583 527.429 748.745 527.65 748.968 527.792C749.192 527.934 749.46 527.987 749.721 527.941C748.807 528.305 747.991 528.88 747.341 529.618C746.856 530.35 746.678 531.244 746.847 532.106C747.016 532.967 747.518 533.728 748.244 534.223C749.006 534.662 749.902 534.808 750.764 534.634C751.626 534.459 752.395 533.976 752.926 533.275C752.818 533.659 752.849 534.07 753.014 534.433C753.179 534.797 753.468 535.09 753.829 535.261C757.325 537.151 759.105 534.616 759.582 531.611C760.079 528.412 760.776 525.987 757.248 524.245Z" fill="black"/>
<path d="M734.022 523.007C734.613 521.993 734.84 520.807 734.667 519.646C734.565 519.072 734.276 518.548 733.844 518.157C733.412 517.766 732.862 517.53 732.28 517.486L732.416 515.628C732.449 515.414 732.449 515.197 732.416 514.983C732.355 514.718 732.192 514.488 731.961 514.343C731.731 514.199 731.452 514.152 731.187 514.212C730.922 514.273 730.692 514.437 730.547 514.667C730.403 514.898 730.356 515.176 730.416 515.441C730.062 514.523 729.496 513.701 728.765 513.042C728.038 512.548 727.146 512.36 726.281 512.519C725.417 512.679 724.65 513.172 724.147 513.893C723.7 514.651 723.544 515.547 723.711 516.412C723.877 517.276 724.353 518.051 725.05 518.589C724.666 518.477 724.255 518.504 723.889 518.665C723.523 518.827 723.226 519.113 723.051 519.472C721.116 522.949 723.696 524.755 726.637 525.277C729.83 525.787 732.255 526.515 734.022 523.007Z" fill="#FFE9B3"/>
<path d="M764.981 487.533C765.572 486.519 765.799 485.333 765.626 484.173C765.524 483.599 765.235 483.075 764.803 482.683C764.371 482.292 763.821 482.056 763.239 482.012L763.375 480.154C763.408 479.941 763.408 479.723 763.375 479.509C763.314 479.244 763.151 479.014 762.92 478.869C762.69 478.725 762.411 478.678 762.146 478.739C761.881 478.799 761.651 478.963 761.506 479.193C761.362 479.424 761.315 479.702 761.375 479.967C761.021 479.049 760.455 478.227 759.724 477.568C758.997 477.074 758.105 476.886 757.24 477.045C756.376 477.205 755.609 477.698 755.106 478.419C754.659 479.178 754.503 480.073 754.67 480.938C754.836 481.803 755.312 482.577 756.009 483.115C755.625 483.003 755.214 483.03 754.848 483.192C754.482 483.353 754.185 483.639 754.01 483.998C752.075 487.475 754.655 489.281 757.596 489.803C760.788 490.313 763.214 491.042 764.981 487.533Z" fill="#FFE9B3"/>
<path d="M715.427 499.246C709.145 497.64 702.605 496.021 696.258 497.311C693.433 497.885 690.763 499.02 688.016 499.891C681.25 501.987 674.099 502.533 667.093 501.486C660.087 500.44 653.408 497.829 647.55 493.847C640.971 489.3 634.134 482.67 626.343 484.469C624.247 484.959 622.305 486.056 620.164 486.295C616.146 486.752 612.424 484.147 608.438 483.534C601.576 482.483 595.339 487.294 590.063 491.809L562.245 515.615C560.136 517.421 557.814 519.808 558.375 522.517C559.233 526.496 565.328 527.031 566.895 530.805C568.03 533.507 566.153 536.654 563.67 538.196C561.187 539.737 558.181 540.131 555.395 541.066C551.185 542.477 547.412 544.952 544.442 548.252C541.471 551.552 539.406 555.565 538.445 559.9C537.955 562.209 537.8 564.608 536.891 566.788C535.91 569.161 534.137 571.109 532.827 573.315C527.1 582.925 530.86 595.677 526.513 605.983C524.21 611.453 519.599 616.741 521.056 622.488C522.385 627.7 528.106 630.363 533.311 631.744C533.924 635.291 532.666 637.794 530.086 640.341C551.725 649.236 574.951 658.317 597.906 653.77C605.781 652.215 613.45 649.061 621.473 649.19C627.168 649.281 632.799 651.035 638.481 650.635C650.471 649.79 661.481 639.542 673.097 642.618C669.595 642.857 668.299 647.978 670.362 650.822C672.426 653.667 676.225 654.576 679.721 654.911C683.217 655.247 686.919 655.273 689.95 657.053C687.654 661.832 679.431 663.502 680.224 668.759C680.514 670.655 682.05 672.094 683.572 673.274C699.212 685.251 720.755 684.103 740.33 686.173C754.764 687.683 768.915 691.211 783.305 693.094C806.292 696.093 829.595 694.868 852.737 693.629C856.936 693.404 861.644 692.939 864.346 689.714C867.932 685.419 865.939 679.053 865.488 673.48C863.734 651.674 887.585 636.665 894.267 615.832C896.847 607.699 896.737 598.959 896.273 590.426C895.234 571.18 892.222 550.876 879.955 536.016C869.854 523.761 854.755 516.86 839.721 511.803C830.15 508.579 820.12 505.928 810.052 506.876C793.154 508.469 776.081 520.008 760.479 513.326C756.351 511.558 752.836 508.637 748.914 506.457C738.608 500.632 726.914 502.18 715.427 499.246Z" fill="#D22B49"/>
<g opacity="0.1">
<path opacity="0.1" d="M802.693 676.299C788.303 674.415 774.178 670.907 759.718 669.378C740.123 667.327 718.581 668.475 702.96 656.479C701.437 655.311 699.902 653.899 699.612 651.964C698.819 646.72 707.042 645.037 709.338 640.257C706.307 638.477 702.611 638.458 699.109 638.116C695.607 637.774 691.814 636.871 689.75 634.027C687.687 631.183 688.983 626.061 692.485 625.823C680.876 622.746 669.859 632.995 657.869 633.84C652.187 634.24 646.556 632.485 640.861 632.395C632.838 632.266 625.169 635.42 617.294 636.974C594.339 641.489 571.12 632.46 549.474 623.546C552.022 620.966 553.292 618.496 552.699 614.948C547.507 613.568 541.786 610.904 540.444 605.693C538.987 599.946 543.598 594.657 545.901 589.188C550.248 578.868 546.488 566.13 552.215 556.52C553.505 554.314 555.298 552.366 556.279 549.993C557.175 547.813 557.343 545.413 557.833 543.104C558.044 542.093 558.324 541.097 558.671 540.124C557.588 540.421 556.491 540.692 555.447 541.04C551.237 542.451 547.463 544.926 544.493 548.226C541.523 551.527 539.457 555.539 538.496 559.874C538.006 562.183 537.852 564.582 536.942 566.762C535.962 569.136 534.188 571.083 532.879 573.289C527.151 582.899 530.912 595.651 526.564 605.957C524.262 611.427 519.65 616.716 521.108 622.462C522.437 627.674 528.157 630.338 533.362 631.718C533.975 635.265 532.717 637.768 530.138 640.315C551.783 649.21 575.002 658.291 597.957 653.744C605.832 652.19 613.501 649.036 621.525 649.165C627.22 649.255 632.85 651.009 638.533 650.609C650.523 649.764 661.533 639.516 673.149 642.592C669.646 642.831 668.35 647.952 670.414 650.796C672.478 653.641 676.277 654.55 679.773 654.886C683.268 655.221 686.971 655.247 690.002 657.027C687.706 661.806 679.482 663.477 680.276 668.733C680.566 670.629 682.101 672.068 683.623 673.248C699.264 685.225 720.806 684.077 740.381 686.148C754.816 687.657 768.967 691.185 783.356 693.068C806.343 696.067 829.646 694.842 852.788 693.604C856.987 693.378 861.695 692.913 864.398 689.689C867.204 686.322 866.591 681.691 865.978 677.157C844.849 678.253 823.635 679.034 802.693 676.299Z" fill="black"/>
<path opacity="0.1" d="M565.966 529.36C568.518 527.088 571.511 525.367 574.757 524.303C577.544 523.4 580.562 522.968 583.032 521.433C585.503 519.898 587.399 516.744 586.257 514.042C584.69 510.294 578.595 509.733 577.737 505.754C577.344 503.922 578.279 502.238 579.582 500.781L562.238 515.615C560.129 517.421 557.807 519.808 558.368 522.517C559.123 525.922 563.677 526.831 565.966 529.36Z" fill="black"/>
</g>
<path d="M624.376 516.557C624.966 515.543 625.194 514.357 625.021 513.197C624.919 512.623 624.629 512.099 624.197 511.708C623.765 511.316 623.215 511.08 622.634 511.036L622.77 509.178C622.792 508.963 622.781 508.745 622.737 508.533C622.677 508.268 622.513 508.038 622.283 507.894C622.052 507.749 621.774 507.702 621.509 507.763C621.243 507.823 621.013 507.987 620.869 508.217C620.724 508.448 620.677 508.726 620.738 508.991C620.383 508.073 619.818 507.251 619.087 506.592C618.36 506.098 617.467 505.91 616.603 506.07C615.738 506.229 614.972 506.723 614.469 507.443C614.021 508.202 613.866 509.097 614.032 509.962C614.198 510.827 614.675 511.601 615.372 512.139C614.988 512.027 614.576 512.054 614.211 512.216C613.845 512.377 613.548 512.663 613.372 513.022C611.437 516.499 614.017 518.305 616.958 518.827C620.183 519.337 622.608 520.066 624.376 516.557Z" fill="#FFE9B3"/>
<path d="M718.542 641.683C719.133 640.669 719.361 639.483 719.187 638.322C719.086 637.748 718.796 637.225 718.364 636.833C717.932 636.442 717.382 636.206 716.801 636.162L716.936 634.304C716.969 634.09 716.969 633.873 716.936 633.659C716.876 633.394 716.712 633.164 716.482 633.019C716.251 632.875 715.973 632.828 715.708 632.889C715.443 632.949 715.212 633.113 715.068 633.343C714.923 633.574 714.876 633.852 714.937 634.117C714.582 633.199 714.017 632.377 713.286 631.718C712.559 631.224 711.666 631.036 710.802 631.195C709.938 631.355 709.171 631.848 708.668 632.569C708.22 633.327 708.065 634.223 708.231 635.088C708.397 635.952 708.874 636.727 709.571 637.265C709.187 637.153 708.776 637.18 708.41 637.341C708.044 637.503 707.747 637.789 707.571 638.148C705.636 641.625 708.216 643.431 711.157 643.953C714.35 644.463 716.775 645.191 718.542 641.683Z" fill="#FFE9B3"/>
<path d="M783.04 518.492C783.631 517.478 783.859 516.292 783.685 515.132C783.584 514.558 783.294 514.034 782.862 513.642C782.43 513.251 781.88 513.015 781.299 512.971L781.434 511.113C781.467 510.9 781.467 510.682 781.434 510.468C781.373 510.203 781.21 509.973 780.979 509.828C780.749 509.684 780.471 509.637 780.206 509.698C779.94 509.758 779.71 509.922 779.566 510.152C779.421 510.383 779.374 510.661 779.435 510.926C779.08 510.008 778.515 509.186 777.784 508.527C777.057 508.033 776.164 507.845 775.3 508.004C774.435 508.164 773.669 508.657 773.166 509.378C772.718 510.137 772.563 511.032 772.729 511.897C772.895 512.762 773.372 513.536 774.069 514.074C773.685 513.962 773.273 513.989 772.908 514.151C772.542 514.312 772.245 514.598 772.069 514.957C770.134 518.434 772.714 520.24 775.655 520.762C778.848 521.272 781.273 522.001 783.04 518.492Z" fill="#FFE9B3"/>
<path d="M795.172 517.073C796.244 516.598 797.122 515.772 797.662 514.732C797.919 514.21 797.996 513.617 797.879 513.047C797.762 512.477 797.459 511.963 797.017 511.584L798.21 510.152C798.364 509.989 798.49 509.801 798.584 509.598C798.691 509.347 798.694 509.064 798.593 508.811C798.491 508.559 798.293 508.357 798.042 508.25C797.792 508.143 797.509 508.14 797.256 508.241C797.003 508.343 796.801 508.541 796.694 508.791C796.946 507.841 796.97 506.844 796.765 505.883C796.466 505.055 795.853 504.379 795.058 504.001C794.264 503.623 793.352 503.574 792.521 503.864C791.715 504.215 791.065 504.848 790.693 505.646C790.321 506.443 790.253 507.348 790.503 508.192C790.258 507.876 789.91 507.657 789.52 507.572C789.129 507.487 788.722 507.542 788.368 507.727C784.769 509.411 785.788 512.365 787.878 514.519C790.135 516.873 791.67 518.879 795.172 517.073Z" fill="#FFE9B3"/>
<path d="M655.341 520.375C654.319 519.798 653.132 519.587 651.974 519.775C651.402 519.883 650.882 520.177 650.495 520.613C650.109 521.049 649.878 521.6 649.839 522.181L647.982 522.071C647.768 522.039 647.55 522.039 647.337 522.071C647.085 522.151 646.871 522.32 646.736 522.548C646.602 522.775 646.556 523.044 646.608 523.303C646.676 523.559 646.838 523.78 647.062 523.922C647.285 524.064 647.553 524.117 647.814 524.071C646.9 524.435 646.085 525.01 645.434 525.748C644.949 526.48 644.772 527.374 644.941 528.236C645.11 529.098 645.611 529.858 646.337 530.353C647.099 530.792 647.995 530.938 648.857 530.764C649.72 530.589 650.488 530.106 651.02 529.405C650.911 529.789 650.942 530.2 651.107 530.563C651.273 530.927 651.561 531.22 651.923 531.391C655.418 533.281 657.198 530.746 657.676 527.741C658.172 524.542 658.869 522.117 655.341 520.375Z" fill="#FFE9B3"/>
<path opacity="0.15" d="M655.341 520.375C654.319 519.798 653.132 519.587 651.974 519.775C651.402 519.883 650.882 520.177 650.495 520.613C650.109 521.049 649.878 521.6 649.839 522.181L647.982 522.071C647.768 522.039 647.55 522.039 647.337 522.071C647.085 522.151 646.871 522.32 646.736 522.548C646.602 522.775 646.556 523.044 646.608 523.303C646.676 523.559 646.838 523.78 647.062 523.922C647.285 524.064 647.553 524.117 647.814 524.071C646.9 524.435 646.085 525.01 645.434 525.748C644.949 526.48 644.772 527.374 644.941 528.236C645.11 529.098 645.611 529.858 646.337 530.353C647.099 530.792 647.995 530.938 648.857 530.764C649.72 530.589 650.488 530.106 651.02 529.405C650.911 529.789 650.942 530.2 651.107 530.563C651.273 530.927 651.561 531.22 651.923 531.391C655.418 533.281 657.198 530.746 657.676 527.741C658.172 524.542 658.869 522.117 655.341 520.375Z" fill="black"/>
<path d="M712.77 568.355C712.968 567.2 712.773 566.013 712.215 564.982C711.923 564.477 711.47 564.084 710.929 563.866C710.388 563.647 709.79 563.615 709.229 563.776L708.713 561.983C708.662 561.755 708.575 561.538 708.455 561.338C708.306 561.109 708.073 560.95 707.806 560.893C707.539 560.837 707.261 560.889 707.033 561.038C706.804 561.187 706.644 561.42 706.588 561.687C706.532 561.954 706.584 562.232 706.733 562.46C706.086 561.717 705.273 561.138 704.359 560.77C703.506 560.558 702.604 560.69 701.847 561.138C701.09 561.586 700.54 562.313 700.315 563.163C700.156 564.029 700.319 564.923 700.773 565.677C701.227 566.431 701.94 566.993 702.779 567.259C702.38 567.285 702.004 567.452 701.716 567.729C701.428 568.007 701.247 568.377 701.205 568.774C700.56 572.702 703.605 573.521 706.565 572.98C709.79 572.393 712.305 572.225 712.77 568.355Z" fill="#FFE9B3"/>
<path opacity="0.15" d="M712.77 568.355C712.968 567.2 712.773 566.013 712.215 564.982C711.923 564.477 711.47 564.084 710.929 563.866C710.388 563.647 709.79 563.615 709.229 563.776L708.713 561.983C708.662 561.755 708.575 561.538 708.455 561.338C708.306 561.109 708.073 560.95 707.806 560.893C707.539 560.837 707.261 560.889 707.033 561.038C706.804 561.187 706.644 561.42 706.588 561.687C706.532 561.954 706.584 562.232 706.733 562.46C706.086 561.717 705.273 561.138 704.359 560.77C703.506 560.558 702.604 560.69 701.847 561.138C701.09 561.586 700.54 562.313 700.315 563.163C700.156 564.029 700.319 564.923 700.773 565.677C701.227 566.431 701.94 566.993 702.779 567.259C702.38 567.285 702.004 567.452 701.716 567.729C701.428 568.007 701.247 568.377 701.205 568.774C700.56 572.702 703.605 573.521 706.565 572.98C709.79 572.393 712.305 572.225 712.77 568.355Z" fill="black"/>
<path d="M790.167 509.662C790.365 508.507 790.17 507.319 789.613 506.289C789.32 505.784 788.868 505.391 788.327 505.172C787.786 504.954 787.187 504.922 786.626 505.083L786.11 503.29C786.06 503.062 785.972 502.845 785.852 502.645C785.779 502.532 785.683 502.434 785.572 502.358C785.461 502.282 785.335 502.228 785.203 502.2C785.071 502.172 784.935 502.171 784.802 502.196C784.67 502.22 784.543 502.271 784.43 502.345C784.317 502.419 784.22 502.514 784.143 502.625C784.067 502.736 784.014 502.862 783.986 502.994C783.958 503.126 783.956 503.262 783.981 503.395C784.006 503.527 784.057 503.654 784.13 503.767C783.484 503.024 782.67 502.445 781.757 502.077C780.904 501.865 780.001 501.997 779.244 502.445C778.488 502.893 777.937 503.62 777.713 504.47C777.554 505.336 777.717 506.23 778.17 506.984C778.624 507.738 779.337 508.3 780.177 508.566C779.778 508.592 779.401 508.759 779.113 509.036C778.825 509.314 778.644 509.684 778.603 510.081C777.958 514.009 781.002 514.828 783.963 514.287C787.187 513.7 789.703 513.532 790.167 509.662Z" fill="#FFE9B3"/>
<path opacity="0.15" d="M790.167 509.662C790.365 508.507 790.17 507.319 789.613 506.289C789.32 505.784 788.868 505.391 788.327 505.172C787.786 504.954 787.187 504.922 786.626 505.083L786.11 503.29C786.06 503.062 785.972 502.845 785.852 502.645C785.779 502.532 785.683 502.434 785.572 502.358C785.461 502.282 785.335 502.228 785.203 502.2C785.071 502.172 784.935 502.171 784.802 502.196C784.67 502.22 784.543 502.271 784.43 502.345C784.317 502.419 784.22 502.514 784.143 502.625C784.067 502.736 784.014 502.862 783.986 502.994C783.958 503.126 783.956 503.262 783.981 503.395C784.006 503.527 784.057 503.654 784.13 503.767C783.484 503.024 782.67 502.445 781.757 502.077C780.904 501.865 780.001 501.997 779.244 502.445C778.488 502.893 777.937 503.62 777.713 504.47C777.554 505.336 777.717 506.23 778.17 506.984C778.624 507.738 779.337 508.3 780.177 508.566C779.778 508.592 779.401 508.759 779.113 509.036C778.825 509.314 778.644 509.684 778.603 510.081C777.958 514.009 781.002 514.828 783.963 514.287C787.187 513.7 789.703 513.532 790.167 509.662Z" fill="black"/>
</svg>
