<svg width="185" height="185" viewBox="0 0 185 185" fill="none" xmlns="http://www.w3.org/2000/svg">
<path fill-rule="evenodd" clip-rule="evenodd" d="M92.5 185C143.586 185 185 143.586 185 92.5C185 41.4137 143.586 0 92.5 0C41.4137 0 0 41.4137 0 92.5C0 143.586 41.4137 185 92.5 185ZM105.5 151.41C113.289 162.137 128.301 164.512 139.023 156.723C149.746 148.93 152.125 133.922 144.332 123.199C136.543 112.473 121.535 110.098 110.809 117.887C100.086 125.68 97.7109 140.688 105.5 151.41ZM168.086 67.2773C163.988 54.6719 150.449 47.7734 137.844 51.8711C125.238 55.9648 118.34 69.5078 122.434 82.1133C126.531 94.7188 140.07 101.617 152.676 97.5195C165.281 93.4258 172.18 79.8867 168.086 67.2773ZM116 36C116 22.7461 105.254 12 92 12C78.7461 12 68 22.7461 68 36C68 49.2539 78.7461 60 92 60C105.254 60 116 49.2539 116 36ZM46.1563 51.8672C33.5508 47.7734 20.0117 54.6719 15.9141 67.2773C11.8203 79.8867 18.7188 93.4258 31.3242 97.5195C43.9297 101.613 57.4688 94.7148 61.5664 82.1094C65.6602 69.5039 58.7617 55.9648 46.1563 51.8672ZM44.9766 156.723C55.6992 164.512 70.7109 162.137 78.5 151.41C86.2891 140.688 83.9141 125.68 73.1914 117.891C62.4688 110.098 47.457 112.477 39.668 123.199C31.875 133.922 34.2539 148.93 44.9766 156.723ZM92 84C87.582 84 84 87.582 84 92C84 96.418 87.582 100 92 100C96.418 100 100 96.418 100 92C100 87.582 96.418 84 92 84Z" fill="black"/>
</svg>
