<svg width="460" height="440" viewBox="0 0 460 440" fill="none" xmlns="http://www.w3.org/2000/svg">
<path fill-rule="evenodd" clip-rule="evenodd" d="M316 178C316 254.215 254.215 316 178 316C101.785 316 40 254.215 40 178C40 101.785 101.785 40 178 40C254.215 40 316 101.785 316 178ZM356 178C356 276.307 276.307 356 178 356C79.6933 356 0 276.307 0 178C0 79.6933 79.6933 0 178 0C276.307 0 356 79.6933 356 178ZM312.142 295.185C304.332 302.995 304.332 315.659 312.142 323.469L424.913 436.24C428.818 440.145 435.15 440.145 439.055 436.24L456.24 419.055C460.145 415.15 460.145 408.818 456.24 404.913L343.469 292.142C335.659 284.332 322.995 284.332 315.185 292.142L312.142 295.185Z" fill="#F3F3F3"/>
</svg>
